{"glyphs":{"0":{"ha":910,"x_min":50,"x_max":860,"o":"m 424 -28 q 144 74 239 -28 q 50 371 50 175 q 106 573 50 483 q 260 713 161 663 q 485 763 360 763 q 765 661 669 763 q 860 361 860 560 q 804 160 860 249 q 649 22 749 72 q 424 -28 550 -28 m 471 144 q 582 165 529 144 q 600 247 593 196 q 607 350 607 297 q 564 525 607 465 q 438 585 521 585 q 325 572 394 585 q 303 393 303 538 q 347 209 303 274 q 471 144 390 144 z "},"1":{"ha":544,"x_min":28,"x_max":538,"o":"m 28 142 l 178 169 l 178 482 q 173 517 178 510 q 142 540 168 525 l 28 603 l 40 694 l 299 769 l 413 760 l 413 214 q 416 174 413 182 q 439 156 419 165 l 538 106 l 533 0 l 35 0 l 28 142 z "},"2":{"ha":601,"x_min":26,"x_max":561,"o":"m 26 163 q 94 217 49 182 q 169 275 140 253 q 333 404 300 375 q 340 463 340 435 q 313 533 340 511 q 228 556 286 556 q 56 542 154 556 l 49 596 l 65 736 q 276 763 169 763 q 477 707 403 763 q 551 554 551 651 q 500 378 551 454 q 331 208 449 301 l 272 165 l 504 218 l 561 218 l 546 0 l 31 0 l 26 163 z "},"3":{"ha":657,"x_min":-24,"x_max":618,"o":"m 192 -217 q 74 -202 131 -217 q -24 -162 18 -187 l 57 32 l 118 32 q 304 -6 196 -6 q 426 25 394 -6 q 393 138 428 100 q 285 183 358 176 l 192 192 q 117 197 142 194 q 146 363 128 300 q 271 379 240 374 q 322 394 301 385 q 335 474 333 436 q 306 538 333 519 q 211 556 279 556 q 39 535 131 556 l 40 599 l 68 732 q 279 763 168 763 q 481 710 404 763 q 558 571 558 658 q 536 474 558 522 q 468 369 514 425 q 582 298 546 347 q 618 165 618 249 q 562 -29 618 58 q 408 -167 506 -117 q 192 -217 310 -217 z "},"4":{"ha":826,"x_min":21,"x_max":792,"o":"m 435 49 l 57 49 l 21 196 l 394 769 l 649 742 l 660 258 l 792 258 l 792 204 l 757 49 l 664 49 l 669 -174 l 501 -199 l 435 -199 l 435 49 m 435 258 l 435 554 l 247 258 l 435 258 z "},"5":{"ha":697,"x_min":39,"x_max":657,"o":"m 249 -217 q 39 -161 118 -217 l 113 28 l 168 28 q 356 -11 242 -11 q 472 21 438 -11 q 441 133 474 94 q 340 179 408 172 q 179 190 374 176 l 101 194 l 71 554 q 78 646 69 594 q 100 747 86 697 l 408 747 q 450 751 440 747 q 476 774 460 754 l 503 807 l 611 778 q 582 526 601 664 l 251 526 l 251 410 l 292 407 q 449 391 386 401 q 557 353 513 381 q 657 160 657 293 q 603 -32 657 54 q 457 -167 550 -118 q 249 -217 364 -217 z "},"6":{"ha":783,"x_min":53,"x_max":732,"o":"m 383 -28 q 208 13 283 -28 q 93 128 133 53 q 53 301 53 203 q 74 458 53 386 q 156 640 96 531 q 219 745 181 689 q 360 938 258 801 l 599 954 l 611 899 l 339 586 l 463 614 q 659 523 586 599 q 732 336 732 447 q 686 151 732 235 q 560 20 640 68 q 383 -28 481 -28 m 422 157 q 504 167 471 157 q 506 213 506 178 q 469 385 506 329 q 354 440 432 440 q 278 435 311 440 q 276 383 276 421 q 315 215 276 274 q 422 157 353 157 z "},"7":{"ha":693,"x_min":39,"x_max":676,"o":"m 83 -137 l 472 538 l 236 532 l 131 428 l 39 439 l 69 747 l 658 747 l 676 613 l 342 -199 l 83 -199 l 83 -137 z "},"8":{"ha":821,"x_min":50,"x_max":769,"o":"m 400 -28 q 141 39 229 -28 q 50 233 53 106 q 85 376 50 314 q 188 478 121 438 q 112 565 133 519 q 90 679 90 611 q 131 822 90 760 q 247 919 172 885 q 419 954 322 954 q 647 888 565 954 q 728 703 728 822 q 705 582 728 638 q 639 490 682 526 q 739 396 708 450 q 769 261 769 342 q 724 110 769 175 q 594 8 678 44 q 400 -28 511 -28 m 479 567 q 510 685 510 632 q 476 767 510 740 q 374 794 443 794 q 332 792 363 794 q 319 756 325 781 q 314 714 314 731 q 326 663 314 683 q 373 621 339 642 q 479 567 407 600 m 438 132 q 507 139 461 132 q 533 233 533 185 q 511 288 532 265 q 453 330 490 311 q 342 381 417 349 l 317 392 q 290 330 300 365 q 279 263 279 294 q 438 132 279 132 z "},"9":{"ha":783,"x_min":53,"x_max":732,"o":"m 174 -164 l 446 151 l 322 124 q 126 214 200 139 q 53 401 53 289 q 99 585 53 503 q 224 715 144 668 q 400 763 303 763 q 575 722 500 763 q 691 608 650 682 q 732 436 732 535 q 710 278 732 351 q 629 97 688 206 q 561 -15 603 47 q 426 -201 519 -76 l 186 -217 l 174 -164 m 431 297 q 506 303 474 297 q 507 353 507 317 q 469 521 507 461 q 364 581 432 581 q 281 572 315 581 q 279 524 279 560 q 316 352 279 407 q 431 297 353 297 z "}," ":{"ha":286,"x_min":0,"x_max":0,"o":""},"A":{"ha":989,"x_min":22,"x_max":969,"o":"m 22 124 l 65 150 l 390 938 l 626 958 l 904 208 q 924 161 918 172 q 944 131 929 150 l 969 99 l 961 0 l 571 0 l 557 132 l 656 157 l 611 297 l 329 293 l 299 206 q 294 185 294 193 q 298 170 294 175 q 310 163 301 165 l 406 122 l 392 0 l 28 0 l 22 124 m 476 721 l 385 454 l 564 446 l 476 721 z "},"Á":{"ha":989,"x_min":22,"x_max":969,"o":"m 22 124 l 65 150 l 390 938 l 626 958 l 904 208 q 924 161 918 172 q 944 131 929 150 l 969 99 l 961 0 l 571 0 l 557 132 l 656 157 l 611 297 l 329 293 l 299 206 q 294 185 294 193 q 298 170 294 175 q 310 163 301 165 l 406 122 l 392 0 l 28 0 l 22 124 m 476 721 l 385 454 l 564 446 l 476 721 m 561 1279 l 811 1279 l 811 1222 l 550 1039 l 429 1039 l 561 1279 z "},"Ă":{"ha":989,"x_min":22,"x_max":969,"o":"m 22 124 l 65 150 l 390 938 l 626 958 l 904 208 q 924 161 918 172 q 944 131 929 150 l 969 99 l 961 0 l 571 0 l 557 132 l 656 157 l 611 297 l 329 293 l 299 206 q 294 185 294 193 q 298 170 294 175 q 310 163 301 165 l 406 122 l 392 0 l 28 0 l 22 124 m 476 721 l 385 454 l 564 446 l 476 721 m 492 1039 q 344 1093 394 1039 q 293 1247 293 1147 q 294 1279 293 1268 l 372 1279 q 428 1208 390 1232 q 531 1183 467 1183 q 630 1208 596 1183 q 675 1279 664 1233 l 754 1279 q 674 1103 746 1167 q 492 1039 603 1039 z "},"Â":{"ha":989,"x_min":22,"x_max":969,"o":"m 22 124 l 65 150 l 390 938 l 626 958 l 904 208 q 924 161 918 172 q 944 131 929 150 l 969 99 l 961 0 l 571 0 l 557 132 l 656 157 l 611 297 l 329 293 l 299 206 q 294 185 294 193 q 298 170 294 175 q 310 163 301 165 l 406 122 l 392 0 l 28 0 l 22 124 m 476 721 l 385 454 l 564 446 l 476 721 m 421 1279 l 628 1279 l 801 1039 l 686 1039 l 524 1140 l 363 1039 l 247 1039 l 421 1279 z "},"Ä":{"ha":989,"x_min":22,"x_max":969,"o":"m 22 124 l 65 150 l 390 938 l 626 958 l 904 208 q 924 161 918 172 q 944 131 929 150 l 969 99 l 961 0 l 571 0 l 557 132 l 656 157 l 611 297 l 329 293 l 299 206 q 294 185 294 193 q 298 170 294 175 q 310 163 301 165 l 406 122 l 392 0 l 28 0 l 22 124 m 476 721 l 385 454 l 564 446 l 476 721 m 238 1243 l 433 1296 l 481 1122 l 285 1069 l 238 1243 m 567 1243 l 761 1296 l 808 1122 l 614 1069 l 567 1243 z "},"À":{"ha":989,"x_min":22,"x_max":969,"o":"m 22 124 l 65 150 l 390 938 l 626 958 l 904 208 q 924 161 918 172 q 944 131 929 150 l 969 99 l 961 0 l 571 0 l 557 132 l 656 157 l 611 297 l 329 293 l 299 206 q 294 185 294 193 q 298 170 294 175 q 310 163 301 165 l 406 122 l 392 0 l 28 0 l 22 124 m 476 721 l 385 454 l 564 446 l 476 721 m 239 1222 l 239 1279 l 489 1279 l 621 1039 l 501 1039 l 239 1222 z "},"Ā":{"ha":989,"x_min":22,"x_max":969,"o":"m 22 124 l 65 150 l 390 938 l 626 958 l 904 208 q 924 161 918 172 q 944 131 929 150 l 969 99 l 961 0 l 571 0 l 557 132 l 656 157 l 611 297 l 329 293 l 299 206 q 294 185 294 193 q 298 170 294 175 q 310 163 301 165 l 406 122 l 392 0 l 28 0 l 22 124 m 476 721 l 385 454 l 564 446 l 476 721 m 310 1231 l 735 1214 l 735 1089 l 310 1076 l 310 1231 z "},"Ą":{"ha":989,"x_min":22,"x_max":969,"o":"m 721 -315 q 578 -278 638 -315 q 518 -165 518 -242 q 563 -45 518 -101 q 689 51 607 11 l 611 297 l 329 293 l 299 206 q 294 185 294 193 q 298 170 294 175 q 310 163 301 165 l 406 122 l 392 0 l 28 0 l 22 124 l 65 150 l 390 938 l 626 958 l 904 208 q 924 161 918 172 q 944 131 929 150 l 969 99 l 963 1 l 961 1 l 961 0 l 950 0 q 688 -62 779 -21 q 682 -101 682 -76 q 800 -201 682 -201 q 869 -192 831 -201 l 888 -275 q 721 -315 811 -315 m 478 719 l 385 454 l 564 446 l 478 719 z "},"Å":{"ha":989,"x_min":22,"x_max":969,"o":"m 22 124 l 65 150 l 390 938 l 626 958 l 904 208 q 924 161 918 172 q 944 131 929 150 l 969 99 l 961 0 l 571 0 l 557 132 l 656 157 l 611 297 l 329 293 l 299 206 q 294 185 294 193 q 298 170 294 175 q 310 163 301 165 l 406 122 l 392 0 l 28 0 l 22 124 m 476 721 l 385 454 l 564 446 l 476 721 m 521 1040 q 393 1072 433 1040 q 353 1174 353 1104 q 400 1276 353 1238 q 525 1315 447 1315 q 693 1181 693 1315 q 648 1077 693 1114 q 521 1040 603 1040 m 526 1115 q 568 1121 554 1115 q 576 1172 576 1157 q 518 1236 576 1236 q 478 1233 489 1236 q 469 1185 469 1214 q 484 1133 469 1151 q 526 1115 499 1115 z "},"Ã":{"ha":989,"x_min":22,"x_max":969,"o":"m 22 124 l 65 150 l 390 938 l 626 958 l 904 208 q 924 161 918 172 q 944 131 929 150 l 969 99 l 961 0 l 571 0 l 557 132 l 656 157 l 611 297 l 329 293 l 299 206 q 294 185 294 193 q 298 170 294 175 q 310 163 301 165 l 406 122 l 392 0 l 28 0 l 22 124 m 476 721 l 385 454 l 564 446 l 476 721 m 626 1058 q 497 1089 583 1058 q 442 1106 469 1099 q 396 1114 414 1114 q 377 1099 388 1110 q 354 1071 367 1089 l 278 1071 q 337 1215 300 1169 q 431 1261 374 1261 q 488 1253 458 1261 q 560 1231 518 1246 q 601 1217 567 1228 q 663 1206 636 1206 q 679 1221 669 1210 q 703 1249 689 1232 l 779 1249 q 720 1104 757 1150 q 626 1058 683 1058 z "},"Æ":{"ha":1288,"x_min":-14,"x_max":1254,"o":"m -14 124 l 29 150 l 536 936 l 1215 936 q 1225 651 1225 790 l 1121 644 l 1022 767 l 831 772 l 850 546 l 1108 571 l 1108 357 l 864 389 l 883 165 l 1043 169 l 1151 292 l 1254 285 q 1232 0 1249 160 l 563 0 l 549 132 l 635 157 l 625 297 l 340 294 l 290 207 q 285 188 285 196 q 301 163 285 171 l 397 122 l 383 0 l -8 0 l -14 124 m 594 747 l 431 450 l 615 440 l 594 747 z "},"B":{"ha":900,"x_min":46,"x_max":881,"o":"m 358 -6 q 58 6 208 -6 l 51 142 l 153 169 l 153 699 q 147 747 153 735 q 118 768 142 758 l 46 808 l 54 924 q 440 953 279 953 q 729 894 638 953 q 821 710 821 836 q 801 599 821 647 q 742 513 782 551 q 881 310 881 450 q 811 108 881 185 q 607 8 742 32 q 358 -6 557 -6 m 563 557 q 576 678 576 593 q 549 764 576 736 q 467 794 522 792 q 394 792 431 794 l 394 560 q 456 561 418 561 q 563 557 513 561 m 504 167 q 617 181 583 167 q 631 279 631 236 q 594 378 631 349 q 472 407 558 407 q 426 404 454 407 l 394 403 l 394 176 q 504 167 443 167 z "},"C":{"ha":893,"x_min":35,"x_max":844,"o":"m 474 -21 q 149 108 263 -21 q 35 474 35 238 q 90 733 35 624 q 249 899 144 842 q 496 957 353 957 q 831 883 658 957 q 790 607 818 758 l 685 600 l 589 740 q 454 758 528 758 q 349 749 399 758 q 313 635 326 706 q 299 492 299 564 q 355 263 299 338 q 533 186 411 189 q 656 201 582 186 q 801 239 731 215 l 844 86 q 670 9 772 39 q 474 -21 568 -21 z "},"Ć":{"ha":893,"x_min":35,"x_max":844,"o":"m 474 -21 q 149 108 263 -21 q 35 474 35 238 q 90 733 35 624 q 249 899 144 842 q 496 957 353 957 q 831 883 658 957 q 790 607 818 758 l 685 600 l 589 740 q 454 758 528 758 q 349 749 399 758 q 313 635 326 706 q 299 492 299 564 q 355 263 299 338 q 533 186 411 189 q 656 201 582 186 q 801 239 731 215 l 844 86 q 670 9 772 39 q 474 -21 568 -21 m 526 1279 l 776 1279 l 776 1222 l 515 1039 l 394 1039 l 526 1279 z "},"Č":{"ha":893,"x_min":35,"x_max":844,"o":"m 474 -21 q 149 108 263 -21 q 35 474 35 238 q 90 733 35 624 q 249 899 144 842 q 496 957 353 957 q 831 883 658 957 q 790 607 818 758 l 685 600 l 589 740 q 454 758 528 758 q 349 749 399 758 q 313 635 326 706 q 299 492 299 564 q 355 263 299 338 q 533 186 411 189 q 656 201 582 186 q 801 239 731 215 l 844 86 q 670 9 772 39 q 474 -21 568 -21 m 213 1279 l 328 1279 l 490 1178 l 651 1279 l 767 1279 l 593 1039 l 386 1039 l 213 1279 z "},"Ç":{"ha":893,"x_min":35,"x_max":844,"o":"m 571 -68 q 633 -104 613 -83 q 654 -162 654 -125 q 576 -276 654 -236 q 361 -315 497 -315 l 347 -264 q 439 -256 397 -264 q 500 -233 481 -247 q 503 -207 503 -217 q 482 -174 503 -183 q 393 -156 461 -164 l 393 -128 l 425 -19 q 135 124 236 -4 q 35 474 35 251 q 90 733 35 624 q 249 899 144 842 q 496 957 353 957 q 831 883 658 957 q 790 607 818 758 l 685 600 l 589 740 q 454 758 528 758 q 349 749 399 758 q 313 635 326 706 q 299 492 299 564 q 355 263 299 338 q 533 186 411 189 q 656 201 582 186 q 801 239 731 215 l 844 86 q 691 15 781 44 q 514 -19 601 -14 l 493 -49 q 571 -68 526 -56 z "},"Ċ":{"ha":893,"x_min":35,"x_max":844,"o":"m 474 -21 q 149 108 263 -21 q 35 474 35 238 q 90 733 35 624 q 249 899 144 842 q 496 957 353 957 q 831 883 658 957 q 790 607 818 758 l 685 600 l 589 740 q 454 758 528 758 q 349 749 399 758 q 313 635 326 706 q 299 492 299 564 q 355 263 299 338 q 533 186 411 189 q 656 201 582 186 q 801 239 731 215 l 844 86 q 670 9 772 39 q 474 -21 568 -21 m 357 1235 l 553 1288 l 600 1114 l 404 1061 l 357 1235 z "},"D":{"ha":1021,"x_min":46,"x_max":986,"o":"m 335 -4 q 58 8 185 -4 l 51 142 l 153 169 l 153 699 q 147 747 153 735 q 118 768 142 758 l 46 808 l 54 924 q 297 941 199 935 q 456 947 396 947 q 763 903 647 947 q 933 763 879 858 q 986 508 986 667 q 894 185 986 308 q 677 37 813 78 q 335 -4 542 -4 m 510 194 q 694 222 626 194 q 717 331 707 257 q 728 468 728 404 q 663 700 728 625 q 467 775 599 775 q 433 774 449 775 q 404 771 418 772 l 404 201 q 510 194 460 194 z "},"Ð":{"ha":1022,"x_min":46,"x_max":986,"o":"m 456 947 q 763 903 647 947 q 933 763 879 858 q 986 508 986 667 q 894 185 986 308 q 677 37 813 78 q 335 -4 542 -4 q 58 8 185 -4 l 51 142 l 153 169 l 153 413 l 51 417 l 51 511 l 153 521 l 153 699 q 147 747 153 735 q 118 768 142 758 l 46 808 l 54 924 q 297 941 199 935 q 456 947 396 947 m 694 222 q 717 331 707 257 q 728 468 728 404 q 663 700 728 625 q 467 775 599 775 q 433 774 449 775 q 404 771 418 772 l 404 544 l 525 556 l 525 397 l 404 403 l 404 201 q 510 194 460 194 q 694 222 626 194 z "},"Ď":{"ha":1021,"x_min":46,"x_max":986,"o":"m 335 -4 q 58 8 185 -4 l 51 142 l 153 169 l 153 699 q 147 747 153 735 q 118 768 142 758 l 46 808 l 54 924 q 297 941 199 935 q 456 947 396 947 q 763 903 647 947 q 933 763 879 858 q 986 508 986 667 q 894 185 986 308 q 677 37 813 78 q 335 -4 542 -4 m 510 194 q 694 222 626 194 q 717 331 707 257 q 728 468 728 404 q 663 700 728 625 q 467 775 599 775 q 433 774 449 775 q 404 771 418 772 l 404 201 q 510 194 460 194 m 219 1261 l 335 1261 l 497 1160 l 658 1261 l 774 1261 l 600 1021 l 393 1021 l 219 1261 z "},"Đ":{"ha":1022,"x_min":46,"x_max":986,"o":"m 456 947 q 763 903 647 947 q 933 763 879 858 q 986 508 986 667 q 894 185 986 308 q 677 37 813 78 q 335 -4 542 -4 q 58 8 185 -4 l 51 142 l 153 169 l 153 413 l 51 417 l 51 511 l 153 521 l 153 699 q 147 747 153 735 q 118 768 142 758 l 46 808 l 54 924 q 297 941 199 935 q 456 947 396 947 m 694 222 q 717 331 707 257 q 728 468 728 404 q 663 700 728 625 q 467 775 599 775 q 433 774 449 775 q 404 771 418 772 l 404 544 l 525 556 l 525 397 l 404 403 l 404 201 q 510 194 460 194 q 694 222 626 194 z "},"E":{"ha":865,"x_min":35,"x_max":832,"o":"m 38 142 l 139 169 l 139 701 q 133 749 139 738 q 104 771 128 761 l 35 811 l 39 936 l 793 936 q 803 651 803 790 l 700 644 l 601 767 l 392 772 l 392 546 l 688 571 l 688 357 l 392 389 l 392 165 l 622 169 l 729 292 l 832 285 q 811 0 826 139 l 44 0 l 38 142 z "},"É":{"ha":865,"x_min":35,"x_max":832,"o":"m 38 142 l 139 169 l 139 701 q 133 749 139 738 q 104 771 128 761 l 35 811 l 39 936 l 793 936 q 803 651 803 790 l 700 644 l 601 767 l 392 772 l 392 546 l 688 571 l 688 357 l 392 389 l 392 165 l 622 169 l 729 292 l 832 285 q 811 0 826 139 l 44 0 l 38 142 m 474 1261 l 724 1261 l 724 1204 l 463 1021 l 342 1021 l 474 1261 z "},"Ě":{"ha":865,"x_min":35,"x_max":832,"o":"m 38 142 l 139 169 l 139 701 q 133 749 139 738 q 104 771 128 761 l 35 811 l 39 936 l 793 936 q 803 651 803 790 l 700 644 l 601 767 l 392 772 l 392 546 l 688 571 l 688 357 l 392 389 l 392 165 l 622 169 l 729 292 l 832 285 q 811 0 826 139 l 44 0 l 38 142 m 160 1261 l 275 1261 l 438 1160 l 599 1261 l 714 1261 l 540 1021 l 333 1021 l 160 1261 z "},"Ê":{"ha":865,"x_min":35,"x_max":832,"o":"m 38 142 l 139 169 l 139 701 q 133 749 139 738 q 104 771 128 761 l 35 811 l 39 936 l 793 936 q 803 651 803 790 l 700 644 l 601 767 l 392 772 l 392 546 l 688 571 l 688 357 l 392 389 l 392 165 l 622 169 l 729 292 l 832 285 q 811 0 826 139 l 44 0 l 38 142 m 333 1261 l 540 1261 l 714 1021 l 599 1021 l 436 1122 l 275 1021 l 160 1021 l 333 1261 z "},"Ë":{"ha":865,"x_min":35,"x_max":832,"o":"m 38 142 l 139 169 l 139 701 q 133 749 139 738 q 104 771 128 761 l 35 811 l 39 936 l 793 936 q 803 651 803 790 l 700 644 l 601 767 l 392 772 l 392 546 l 688 571 l 688 357 l 392 389 l 392 165 l 622 169 l 729 292 l 832 285 q 811 0 826 139 l 44 0 l 38 142 m 150 1225 l 346 1278 l 393 1104 l 197 1051 l 150 1225 m 479 1225 l 674 1278 l 721 1104 l 526 1051 l 479 1225 z "},"Ė":{"ha":865,"x_min":35,"x_max":832,"o":"m 38 142 l 139 169 l 139 701 q 133 749 139 738 q 104 771 128 761 l 35 811 l 39 936 l 793 936 q 803 651 803 790 l 700 644 l 601 767 l 392 772 l 392 546 l 688 571 l 688 357 l 392 389 l 392 165 l 622 169 l 729 292 l 832 285 q 811 0 826 139 l 44 0 l 38 142 m 304 1217 l 500 1269 l 547 1096 l 351 1043 l 304 1217 z "},"È":{"ha":865,"x_min":35,"x_max":832,"o":"m 38 142 l 139 169 l 139 701 q 133 749 139 738 q 104 771 128 761 l 35 811 l 39 936 l 793 936 q 803 651 803 790 l 700 644 l 601 767 l 392 772 l 392 546 l 688 571 l 688 357 l 392 389 l 392 165 l 622 169 l 729 292 l 832 285 q 811 0 826 139 l 44 0 l 38 142 m 151 1204 l 151 1261 l 401 1261 l 533 1021 l 414 1021 l 151 1204 z "},"Ē":{"ha":865,"x_min":35,"x_max":832,"o":"m 38 142 l 139 169 l 139 701 q 133 749 139 738 q 104 771 128 761 l 35 811 l 39 936 l 793 936 q 803 651 803 790 l 700 644 l 601 767 l 392 772 l 392 546 l 688 571 l 688 357 l 392 389 l 392 165 l 622 169 l 729 292 l 832 285 q 811 0 826 139 l 44 0 l 38 142 m 222 1213 l 647 1196 l 647 1071 l 222 1058 l 222 1213 z "},"Ę":{"ha":863,"x_min":32,"x_max":829,"o":"m 604 -315 q 461 -278 521 -315 q 401 -165 401 -242 q 490 0 401 -74 l 42 0 l 35 142 l 136 169 l 136 701 q 131 749 136 739 q 101 771 126 760 l 32 811 l 36 936 l 790 936 q 800 651 800 790 l 697 644 l 599 767 l 389 772 l 389 546 l 685 571 l 685 357 l 389 389 l 389 165 l 619 169 l 726 292 l 829 285 q 808 0 826 163 q 678 -22 743 -7 q 571 -62 613 -37 q 565 -100 565 -74 q 594 -177 565 -153 q 683 -201 624 -201 q 753 -192 714 -201 l 769 -275 q 604 -315 693 -315 z "},"F":{"ha":844,"x_min":35,"x_max":803,"o":"m 38 142 l 139 169 l 139 701 q 133 749 139 738 q 104 771 128 761 l 35 811 l 39 936 l 793 936 q 803 651 803 790 l 700 644 l 601 767 l 392 772 l 392 525 l 688 551 l 688 338 l 392 369 l 392 225 q 397 182 392 192 q 422 163 401 172 l 506 113 l 501 0 l 44 0 l 38 142 z "},"G":{"ha":939,"x_min":35,"x_max":881,"o":"m 506 -17 q 153 107 271 -17 q 35 474 35 231 q 92 730 35 622 q 257 894 149 838 q 514 951 365 951 q 865 879 694 951 q 826 613 851 746 l 721 606 l 633 733 q 461 758 564 758 q 344 749 413 758 q 306 638 319 707 q 292 488 292 568 q 356 249 292 328 q 554 169 419 171 q 639 175 588 169 l 639 276 q 635 313 639 304 q 611 332 631 321 l 558 358 l 564 453 l 596 458 q 704 476 611 461 q 860 493 797 490 q 881 433 874 467 l 881 69 q 701 6 800 29 q 506 -17 603 -17 z "},"Ğ":{"ha":939,"x_min":35,"x_max":881,"o":"m 506 -17 q 153 107 271 -17 q 35 474 35 231 q 92 730 35 622 q 257 894 149 838 q 514 951 365 951 q 865 879 694 951 q 826 613 851 746 l 721 606 l 633 733 q 461 758 564 758 q 344 749 413 758 q 306 638 319 707 q 292 488 292 568 q 356 249 292 328 q 554 169 419 171 q 639 175 588 169 l 639 276 q 635 313 639 304 q 611 332 631 321 l 558 358 l 564 453 l 596 458 q 704 476 611 461 q 860 493 797 490 q 881 433 874 467 l 881 69 q 701 6 800 29 q 506 -17 603 -17 m 478 1021 q 330 1075 381 1021 q 279 1229 279 1129 q 281 1261 279 1250 l 358 1261 q 415 1190 376 1214 q 517 1165 453 1165 q 616 1190 582 1165 q 661 1261 650 1215 l 740 1261 q 660 1085 732 1149 q 478 1021 589 1021 z "},"Ģ":{"ha":939,"x_min":35,"x_max":881,"o":"m 506 -17 q 153 107 271 -17 q 35 474 35 231 q 92 730 35 622 q 257 894 149 838 q 514 951 365 951 q 865 879 694 951 q 826 613 851 746 l 721 606 l 633 733 q 461 758 564 758 q 344 749 413 758 q 306 638 319 707 q 292 488 292 568 q 356 249 292 328 q 554 169 419 171 q 639 175 588 169 l 639 276 q 635 313 639 304 q 611 332 631 321 l 558 358 l 564 453 l 596 458 q 704 476 611 461 q 860 493 797 490 q 881 433 874 467 l 881 69 q 701 6 800 29 q 506 -17 603 -17 m 403 -82 l 651 -82 l 651 -139 l 390 -322 l 271 -322 l 403 -82 z "},"Ġ":{"ha":939,"x_min":35,"x_max":881,"o":"m 506 -17 q 153 107 271 -17 q 35 474 35 231 q 92 730 35 622 q 257 894 149 838 q 514 951 365 951 q 865 879 694 951 q 826 613 851 746 l 721 606 l 633 733 q 461 758 564 758 q 344 749 413 758 q 306 638 319 707 q 292 488 292 568 q 356 249 292 328 q 554 169 419 171 q 639 175 588 169 l 639 276 q 635 313 639 304 q 611 332 631 321 l 558 358 l 564 453 l 596 458 q 704 476 611 461 q 860 493 797 490 q 881 433 874 467 l 881 69 q 701 6 800 29 q 506 -17 603 -17 m 378 1217 l 574 1269 l 621 1096 l 425 1043 l 378 1217 z "},"H":{"ha":1063,"x_min":35,"x_max":1031,"o":"m 38 146 l 125 169 l 125 701 q 120 749 125 738 q 93 771 115 761 l 35 804 l 39 936 l 472 936 l 479 794 l 376 767 l 376 564 l 693 572 l 693 701 q 688 749 693 738 q 658 771 682 761 l 590 810 l 597 936 l 1024 936 l 1029 790 l 944 767 l 944 225 q 949 182 944 192 q 974 163 954 172 l 1031 129 l 1025 0 l 603 0 l 596 143 l 693 169 l 693 376 l 376 390 l 376 225 q 381 182 376 192 q 407 163 386 172 l 481 119 l 475 0 l 44 0 l 38 146 z "},"Ħ":{"ha":1063,"x_min":35,"x_max":1031,"o":"m 38 139 l 125 163 l 125 708 q 120 754 125 743 q 93 776 115 765 l 35 811 l 39 936 l 472 936 l 479 801 l 376 774 l 376 708 l 693 708 q 688 755 693 744 q 658 776 682 765 l 590 817 l 597 936 l 1024 936 l 1029 797 l 944 774 l 944 218 q 949 176 944 185 q 974 156 954 167 l 1031 122 l 1025 0 l 603 0 l 596 136 l 693 163 l 693 383 l 376 397 l 376 218 q 381 176 376 185 q 407 156 386 167 l 481 113 l 475 0 l 44 0 l 38 139 m 693 553 l 693 621 l 376 621 l 376 544 l 693 553 z "},"I":{"ha":539,"x_min":39,"x_max":499,"o":"m 44 142 l 146 169 l 146 701 q 140 749 146 738 q 111 771 135 761 l 39 813 l 46 936 l 492 936 l 497 794 l 397 767 l 397 225 q 402 182 397 192 q 428 163 407 172 l 499 119 l 494 0 l 51 0 l 44 142 z "},"Í":{"ha":539,"x_min":39,"x_max":558,"o":"m 44 142 l 146 169 l 146 701 q 140 749 146 738 q 111 771 135 761 l 39 813 l 46 936 l 492 936 l 497 794 l 397 767 l 397 225 q 402 182 397 192 q 428 163 407 172 l 499 119 l 494 0 l 51 0 l 44 142 m 308 1261 l 558 1261 l 558 1204 l 297 1021 l 176 1021 l 308 1261 z "},"Î":{"ha":539,"x_min":-6,"x_max":549,"o":"m 44 142 l 146 169 l 146 701 q 140 749 146 738 q 111 771 135 761 l 39 813 l 46 936 l 492 936 l 497 794 l 397 767 l 397 225 q 402 182 397 192 q 428 163 407 172 l 499 119 l 494 0 l 51 0 l 44 142 m 168 1261 l 375 1261 l 549 1021 l 433 1021 l 271 1122 l 110 1021 l -6 1021 l 168 1261 z "},"Ï":{"ha":539,"x_min":-15,"x_max":556,"o":"m 44 142 l 146 169 l 146 701 q 140 749 146 738 q 111 771 135 761 l 39 813 l 46 936 l 492 936 l 497 794 l 397 767 l 397 225 q 402 182 397 192 q 428 163 407 172 l 499 119 l 494 0 l 51 0 l 44 142 m -15 1225 l 181 1278 l 228 1104 l 32 1051 l -15 1225 m 314 1225 l 508 1278 l 556 1104 l 361 1051 l 314 1225 z "},"İ":{"ha":539,"x_min":39,"x_max":499,"o":"m 44 142 l 146 169 l 146 701 q 140 749 146 738 q 111 771 135 761 l 39 813 l 46 936 l 492 936 l 497 794 l 397 767 l 397 225 q 402 182 397 192 q 428 163 407 172 l 499 119 l 494 0 l 51 0 l 44 142 m 139 1217 l 335 1269 l 382 1096 l 186 1043 l 139 1217 z "},"Ì":{"ha":539,"x_min":-14,"x_max":499,"o":"m 44 142 l 146 169 l 146 701 q 140 749 146 738 q 111 771 135 761 l 39 813 l 46 936 l 492 936 l 497 794 l 397 767 l 397 225 q 402 182 397 192 q 428 163 407 172 l 499 119 l 494 0 l 51 0 l 44 142 m -14 1204 l -14 1261 l 236 1261 l 368 1021 l 249 1021 l -14 1204 z "},"Ī":{"ha":539,"x_min":39,"x_max":499,"o":"m 44 142 l 146 169 l 146 701 q 140 749 146 738 q 111 771 135 761 l 39 813 l 46 936 l 492 936 l 497 794 l 397 767 l 397 225 q 402 182 397 192 q 428 163 407 172 l 499 119 l 494 0 l 51 0 l 44 142 m 57 1213 l 482 1196 l 482 1071 l 57 1058 l 57 1213 z "},"Į":{"ha":539,"x_min":39,"x_max":499,"o":"m 331 -315 q 188 -278 247 -315 q 128 -165 128 -242 q 217 0 128 -74 l 51 0 l 44 142 l 146 169 l 146 701 q 140 749 146 738 q 111 771 135 761 l 39 813 l 46 936 l 492 936 l 497 794 l 397 767 l 397 225 q 402 182 397 192 q 428 163 407 172 l 499 119 l 496 7 q 389 -18 443 -1 q 297 -54 335 -35 q 292 -99 292 -71 q 321 -177 292 -153 q 410 -201 350 -201 q 479 -192 440 -201 l 496 -275 q 331 -315 419 -315 z "},"J":{"ha":525,"x_min":28,"x_max":493,"o":"m 240 -168 q 121 -96 161 -125 q 28 -10 81 -67 l 140 126 l 140 701 q 135 749 140 738 q 106 771 129 761 l 35 813 l 40 936 l 486 936 l 493 794 l 392 767 l 392 322 q 368 81 392 175 q 283 -107 344 -12 l 240 -168 z "},"K":{"ha":976,"x_min":35,"x_max":957,"o":"m 38 146 l 125 169 l 125 701 q 120 749 125 738 q 93 771 115 761 l 35 804 l 39 936 l 472 936 l 479 794 l 376 767 l 376 506 l 619 768 q 625 783 625 774 q 621 796 625 790 l 581 844 l 596 936 l 918 936 l 935 842 l 617 501 l 957 63 l 957 0 l 692 0 l 376 418 l 376 225 q 381 183 376 194 q 407 161 386 172 l 481 119 l 475 0 l 44 0 l 38 146 z "},"Ķ":{"ha":976,"x_min":35,"x_max":957,"o":"m 38 146 l 125 169 l 125 701 q 120 749 125 738 q 93 771 115 761 l 35 804 l 39 936 l 472 936 l 479 794 l 376 767 l 376 506 l 619 768 q 625 783 625 774 q 621 796 625 790 l 581 844 l 596 936 l 918 936 l 935 842 l 617 501 l 957 63 l 957 0 l 692 0 l 376 418 l 376 225 q 381 183 376 194 q 407 161 386 172 l 481 119 l 475 0 l 44 0 l 38 146 m 424 -75 l 672 -75 l 672 -132 l 411 -315 l 292 -315 l 424 -75 z "},"L":{"ha":811,"x_min":35,"x_max":776,"o":"m 38 146 l 125 169 l 125 701 q 120 749 125 738 q 93 771 115 761 l 35 804 l 39 936 l 472 936 l 479 794 l 376 767 l 376 167 l 551 171 l 669 306 l 776 300 q 757 0 774 183 l 44 0 l 38 146 z "},"Ĺ":{"ha":811,"x_min":35,"x_max":776,"o":"m 38 146 l 125 169 l 125 701 q 120 749 125 738 q 93 771 115 761 l 35 804 l 39 936 l 472 936 l 479 794 l 376 767 l 376 167 l 551 171 l 669 306 l 776 300 q 757 0 774 183 l 44 0 l 38 146 m 288 1261 l 538 1261 l 538 1204 l 276 1021 l 156 1021 l 288 1261 z "},"Ľ":{"ha":811,"x_min":35,"x_max":892,"o":"m 38 146 l 125 169 l 125 701 q 120 749 125 738 q 93 771 115 761 l 35 804 l 39 936 l 472 936 l 479 794 l 376 767 l 376 167 l 551 171 l 669 306 l 776 300 q 757 0 774 183 l 44 0 l 38 146 m 649 936 l 892 936 l 892 879 l 663 692 l 554 692 l 649 936 z "},"Ļ":{"ha":811,"x_min":35,"x_max":776,"o":"m 38 146 l 125 169 l 125 701 q 120 749 125 738 q 93 771 115 761 l 35 804 l 39 936 l 472 936 l 479 794 l 376 767 l 376 167 l 551 171 l 669 306 l 776 300 q 757 0 774 183 l 44 0 l 38 146 m 304 -75 l 553 -75 l 553 -132 l 292 -315 l 172 -315 l 304 -75 z "},"Ł":{"ha":811,"x_min":33,"x_max":776,"o":"m 38 146 l 125 169 l 125 289 l 38 231 l 33 354 l 125 417 l 125 701 q 120 749 125 738 q 93 771 115 761 l 35 804 l 39 936 l 472 936 l 479 794 l 376 767 l 376 583 l 582 719 l 589 597 l 376 456 l 376 167 l 551 171 l 669 306 l 776 300 q 757 0 774 183 l 44 0 l 38 146 z "},"M":{"ha":1322,"x_min":18,"x_max":1306,"o":"m 317 614 l 286 203 l 286 197 q 306 163 286 171 l 392 126 l 378 0 l 32 0 l 18 124 l 82 163 l 161 699 q 163 722 163 708 q 155 747 163 739 q 126 768 147 756 l 63 804 l 71 936 l 469 936 l 668 289 l 865 936 l 1238 936 l 1243 790 l 1154 768 l 1229 224 q 1241 181 1233 196 q 1276 131 1249 165 l 1306 93 l 1297 0 l 883 0 l 871 128 l 985 157 l 938 622 l 760 -6 l 522 -26 l 317 614 z "},"N":{"ha":1039,"x_min":39,"x_max":1006,"o":"m 285 592 l 308 228 q 315 186 310 196 q 340 165 321 176 l 413 117 l 407 0 l 46 0 l 39 151 l 114 169 l 119 717 q 115 753 119 743 q 96 775 111 763 l 44 814 l 54 936 l 342 936 l 761 399 l 742 708 q 735 751 740 742 q 710 772 729 761 l 638 819 l 642 936 l 1000 936 l 1006 794 l 935 764 l 929 13 l 769 -40 l 285 592 z "},"Ń":{"ha":1039,"x_min":39,"x_max":1006,"o":"m 285 592 l 308 228 q 315 186 310 196 q 340 165 321 176 l 413 117 l 407 0 l 46 0 l 39 151 l 114 169 l 119 717 q 115 753 119 743 q 96 775 111 763 l 44 814 l 54 936 l 342 936 l 761 399 l 742 708 q 735 751 740 742 q 710 772 729 761 l 638 819 l 642 936 l 1000 936 l 1006 794 l 935 764 l 929 13 l 769 -40 l 285 592 m 560 1261 l 810 1261 l 810 1204 l 549 1021 l 428 1021 l 560 1261 z "},"Ň":{"ha":1039,"x_min":39,"x_max":1006,"o":"m 285 592 l 308 228 q 315 186 310 196 q 340 165 321 176 l 413 117 l 407 0 l 46 0 l 39 151 l 114 169 l 119 717 q 115 753 119 743 q 96 775 111 763 l 44 814 l 54 936 l 342 936 l 761 399 l 742 708 q 735 751 740 742 q 710 772 729 761 l 638 819 l 642 936 l 1000 936 l 1006 794 l 935 764 l 929 13 l 769 -40 l 285 592 m 246 1261 l 361 1261 l 524 1160 l 685 1261 l 800 1261 l 626 1021 l 419 1021 l 246 1261 z "},"Ņ":{"ha":1039,"x_min":39,"x_max":1006,"o":"m 285 592 l 308 228 q 315 186 310 196 q 340 165 321 176 l 413 117 l 407 0 l 46 0 l 39 151 l 114 169 l 119 717 q 115 753 119 743 q 96 775 111 763 l 44 814 l 54 936 l 342 936 l 761 399 l 742 708 q 735 751 740 742 q 710 772 729 761 l 638 819 l 642 936 l 1000 936 l 1006 794 l 935 764 l 929 13 l 769 -40 l 285 592 m 419 -75 l 668 -75 l 668 -132 l 407 -315 l 288 -315 l 419 -75 z "},"Ŋ":{"ha":1039,"x_min":39,"x_max":1006,"o":"m 806 -300 q 707 -234 732 -254 q 638 -161 682 -214 l 769 -40 l 285 592 l 308 228 q 315 186 310 196 q 340 165 321 176 l 413 117 l 407 0 l 46 0 l 39 151 l 114 169 l 119 717 q 115 753 119 743 q 96 775 111 763 l 44 814 l 54 936 l 342 936 l 761 399 l 742 708 q 735 751 740 742 q 710 772 729 761 l 638 819 l 642 936 l 1000 936 l 1006 794 l 935 764 l 931 190 q 910 -51 931 43 q 840 -239 890 -144 l 806 -300 z "},"Ñ":{"ha":1039,"x_min":39,"x_max":1006,"o":"m 285 592 l 308 228 q 315 186 310 196 q 340 165 321 176 l 413 117 l 407 0 l 46 0 l 39 151 l 114 169 l 119 717 q 115 753 119 743 q 96 775 111 763 l 44 814 l 54 936 l 342 936 l 761 399 l 742 708 q 735 751 740 742 q 710 772 729 761 l 638 819 l 642 936 l 1000 936 l 1006 794 l 935 764 l 929 13 l 769 -40 l 285 592 m 625 1040 q 496 1071 582 1040 q 440 1088 468 1081 q 394 1096 413 1096 q 376 1081 386 1092 q 353 1053 365 1071 l 276 1053 q 335 1197 299 1151 q 429 1243 372 1243 q 487 1235 457 1243 q 558 1213 517 1228 q 600 1199 565 1210 q 661 1188 635 1188 q 678 1203 668 1192 q 701 1231 688 1214 l 778 1231 q 719 1086 756 1132 q 625 1040 682 1040 z "},"O":{"ha":1003,"x_min":35,"x_max":969,"o":"m 492 -19 q 148 97 261 -19 q 35 451 35 214 q 92 719 35 606 q 254 893 149 832 q 506 954 360 954 q 969 481 969 954 q 913 213 969 325 q 748 40 856 100 q 492 -19 640 -19 m 521 172 q 672 213 600 172 q 696 320 688 256 q 704 447 704 385 q 647 681 704 601 q 478 760 589 760 q 325 731 399 760 q 301 644 310 704 q 293 506 293 583 q 351 258 293 344 q 521 172 410 172 z "},"Ó":{"ha":1003,"x_min":35,"x_max":969,"o":"m 492 -19 q 148 97 261 -19 q 35 451 35 214 q 92 719 35 606 q 254 893 149 832 q 506 954 360 954 q 969 481 969 954 q 913 213 969 325 q 748 40 856 100 q 492 -19 640 -19 m 521 172 q 672 213 600 172 q 696 320 688 256 q 704 447 704 385 q 647 681 704 601 q 478 760 589 760 q 325 731 399 760 q 301 644 310 704 q 293 506 293 583 q 351 258 293 344 q 521 172 410 172 m 544 1261 l 794 1261 l 794 1204 l 533 1021 l 413 1021 l 544 1261 z "},"Ô":{"ha":1003,"x_min":35,"x_max":969,"o":"m 492 -19 q 148 97 261 -19 q 35 451 35 214 q 92 719 35 606 q 254 893 149 832 q 506 954 360 954 q 969 481 969 954 q 913 213 969 325 q 748 40 856 100 q 492 -19 640 -19 m 521 172 q 672 213 600 172 q 696 320 688 256 q 704 447 704 385 q 647 681 704 601 q 478 760 589 760 q 325 731 399 760 q 301 644 310 704 q 293 506 293 583 q 351 258 293 344 q 521 172 410 172 m 404 1261 l 611 1261 l 785 1021 l 669 1021 l 507 1122 l 346 1021 l 231 1021 l 404 1261 z "},"Ö":{"ha":1003,"x_min":35,"x_max":969,"o":"m 492 -19 q 148 97 261 -19 q 35 451 35 214 q 92 719 35 606 q 254 893 149 832 q 506 954 360 954 q 969 481 969 954 q 913 213 969 325 q 748 40 856 100 q 492 -19 640 -19 m 521 172 q 672 213 600 172 q 696 320 688 256 q 704 447 704 385 q 647 681 704 601 q 478 760 589 760 q 325 731 399 760 q 301 644 310 704 q 293 506 293 583 q 351 258 293 344 q 521 172 410 172 m 221 1225 l 417 1278 l 464 1104 l 268 1051 l 221 1225 m 550 1225 l 744 1278 l 792 1104 l 597 1051 l 550 1225 z "},"Ò":{"ha":1003,"x_min":35,"x_max":969,"o":"m 492 -19 q 148 97 261 -19 q 35 451 35 214 q 92 719 35 606 q 254 893 149 832 q 506 954 360 954 q 969 481 969 954 q 913 213 969 325 q 748 40 856 100 q 492 -19 640 -19 m 521 172 q 672 213 600 172 q 696 320 688 256 q 704 447 704 385 q 647 681 704 601 q 478 760 589 760 q 325 731 399 760 q 301 644 310 704 q 293 506 293 583 q 351 258 293 344 q 521 172 410 172 m 222 1204 l 222 1261 l 472 1261 l 604 1021 l 485 1021 l 222 1204 z "},"Ő":{"ha":1003,"x_min":35,"x_max":969,"o":"m 492 -19 q 148 97 261 -19 q 35 451 35 214 q 92 719 35 606 q 254 893 149 832 q 506 954 360 954 q 969 481 969 954 q 913 213 969 325 q 748 40 856 100 q 492 -19 640 -19 m 521 172 q 672 213 600 172 q 696 320 688 256 q 704 447 704 385 q 647 681 704 601 q 478 760 589 760 q 325 731 399 760 q 301 644 310 704 q 293 506 293 583 q 351 258 293 344 q 521 172 410 172 m 376 1261 l 600 1261 l 600 1204 l 364 1021 l 244 1021 l 376 1261 m 678 1261 l 901 1261 l 901 1204 l 667 1021 l 546 1021 l 678 1261 z "},"Ō":{"ha":1003,"x_min":35,"x_max":969,"o":"m 492 -19 q 148 97 261 -19 q 35 451 35 214 q 92 719 35 606 q 254 893 149 832 q 506 954 360 954 q 969 481 969 954 q 913 213 969 325 q 748 40 856 100 q 492 -19 640 -19 m 521 172 q 672 213 600 172 q 696 320 688 256 q 704 447 704 385 q 647 681 704 601 q 478 760 589 760 q 325 731 399 760 q 301 644 310 704 q 293 506 293 583 q 351 258 293 344 q 521 172 410 172 m 293 1213 l 718 1196 l 718 1071 l 293 1058 l 293 1213 z "},"Ø":{"ha":1003,"x_min":35,"x_max":969,"o":"m 849 842 q 969 481 969 724 q 913 213 969 325 q 748 40 856 100 q 492 -19 640 -19 q 257 22 353 -19 l 210 -43 l 53 -43 l 151 93 q 35 451 35 213 q 92 719 35 606 q 254 893 149 832 q 506 954 360 954 q 742 911 647 954 l 793 982 l 950 982 l 849 842 m 293 506 q 318 325 293 400 l 606 722 q 478 760 554 760 q 325 731 399 760 q 301 644 310 704 q 293 506 293 583 m 672 213 q 696 320 688 256 q 704 447 704 385 q 682 611 704 544 l 394 213 q 521 172 446 172 q 672 213 600 172 z "},"Õ":{"ha":1003,"x_min":35,"x_max":969,"o":"m 492 -19 q 148 97 261 -19 q 35 451 35 214 q 92 719 35 606 q 254 893 149 832 q 506 954 360 954 q 969 481 969 954 q 913 213 969 325 q 748 40 856 100 q 492 -19 640 -19 m 521 172 q 672 213 600 172 q 696 320 688 256 q 704 447 704 385 q 647 681 704 601 q 478 760 589 760 q 325 731 399 760 q 301 644 310 704 q 293 506 293 583 q 351 258 293 344 q 521 172 410 172 m 610 1040 q 481 1071 567 1040 q 425 1088 453 1081 q 379 1096 397 1096 q 360 1081 371 1092 q 338 1053 350 1071 l 261 1053 q 320 1197 283 1151 q 414 1243 357 1243 q 472 1235 442 1243 q 543 1213 501 1228 q 585 1199 550 1210 q 646 1188 619 1188 q 663 1203 653 1192 q 686 1231 672 1214 l 763 1231 q 703 1086 740 1132 q 610 1040 667 1040 z "},"Œ":{"ha":1404,"x_min":35,"x_max":1369,"o":"m 492 -19 q 148 97 261 -19 q 35 451 35 214 q 92 719 35 606 q 254 893 149 832 q 506 954 360 954 q 665 936 601 954 l 1332 936 q 1340 651 1340 804 l 1238 644 l 1140 767 l 944 772 l 944 546 l 1225 571 l 1225 357 l 944 389 l 944 165 l 1161 169 l 1268 292 l 1369 285 q 1349 0 1365 163 l 643 0 q 492 -19 569 -19 m 521 172 q 672 213 600 172 q 695 320 686 256 q 704 447 704 385 q 647 681 704 601 q 478 760 589 760 q 325 731 396 760 q 301 644 310 704 q 293 506 293 583 q 351 258 293 344 q 521 172 410 172 z "},"P":{"ha":899,"x_min":46,"x_max":874,"o":"m 51 142 l 153 169 l 153 699 q 147 747 153 735 q 118 768 142 758 l 46 808 l 54 921 q 254 945 160 938 q 457 953 349 953 q 698 921 607 953 q 831 821 789 889 q 874 640 874 753 q 769 411 874 494 q 482 328 664 328 l 406 331 l 406 225 q 410 182 406 192 q 435 163 415 172 l 519 113 l 514 0 l 58 0 l 51 142 m 494 482 q 604 497 569 482 q 619 640 619 565 q 588 757 619 722 q 488 792 557 792 q 406 786 464 792 l 406 490 q 494 482 443 482 z "},"Þ":{"ha":867,"x_min":39,"x_max":853,"o":"m 44 128 l 146 157 l 146 708 q 140 759 146 746 q 111 783 135 772 l 39 826 l 46 936 l 492 936 l 497 808 l 397 779 l 397 725 l 450 726 q 853 482 853 736 q 751 278 853 350 q 476 213 650 207 l 399 215 l 399 211 q 403 169 399 179 q 429 149 408 160 l 513 100 l 507 0 l 51 0 l 44 128 m 482 344 q 583 358 554 344 q 599 471 599 411 q 570 572 599 546 q 472 597 542 597 q 399 594 424 597 l 399 351 q 482 344 433 344 z "},"Q":{"ha":1028,"x_min":35,"x_max":1015,"o":"m 585 -12 q 492 -19 536 -19 q 148 97 261 -19 q 35 451 35 214 q 92 719 35 606 q 254 893 149 832 q 506 954 360 954 q 969 481 969 954 q 861 132 969 261 l 1015 139 l 1015 -50 l 925 -50 l 585 -12 m 521 172 q 598 182 563 172 q 672 213 633 192 q 696 320 688 256 q 704 447 704 385 q 647 681 704 601 q 478 760 589 760 q 325 731 400 760 q 302 644 310 704 q 294 506 294 585 q 352 258 294 344 q 521 172 410 172 z "},"R":{"ha":936,"x_min":46,"x_max":925,"o":"m 51 142 l 153 169 l 153 699 q 147 747 153 735 q 118 768 142 758 l 46 808 l 54 922 q 456 953 263 953 q 697 923 606 953 q 831 830 789 893 q 874 663 874 767 q 829 512 874 576 q 703 413 785 447 l 925 54 l 924 0 l 671 0 l 465 371 l 404 372 l 404 217 q 409 174 404 183 q 433 154 414 165 l 493 119 l 488 0 l 58 0 l 51 142 m 493 528 q 601 542 567 528 q 615 661 615 592 q 585 760 615 731 q 486 789 556 789 q 407 785 447 789 l 407 536 q 493 528 443 528 z "},"Ŕ":{"ha":936,"x_min":46,"x_max":925,"o":"m 51 142 l 153 169 l 153 699 q 147 747 153 735 q 118 768 142 758 l 46 808 l 54 922 q 456 953 263 953 q 697 923 606 953 q 831 830 789 893 q 874 663 874 767 q 829 512 874 576 q 703 413 785 447 l 925 54 l 924 0 l 671 0 l 465 371 l 404 372 l 404 217 q 409 174 404 183 q 433 154 414 165 l 493 119 l 488 0 l 58 0 l 51 142 m 493 528 q 601 542 567 528 q 615 661 615 592 q 585 760 615 731 q 486 789 556 789 q 407 785 447 789 l 407 536 q 493 528 443 528 m 514 1261 l 764 1261 l 764 1204 l 503 1021 l 382 1021 l 514 1261 z "},"Ř":{"ha":936,"x_min":46,"x_max":925,"o":"m 51 142 l 153 169 l 153 699 q 147 747 153 735 q 118 768 142 758 l 46 808 l 54 922 q 456 953 263 953 q 697 923 606 953 q 831 830 789 893 q 874 663 874 767 q 829 512 874 576 q 703 413 785 447 l 925 54 l 924 0 l 671 0 l 465 371 l 404 372 l 404 217 q 409 174 404 183 q 433 154 414 165 l 493 119 l 488 0 l 58 0 l 51 142 m 493 528 q 601 542 567 528 q 615 661 615 592 q 585 760 615 731 q 486 789 556 789 q 407 785 447 789 l 407 536 q 493 528 443 528 m 200 1261 l 315 1261 l 478 1160 l 639 1261 l 754 1261 l 581 1021 l 374 1021 l 200 1261 z "},"Ŗ":{"ha":936,"x_min":46,"x_max":925,"o":"m 51 142 l 153 169 l 153 699 q 147 747 153 735 q 118 768 142 758 l 46 808 l 54 922 q 456 953 263 953 q 697 923 606 953 q 831 830 789 893 q 874 663 874 767 q 829 512 874 576 q 703 413 785 447 l 925 54 l 924 0 l 671 0 l 465 371 l 404 372 l 404 217 q 409 174 404 183 q 433 154 414 165 l 493 119 l 488 0 l 58 0 l 51 142 m 493 528 q 601 542 567 528 q 615 661 615 592 q 585 760 615 731 q 486 789 556 789 q 407 785 447 789 l 407 536 q 493 528 443 528 m 440 -75 l 689 -75 l 689 -132 l 428 -315 l 308 -315 l 440 -75 z "},"S":{"ha":793,"x_min":39,"x_max":761,"o":"m 349 -17 q 39 31 196 -17 q 61 286 46 168 l 168 307 l 238 189 q 385 160 321 160 q 479 172 407 160 q 482 210 482 200 q 471 260 482 243 q 422 299 460 278 q 288 364 385 321 q 115 490 168 422 q 63 649 63 557 q 160 872 63 792 q 426 953 257 953 q 590 937 508 953 q 732 893 671 921 q 719 700 729 815 l 715 640 l 614 625 l 508 760 q 383 775 458 775 q 313 767 336 775 q 306 724 306 739 q 321 670 306 693 q 375 623 336 647 q 490 563 414 599 q 658 469 601 510 q 738 385 715 429 q 761 279 761 342 q 651 63 761 142 q 349 -17 542 -17 z "},"Ś":{"ha":793,"x_min":39,"x_max":761,"o":"m 349 -17 q 39 31 196 -17 q 61 286 46 168 l 168 307 l 238 189 q 385 160 321 160 q 479 172 407 160 q 482 210 482 200 q 471 260 482 243 q 422 299 460 278 q 288 364 385 321 q 115 490 168 422 q 63 649 63 557 q 160 872 63 792 q 426 953 257 953 q 590 937 508 953 q 732 893 671 921 q 719 700 729 815 l 715 640 l 614 625 l 508 760 q 383 775 458 775 q 313 767 336 775 q 306 724 306 739 q 321 670 306 693 q 375 623 336 647 q 490 563 414 599 q 658 469 601 510 q 738 385 715 429 q 761 279 761 342 q 651 63 761 142 q 349 -17 542 -17 m 463 1261 l 713 1261 l 713 1204 l 451 1021 l 331 1021 l 463 1261 z "},"Š":{"ha":793,"x_min":39,"x_max":761,"o":"m 349 -17 q 39 31 196 -17 q 61 286 46 168 l 168 307 l 238 189 q 385 160 321 160 q 479 172 407 160 q 482 210 482 200 q 471 260 482 243 q 422 299 460 278 q 288 364 385 321 q 115 490 168 422 q 63 649 63 557 q 160 872 63 792 q 426 953 257 953 q 590 937 508 953 q 732 893 671 921 q 719 700 729 815 l 715 640 l 614 625 l 508 760 q 383 775 458 775 q 313 767 336 775 q 306 724 306 739 q 321 670 306 693 q 375 623 336 647 q 490 563 414 599 q 658 469 601 510 q 738 385 715 429 q 761 279 761 342 q 651 63 761 142 q 349 -17 542 -17 m 149 1261 l 264 1261 l 426 1160 l 588 1261 l 703 1261 l 529 1021 l 322 1021 l 149 1261 z "},"Ş":{"ha":793,"x_min":39,"x_max":761,"o":"m 761 279 q 670 77 761 154 q 417 -14 579 0 l 393 -49 q 471 -68 426 -56 q 533 -104 513 -83 q 554 -162 554 -125 q 476 -276 554 -236 q 261 -315 397 -315 l 247 -264 q 339 -256 297 -264 q 400 -233 381 -247 q 403 -207 403 -217 q 382 -174 403 -183 q 293 -156 361 -164 l 293 -128 l 325 -17 q 39 31 186 -12 q 61 286 46 168 l 168 307 l 238 189 q 385 160 321 160 q 479 172 407 160 q 482 210 482 200 q 471 260 482 243 q 422 299 460 278 q 288 364 385 321 q 115 490 168 422 q 63 649 63 557 q 160 872 63 792 q 426 953 257 953 q 590 937 508 953 q 732 893 671 921 q 719 700 729 815 l 715 640 l 614 625 l 508 760 q 383 775 458 775 q 313 767 336 775 q 306 724 306 739 q 321 670 306 693 q 375 623 336 647 q 490 563 414 599 q 658 469 601 510 q 738 385 715 429 q 761 279 761 342 z "},"Ș":{"ha":793,"x_min":39,"x_max":761,"o":"m 349 -17 q 39 31 196 -17 q 61 286 46 168 l 168 307 l 238 189 q 385 160 321 160 q 479 172 407 160 q 482 210 482 200 q 471 260 482 243 q 422 299 460 278 q 288 364 385 321 q 115 490 168 422 q 63 649 63 557 q 160 872 63 792 q 426 953 257 953 q 590 937 508 953 q 732 893 671 921 q 719 700 729 815 l 715 640 l 614 625 l 508 760 q 383 775 458 775 q 313 767 336 775 q 306 724 306 739 q 321 670 306 693 q 375 623 336 647 q 490 563 414 599 q 658 469 601 510 q 738 385 715 429 q 761 279 761 342 q 651 63 761 142 q 349 -17 542 -17 m 286 -75 l 535 -75 l 535 -132 l 274 -315 l 154 -315 l 286 -75 z "},"T":{"ha":971,"x_min":39,"x_max":931,"o":"m 239 136 l 360 169 l 360 771 l 243 761 l 140 638 l 39 646 q 50 936 39 761 l 919 936 q 931 646 931 761 l 831 638 l 726 761 l 613 771 l 613 225 q 617 182 613 192 q 640 163 621 172 l 726 111 l 721 0 l 246 0 l 239 136 z "},"Ŧ":{"ha":971,"x_min":39,"x_max":931,"o":"m 613 771 l 613 535 l 729 540 l 729 389 l 613 393 l 613 225 q 617 182 613 192 q 640 163 621 172 l 726 111 l 721 0 l 246 0 l 239 136 l 360 169 l 360 403 l 221 408 l 221 518 l 360 524 l 360 771 l 243 761 l 140 638 l 39 646 q 50 936 39 761 l 919 936 q 931 646 931 761 l 831 638 l 726 761 l 613 771 z "},"Ť":{"ha":971,"x_min":39,"x_max":931,"o":"m 239 136 l 360 169 l 360 771 l 243 761 l 140 638 l 39 646 q 50 936 39 761 l 919 936 q 931 646 931 761 l 831 638 l 726 761 l 613 771 l 613 225 q 617 182 613 192 q 640 163 621 172 l 726 111 l 721 0 l 246 0 l 239 136 m 208 1261 l 324 1261 l 486 1160 l 647 1261 l 763 1261 l 589 1021 l 382 1021 l 208 1261 z "},"Ţ":{"ha":971,"x_min":39,"x_max":931,"o":"m 919 936 q 931 646 931 761 l 831 638 l 726 761 l 613 771 l 613 225 q 617 182 613 192 q 640 163 621 172 l 726 111 l 721 0 l 515 0 l 482 -49 q 560 -68 515 -56 q 622 -104 601 -83 q 643 -162 643 -125 q 565 -276 643 -236 q 350 -315 486 -315 l 336 -264 q 428 -256 386 -264 q 489 -233 469 -247 q 492 -207 492 -217 q 471 -174 492 -183 q 382 -156 450 -164 l 382 -128 l 419 0 l 246 0 l 239 136 l 360 169 l 360 771 l 243 761 l 140 638 l 39 646 q 50 936 39 761 l 919 936 z "},"Ț":{"ha":971,"x_min":39,"x_max":931,"o":"m 239 136 l 360 169 l 360 771 l 243 761 l 140 638 l 39 646 q 50 936 39 761 l 919 936 q 931 646 931 761 l 831 638 l 726 761 l 613 771 l 613 225 q 617 182 613 192 q 640 163 621 172 l 726 111 l 721 0 l 246 0 l 239 136 m 375 -75 l 624 -75 l 624 -132 l 363 -315 l 243 -315 l 375 -75 z "},"U":{"ha":1046,"x_min":35,"x_max":1015,"o":"m 506 -18 q 206 90 301 -18 q 111 428 111 197 l 111 701 q 106 749 111 738 q 79 771 101 761 l 35 797 l 39 936 l 472 936 l 479 799 l 364 767 l 364 482 q 406 254 364 338 q 549 171 447 171 q 613 181 582 171 q 667 207 644 190 q 686 292 681 239 q 692 436 692 346 l 692 701 q 686 749 692 738 q 657 771 681 761 l 589 810 l 596 936 l 1008 936 l 1015 786 l 943 767 l 943 453 q 828 106 943 229 q 506 -18 714 -18 z "},"Ú":{"ha":1046,"x_min":35,"x_max":1015,"o":"m 506 -18 q 206 90 301 -18 q 111 428 111 197 l 111 701 q 106 749 111 738 q 79 771 101 761 l 35 797 l 39 936 l 472 936 l 479 799 l 364 767 l 364 482 q 406 254 364 338 q 549 171 447 171 q 613 181 582 171 q 667 207 644 190 q 686 292 681 239 q 692 436 692 346 l 692 701 q 686 749 692 738 q 657 771 681 761 l 589 810 l 596 936 l 1008 936 l 1015 786 l 943 767 l 943 453 q 828 106 943 229 q 506 -18 714 -18 m 575 1261 l 825 1261 l 825 1204 l 564 1021 l 443 1021 l 575 1261 z "},"Û":{"ha":1046,"x_min":35,"x_max":1015,"o":"m 506 -18 q 206 90 301 -18 q 111 428 111 197 l 111 701 q 106 749 111 738 q 79 771 101 761 l 35 797 l 39 936 l 472 936 l 479 799 l 364 767 l 364 482 q 406 254 364 338 q 549 171 447 171 q 613 181 582 171 q 667 207 644 190 q 686 292 681 239 q 692 436 692 346 l 692 701 q 686 749 692 738 q 657 771 681 761 l 589 810 l 596 936 l 1008 936 l 1015 786 l 943 767 l 943 453 q 828 106 943 229 q 506 -18 714 -18 m 435 1261 l 642 1261 l 815 1021 l 700 1021 l 538 1122 l 376 1021 l 261 1021 l 435 1261 z "},"Ü":{"ha":1046,"x_min":35,"x_max":1015,"o":"m 506 -18 q 206 90 301 -18 q 111 428 111 197 l 111 701 q 106 749 111 738 q 79 771 101 761 l 35 797 l 39 936 l 472 936 l 479 799 l 364 767 l 364 482 q 406 254 364 338 q 549 171 447 171 q 613 181 582 171 q 667 207 644 190 q 686 292 681 239 q 692 436 692 346 l 692 701 q 686 749 692 738 q 657 771 681 761 l 589 810 l 596 936 l 1008 936 l 1015 786 l 943 767 l 943 453 q 828 106 943 229 q 506 -18 714 -18 m 251 1225 l 447 1278 l 494 1104 l 299 1051 l 251 1225 m 581 1225 l 775 1278 l 822 1104 l 628 1051 l 581 1225 z "},"Ù":{"ha":1046,"x_min":35,"x_max":1015,"o":"m 506 -18 q 206 90 301 -18 q 111 428 111 197 l 111 701 q 106 749 111 738 q 79 771 101 761 l 35 797 l 39 936 l 472 936 l 479 799 l 364 767 l 364 482 q 406 254 364 338 q 549 171 447 171 q 613 181 582 171 q 667 207 644 190 q 686 292 681 239 q 692 436 692 346 l 692 701 q 686 749 692 738 q 657 771 681 761 l 589 810 l 596 936 l 1008 936 l 1015 786 l 943 767 l 943 453 q 828 106 943 229 q 506 -18 714 -18 m 253 1204 l 253 1261 l 503 1261 l 635 1021 l 515 1021 l 253 1204 z "},"Ű":{"ha":1046,"x_min":35,"x_max":1015,"o":"m 506 -18 q 206 90 301 -18 q 111 428 111 197 l 111 701 q 106 749 111 738 q 79 771 101 761 l 35 797 l 39 936 l 472 936 l 479 799 l 364 767 l 364 482 q 406 254 364 338 q 549 171 447 171 q 613 181 582 171 q 667 207 644 190 q 686 292 681 239 q 692 436 692 346 l 692 701 q 686 749 692 738 q 657 771 681 761 l 589 810 l 596 936 l 1008 936 l 1015 786 l 943 767 l 943 453 q 828 106 943 229 q 506 -18 714 -18 m 407 1261 l 631 1261 l 631 1204 l 394 1021 l 275 1021 l 407 1261 m 708 1261 l 932 1261 l 932 1204 l 697 1021 l 576 1021 l 708 1261 z "},"Ū":{"ha":1046,"x_min":35,"x_max":1015,"o":"m 506 -18 q 206 90 301 -18 q 111 428 111 197 l 111 701 q 106 749 111 738 q 79 771 101 761 l 35 797 l 39 936 l 472 936 l 479 799 l 364 767 l 364 482 q 406 254 364 338 q 549 171 447 171 q 613 181 582 171 q 667 207 644 190 q 686 292 681 239 q 692 436 692 346 l 692 701 q 686 749 692 738 q 657 771 681 761 l 589 810 l 596 936 l 1008 936 l 1015 786 l 943 767 l 943 453 q 828 106 943 229 q 506 -18 714 -18 m 324 1213 l 749 1196 l 749 1071 l 324 1058 l 324 1213 z "},"Ų":{"ha":1046,"x_min":35,"x_max":1015,"o":"m 606 -315 q 463 -278 522 -315 q 403 -165 403 -242 q 472 -18 403 -85 q 199 99 286 -10 q 111 428 111 208 l 111 701 q 106 749 111 738 q 79 771 101 761 l 35 797 l 39 936 l 472 936 l 479 799 l 364 767 l 364 482 q 406 254 364 338 q 549 171 447 171 q 613 181 582 171 q 667 207 644 190 q 686 292 681 239 q 692 436 692 346 l 692 701 q 686 749 692 738 q 657 771 681 761 l 589 810 l 596 936 l 1008 936 l 1015 786 l 943 767 l 943 453 q 749 40 943 161 l 683 3 q 572 -62 594 -46 q 567 -101 567 -76 q 685 -201 567 -201 q 754 -192 715 -201 l 771 -275 q 606 -315 694 -315 z "},"Ů":{"ha":1046,"x_min":35,"x_max":1015,"o":"m 506 -18 q 206 90 301 -18 q 111 428 111 197 l 111 701 q 106 749 111 738 q 79 771 101 761 l 35 797 l 39 936 l 472 936 l 479 799 l 364 767 l 364 482 q 406 254 364 338 q 549 171 447 171 q 613 181 582 171 q 667 207 644 190 q 686 292 681 239 q 692 436 692 346 l 692 701 q 686 749 692 738 q 657 771 681 761 l 589 810 l 596 936 l 1008 936 l 1015 786 l 943 767 l 943 453 q 828 106 943 229 q 506 -18 714 -18 m 535 1022 q 407 1054 447 1022 q 367 1156 367 1086 q 414 1258 367 1219 q 539 1297 461 1297 q 707 1163 707 1297 q 662 1059 707 1096 q 535 1022 617 1022 m 540 1097 q 582 1103 568 1097 q 590 1154 590 1139 q 532 1218 590 1218 q 492 1215 503 1218 q 483 1167 483 1196 q 498 1115 483 1133 q 540 1097 513 1097 z "},"V":{"ha":1004,"x_min":35,"x_max":978,"o":"m 81 774 l 35 839 l 40 936 l 440 936 l 454 804 l 356 779 l 540 253 l 706 732 q 710 751 710 743 q 693 775 710 769 l 597 814 l 607 936 l 969 936 l 978 818 l 917 740 l 614 -4 l 375 -25 l 81 774 z "},"W":{"ha":1517,"x_min":35,"x_max":1489,"o":"m 82 774 l 35 839 l 40 936 l 439 936 l 447 804 l 347 778 l 519 240 l 657 668 l 596 847 l 601 936 l 971 936 l 979 804 l 888 778 l 1058 240 l 1218 732 q 1222 751 1222 743 q 1204 775 1222 769 l 1110 814 l 1118 936 l 1482 936 l 1489 818 l 1432 740 l 1140 -6 l 897 -29 l 751 396 l 601 -6 l 344 -29 l 82 774 z "},"Ẃ":{"ha":1517,"x_min":35,"x_max":1489,"o":"m 82 774 l 35 839 l 40 936 l 439 936 l 447 804 l 347 778 l 519 240 l 657 668 l 596 847 l 601 936 l 971 936 l 979 804 l 888 778 l 1058 240 l 1218 732 q 1222 751 1222 743 q 1204 775 1222 769 l 1110 814 l 1118 936 l 1482 936 l 1489 818 l 1432 740 l 1140 -6 l 897 -29 l 751 396 l 601 -6 l 344 -29 l 82 774 m 824 1261 l 1074 1261 l 1074 1204 l 813 1021 l 692 1021 l 824 1261 z "},"Ŵ":{"ha":1517,"x_min":35,"x_max":1489,"o":"m 82 774 l 35 839 l 40 936 l 439 936 l 447 804 l 347 778 l 519 240 l 657 668 l 596 847 l 601 936 l 971 936 l 979 804 l 888 778 l 1058 240 l 1218 732 q 1222 751 1222 743 q 1204 775 1222 769 l 1110 814 l 1118 936 l 1482 936 l 1489 818 l 1432 740 l 1140 -6 l 897 -29 l 751 396 l 601 -6 l 344 -29 l 82 774 m 683 1261 l 890 1261 l 1064 1021 l 949 1021 l 786 1122 l 625 1021 l 510 1021 l 683 1261 z "},"Ẅ":{"ha":1517,"x_min":35,"x_max":1489,"o":"m 82 774 l 35 839 l 40 936 l 439 936 l 447 804 l 347 778 l 519 240 l 657 668 l 596 847 l 601 936 l 971 936 l 979 804 l 888 778 l 1058 240 l 1218 732 q 1222 751 1222 743 q 1204 775 1222 769 l 1110 814 l 1118 936 l 1482 936 l 1489 818 l 1432 740 l 1140 -6 l 897 -29 l 751 396 l 601 -6 l 344 -29 l 82 774 m 500 1225 l 696 1278 l 743 1104 l 547 1051 l 500 1225 m 829 1225 l 1024 1278 l 1071 1104 l 876 1051 l 829 1225 z "},"Ẁ":{"ha":1517,"x_min":35,"x_max":1489,"o":"m 82 774 l 35 839 l 40 936 l 439 936 l 447 804 l 347 778 l 519 240 l 657 668 l 596 847 l 601 936 l 971 936 l 979 804 l 888 778 l 1058 240 l 1218 732 q 1222 751 1222 743 q 1204 775 1222 769 l 1110 814 l 1118 936 l 1482 936 l 1489 818 l 1432 740 l 1140 -6 l 897 -29 l 751 396 l 601 -6 l 344 -29 l 82 774 m 501 1204 l 501 1261 l 751 1261 l 883 1021 l 764 1021 l 501 1204 z "},"X":{"ha":972,"x_min":28,"x_max":944,"o":"m 494 125 l 567 143 l 425 333 l 322 186 q 317 171 317 179 q 332 149 317 161 l 381 110 l 371 4 l 35 4 l 28 124 l 61 156 l 324 468 l 100 769 l 31 853 l 35 936 l 465 936 l 481 811 l 407 793 l 542 613 l 640 756 q 644 768 644 763 q 631 792 644 779 l 581 829 l 590 936 l 928 936 l 936 817 l 901 785 l 643 476 l 875 167 l 944 83 l 939 0 l 503 0 l 494 125 z "},"Y":{"ha":935,"x_min":24,"x_max":904,"o":"m 222 136 l 342 169 l 342 353 l 88 760 l 24 839 l 29 936 l 436 936 l 450 804 l 360 779 l 506 532 l 626 736 q 632 756 632 746 q 615 778 632 771 l 535 814 l 544 936 l 894 936 l 904 806 l 849 772 l 593 397 l 593 225 q 598 182 593 192 q 622 163 603 172 l 708 111 l 703 0 l 229 0 l 222 136 z "},"Ý":{"ha":935,"x_min":24,"x_max":904,"o":"m 222 136 l 342 169 l 342 353 l 88 760 l 24 839 l 29 936 l 436 936 l 450 804 l 360 779 l 506 532 l 626 736 q 632 756 632 746 q 615 778 632 771 l 535 814 l 544 936 l 894 936 l 904 806 l 849 772 l 593 397 l 593 225 q 598 182 593 192 q 622 163 603 172 l 708 111 l 703 0 l 229 0 l 222 136 m 536 1261 l 786 1261 l 786 1204 l 525 1021 l 404 1021 l 536 1261 z "},"Ŷ":{"ha":935,"x_min":24,"x_max":904,"o":"m 222 136 l 342 169 l 342 353 l 88 760 l 24 839 l 29 936 l 436 936 l 450 804 l 360 779 l 506 532 l 626 736 q 632 756 632 746 q 615 778 632 771 l 535 814 l 544 936 l 894 936 l 904 806 l 849 772 l 593 397 l 593 225 q 598 182 593 192 q 622 163 603 172 l 708 111 l 703 0 l 229 0 l 222 136 m 396 1261 l 603 1261 l 776 1021 l 661 1021 l 499 1122 l 338 1021 l 222 1021 l 396 1261 z "},"Ÿ":{"ha":935,"x_min":24,"x_max":904,"o":"m 222 136 l 342 169 l 342 353 l 88 760 l 24 839 l 29 936 l 436 936 l 450 804 l 360 779 l 506 532 l 626 736 q 632 756 632 746 q 615 778 632 771 l 535 814 l 544 936 l 894 936 l 904 806 l 849 772 l 593 397 l 593 225 q 598 182 593 192 q 622 163 603 172 l 708 111 l 703 0 l 229 0 l 222 136 m 213 1225 l 408 1278 l 456 1104 l 260 1051 l 213 1225 m 542 1225 l 736 1278 l 783 1104 l 589 1051 l 542 1225 z "},"Ỳ":{"ha":935,"x_min":24,"x_max":904,"o":"m 222 136 l 342 169 l 342 353 l 88 760 l 24 839 l 29 936 l 436 936 l 450 804 l 360 779 l 506 532 l 626 736 q 632 756 632 746 q 615 778 632 771 l 535 814 l 544 936 l 894 936 l 904 806 l 849 772 l 593 397 l 593 225 q 598 182 593 192 q 622 163 603 172 l 708 111 l 703 0 l 229 0 l 222 136 m 214 1204 l 214 1261 l 464 1261 l 596 1021 l 476 1021 l 214 1204 z "},"Z":{"ha":868,"x_min":39,"x_max":842,"o":"m 39 172 l 474 751 l 278 738 l 168 618 l 58 639 l 96 936 l 793 936 l 807 778 l 360 185 l 628 201 l 725 325 l 842 299 q 804 0 818 93 l 49 0 l 39 172 z "},"Ź":{"ha":868,"x_min":39,"x_max":842,"o":"m 39 172 l 474 751 l 278 738 l 168 618 l 58 639 l 96 936 l 793 936 l 807 778 l 360 185 l 628 201 l 725 325 l 842 299 q 804 0 818 93 l 49 0 l 39 172 m 489 1261 l 739 1261 l 739 1204 l 478 1021 l 357 1021 l 489 1261 z "},"Ž":{"ha":868,"x_min":39,"x_max":842,"o":"m 39 172 l 474 751 l 278 738 l 168 618 l 58 639 l 96 936 l 793 936 l 807 778 l 360 185 l 628 201 l 725 325 l 842 299 q 804 0 818 93 l 49 0 l 39 172 m 175 1261 l 290 1261 l 453 1160 l 614 1261 l 729 1261 l 556 1021 l 349 1021 l 175 1261 z "},"Ż":{"ha":868,"x_min":39,"x_max":842,"o":"m 39 172 l 474 751 l 278 738 l 168 618 l 58 639 l 96 936 l 793 936 l 807 778 l 360 185 l 628 201 l 725 325 l 842 299 q 804 0 818 93 l 49 0 l 39 172 m 319 1217 l 515 1269 l 563 1096 l 367 1043 l 319 1217 z "},"a":{"ha":769,"x_min":28,"x_max":756,"o":"m 236 -18 q 85 34 142 -18 q 28 168 28 86 q 138 340 28 278 q 460 411 249 403 q 449 508 460 476 q 412 551 439 539 q 329 563 385 563 q 249 558 272 563 l 192 446 l 89 453 q 56 683 65 564 q 226 725 133 710 q 399 740 318 740 q 610 683 546 740 q 674 492 674 625 l 674 201 q 678 167 674 176 q 700 147 683 157 l 756 115 l 750 29 q 496 -12 589 -8 q 488 17 493 -4 q 478 58 482 39 q 359 3 424 24 q 236 -18 294 -18 m 329 139 q 464 176 385 139 l 458 282 q 414 285 425 285 q 326 277 376 285 q 247 260 276 269 q 243 226 243 242 q 266 162 243 185 q 329 139 289 139 z "},"á":{"ha":769,"x_min":28,"x_max":756,"o":"m 236 -18 q 85 34 142 -18 q 28 168 28 86 q 138 340 28 278 q 460 411 249 403 q 449 508 460 476 q 412 551 439 539 q 329 563 385 563 q 249 558 272 563 l 192 446 l 89 453 q 56 683 65 564 q 226 725 133 710 q 399 740 318 740 q 610 683 546 740 q 674 492 674 625 l 674 201 q 678 167 674 176 q 700 147 683 157 l 756 115 l 750 29 q 496 -12 589 -8 q 488 17 493 -4 q 478 58 482 39 q 359 3 424 24 q 236 -18 294 -18 m 329 139 q 464 176 385 139 l 458 282 q 414 285 425 285 q 326 277 376 285 q 247 260 276 269 q 243 226 243 242 q 266 162 243 185 q 329 139 289 139 m 419 1049 l 669 1049 l 669 992 l 408 808 l 288 808 l 419 1049 z "},"ă":{"ha":769,"x_min":28,"x_max":756,"o":"m 236 -18 q 85 34 142 -18 q 28 168 28 86 q 138 340 28 278 q 460 411 249 403 q 449 508 460 476 q 412 551 439 539 q 329 563 385 563 q 249 558 272 563 l 192 446 l 89 453 q 56 683 65 564 q 226 725 133 710 q 399 740 318 740 q 610 683 546 740 q 674 492 674 625 l 674 201 q 678 167 674 176 q 700 147 683 157 l 756 115 l 750 29 q 496 -12 589 -8 q 488 17 493 -4 q 478 58 482 39 q 359 3 424 24 q 236 -18 294 -18 m 329 139 q 464 176 385 139 l 458 282 q 414 285 425 285 q 326 277 376 285 q 247 260 276 269 q 243 226 243 242 q 266 162 243 185 q 329 139 289 139 m 350 808 q 202 863 253 808 q 151 1017 151 917 q 153 1049 151 1038 l 231 1049 q 287 977 249 1001 q 389 953 325 953 q 488 978 454 953 q 533 1049 522 1003 l 613 1049 q 533 872 604 936 q 350 808 461 808 z "},"â":{"ha":769,"x_min":28,"x_max":756,"o":"m 236 -18 q 85 34 142 -18 q 28 168 28 86 q 138 340 28 278 q 460 411 249 403 q 449 508 460 476 q 412 551 439 539 q 329 563 385 563 q 249 558 272 563 l 192 446 l 89 453 q 56 683 65 564 q 226 725 133 710 q 399 740 318 740 q 610 683 546 740 q 674 492 674 625 l 674 201 q 678 167 674 176 q 700 147 683 157 l 756 115 l 750 29 q 496 -12 589 -8 q 488 17 493 -4 q 478 58 482 39 q 359 3 424 24 q 236 -18 294 -18 m 329 139 q 464 176 385 139 l 458 282 q 414 285 425 285 q 326 277 376 285 q 247 260 276 269 q 243 226 243 242 q 266 162 243 185 q 329 139 289 139 m 279 1049 l 486 1049 l 660 808 l 544 808 l 382 910 l 221 808 l 106 808 l 279 1049 z "},"ä":{"ha":769,"x_min":28,"x_max":756,"o":"m 236 -18 q 85 34 142 -18 q 28 168 28 86 q 138 340 28 278 q 460 411 249 403 q 449 508 460 476 q 412 551 439 539 q 329 563 385 563 q 249 558 272 563 l 192 446 l 89 453 q 56 683 65 564 q 226 725 133 710 q 399 740 318 740 q 610 683 546 740 q 674 492 674 625 l 674 201 q 678 167 674 176 q 700 147 683 157 l 756 115 l 750 29 q 496 -12 589 -8 q 488 17 493 -4 q 478 58 482 39 q 359 3 424 24 q 236 -18 294 -18 m 329 139 q 464 176 385 139 l 458 282 q 414 285 425 285 q 326 277 376 285 q 247 260 276 269 q 243 226 243 242 q 266 162 243 185 q 329 139 289 139 m 96 1013 l 292 1065 l 339 892 l 143 839 l 96 1013 m 425 1013 l 619 1065 l 667 892 l 472 839 l 425 1013 z "},"à":{"ha":769,"x_min":28,"x_max":756,"o":"m 236 -18 q 85 34 142 -18 q 28 168 28 86 q 138 340 28 278 q 460 411 249 403 q 449 508 460 476 q 412 551 439 539 q 329 563 385 563 q 249 558 272 563 l 192 446 l 89 453 q 56 683 65 564 q 226 725 133 710 q 399 740 318 740 q 610 683 546 740 q 674 492 674 625 l 674 201 q 678 167 674 176 q 700 147 683 157 l 756 115 l 750 29 q 496 -12 589 -8 q 488 17 493 -4 q 478 58 482 39 q 359 3 424 24 q 236 -18 294 -18 m 329 139 q 464 176 385 139 l 458 282 q 414 285 425 285 q 326 277 376 285 q 247 260 276 269 q 243 226 243 242 q 266 162 243 185 q 329 139 289 139 m 97 992 l 97 1049 l 347 1049 l 479 808 l 360 808 l 97 992 z "},"ā":{"ha":769,"x_min":28,"x_max":756,"o":"m 236 -18 q 85 34 142 -18 q 28 168 28 86 q 138 340 28 278 q 460 411 249 403 q 449 508 460 476 q 412 551 439 539 q 329 563 385 563 q 249 558 272 563 l 192 446 l 89 453 q 56 683 65 564 q 226 725 133 710 q 399 740 318 740 q 610 683 546 740 q 674 492 674 625 l 674 201 q 678 167 674 176 q 700 147 683 157 l 756 115 l 750 29 q 496 -12 589 -8 q 488 17 493 -4 q 478 58 482 39 q 359 3 424 24 q 236 -18 294 -18 m 329 139 q 464 176 385 139 l 458 282 q 414 285 425 285 q 326 277 376 285 q 247 260 276 269 q 243 226 243 242 q 266 162 243 185 q 329 139 289 139 m 168 1000 l 593 983 l 593 858 l 168 846 l 168 1000 z "},"ą":{"ha":767,"x_min":25,"x_max":753,"o":"m 567 -315 q 423 -277 483 -315 q 363 -164 363 -239 q 489 10 363 -57 l 475 58 q 356 3 421 24 q 233 -18 292 -18 q 82 34 139 -18 q 25 168 25 86 q 135 340 25 278 q 457 411 246 403 q 447 508 457 476 q 409 551 436 539 q 326 563 382 563 q 246 558 265 563 l 189 446 l 86 453 q 53 683 61 585 q 221 725 128 710 q 396 740 314 740 q 607 683 543 740 q 671 492 671 625 l 671 201 q 676 167 671 176 q 697 147 681 157 l 753 115 l 746 42 q 615 -13 665 10 q 531 -61 565 -36 q 525 -100 525 -72 q 643 -201 525 -201 q 713 -192 676 -201 l 731 -275 q 567 -315 654 -315 m 326 139 q 461 176 382 139 l 456 282 q 411 285 422 285 q 322 277 372 285 q 244 260 271 269 q 240 226 240 242 q 263 162 240 185 q 326 139 286 139 z "},"å":{"ha":769,"x_min":28,"x_max":756,"o":"m 236 -18 q 85 34 142 -18 q 28 168 28 86 q 138 340 28 278 q 460 411 249 403 q 449 508 460 476 q 412 551 439 539 q 329 563 385 563 q 249 558 272 563 l 192 446 l 89 453 q 56 683 65 564 q 226 725 133 710 q 399 740 318 740 q 610 683 546 740 q 674 492 674 625 l 674 201 q 678 167 674 176 q 700 147 683 157 l 756 115 l 750 29 q 496 -12 589 -8 q 488 17 493 -4 q 478 58 482 39 q 359 3 424 24 q 236 -18 294 -18 m 329 139 q 464 176 385 139 l 458 282 q 414 285 425 285 q 326 277 376 285 q 247 260 276 269 q 243 226 243 242 q 266 162 243 185 q 329 139 289 139 m 379 810 q 251 842 292 810 q 211 943 211 874 q 258 1046 211 1007 q 383 1085 306 1085 q 551 950 551 1085 q 506 847 551 883 q 379 810 461 810 m 385 885 q 426 890 413 885 q 435 942 435 926 q 376 1006 435 1006 q 336 1003 347 1006 q 328 954 328 983 q 342 903 328 921 q 385 885 357 885 z "},"ã":{"ha":769,"x_min":28,"x_max":756,"o":"m 236 -18 q 85 34 142 -18 q 28 168 28 86 q 138 340 28 278 q 460 411 249 403 q 449 508 460 476 q 412 551 439 539 q 329 563 385 563 q 249 558 272 563 l 192 446 l 89 453 q 56 683 65 564 q 226 725 133 710 q 399 740 318 740 q 610 683 546 740 q 674 492 674 625 l 674 201 q 678 167 674 176 q 700 147 683 157 l 756 115 l 750 29 q 496 -12 589 -8 q 488 17 493 -4 q 478 58 482 39 q 359 3 424 24 q 236 -18 294 -18 m 329 139 q 464 176 385 139 l 458 282 q 414 285 425 285 q 326 277 376 285 q 247 260 276 269 q 243 226 243 242 q 266 162 243 185 q 329 139 289 139 m 485 828 q 356 858 442 828 q 300 876 328 868 q 254 883 272 883 q 235 869 246 879 q 213 840 225 858 l 136 840 q 195 985 158 939 q 289 1031 232 1031 q 347 1023 317 1031 q 418 1000 376 1015 q 460 986 425 997 q 521 975 494 975 q 538 990 528 979 q 561 1018 547 1001 l 638 1018 q 578 874 615 919 q 485 828 542 828 z "},"æ":{"ha":1161,"x_min":25,"x_max":1133,"o":"m 242 -19 q 83 31 142 -19 q 25 167 25 82 q 136 341 25 279 q 457 411 247 403 q 447 508 457 476 q 410 551 438 539 q 324 563 382 563 q 246 558 265 563 l 189 446 l 86 453 q 53 683 61 585 q 219 724 128 708 q 388 740 311 740 q 603 681 532 740 q 808 740 688 740 q 1050 640 967 740 q 1128 356 1133 540 l 706 282 q 758 193 722 221 q 854 165 794 165 q 950 177 894 165 q 1063 210 1006 189 l 1096 72 q 963 8 1046 33 q 796 -17 879 -17 q 543 86 631 -17 q 400 10 482 39 q 242 -19 318 -19 m 900 472 q 792 575 893 575 q 718 563 751 575 q 694 415 692 499 l 900 472 m 328 139 q 400 152 358 139 q 483 189 442 165 q 463 282 468 246 q 411 285 424 285 q 320 277 369 285 q 244 260 271 269 q 240 225 240 242 q 263 161 240 183 q 328 139 286 139 z "},"b":{"ha":785,"x_min":-35,"x_max":760,"o":"m 351 -17 q 199 -1 275 -17 q 57 42 122 15 l 57 822 q 53 862 57 853 q 31 882 49 871 l -35 914 l -28 1019 q 168 1051 101 1042 q 272 1063 235 1061 q 292 990 286 1033 l 292 713 q 449 740 371 740 q 677 648 594 740 q 760 383 760 556 q 655 88 760 193 q 351 -17 550 -17 m 400 163 q 497 176 465 163 q 515 264 508 214 q 522 361 522 314 q 379 575 522 575 q 292 563 343 575 l 292 181 q 400 163 328 163 z "},"c":{"ha":700,"x_min":21,"x_max":663,"o":"m 360 -18 q 110 81 199 -18 q 21 356 21 181 q 116 639 21 538 q 376 740 211 740 q 644 683 501 740 q 632 577 642 643 q 611 456 622 511 l 518 447 l 432 557 q 354 564 397 564 q 290 560 319 564 q 258 388 258 499 q 299 219 258 274 q 421 164 339 164 q 515 176 460 164 q 629 210 571 188 l 663 71 q 524 7 607 32 q 360 -18 442 -18 z "},"ć":{"ha":700,"x_min":21,"x_max":669,"o":"m 360 -18 q 110 81 199 -18 q 21 356 21 181 q 116 639 21 538 q 376 740 211 740 q 644 683 501 740 q 632 577 642 643 q 611 456 622 511 l 518 447 l 432 557 q 354 564 397 564 q 290 560 319 564 q 258 388 258 499 q 299 219 258 274 q 421 164 339 164 q 515 176 460 164 q 629 210 571 188 l 663 71 q 524 7 607 32 q 360 -18 442 -18 m 419 1049 l 669 1049 l 669 992 l 408 808 l 288 808 l 419 1049 z "},"č":{"ha":700,"x_min":21,"x_max":663,"o":"m 360 -18 q 110 81 199 -18 q 21 356 21 181 q 116 639 21 538 q 376 740 211 740 q 644 683 501 740 q 632 577 642 643 q 611 456 622 511 l 518 447 l 432 557 q 354 564 397 564 q 290 560 319 564 q 258 388 258 499 q 299 219 258 274 q 421 164 339 164 q 515 176 460 164 q 629 210 571 188 l 663 71 q 524 7 607 32 q 360 -18 442 -18 m 106 1049 l 221 1049 l 383 947 l 544 1049 l 660 1049 l 486 808 l 279 808 l 106 1049 z "},"ç":{"ha":700,"x_min":21,"x_max":663,"o":"m 458 -68 q 521 -104 500 -83 q 542 -162 542 -125 q 463 -276 542 -236 q 249 -315 385 -315 l 235 -264 q 326 -256 285 -264 q 388 -233 368 -247 q 390 -207 390 -217 q 369 -174 390 -183 q 281 -156 349 -164 l 281 -128 l 314 -15 q 97 97 174 -1 q 21 356 21 194 q 116 639 21 538 q 376 740 211 740 q 644 683 501 740 q 632 577 642 643 q 611 456 622 511 l 518 447 l 432 557 q 354 564 397 564 q 290 560 319 564 q 258 388 258 499 q 299 219 258 274 q 421 164 339 164 q 515 176 460 164 q 629 210 571 188 l 663 71 q 545 13 615 38 q 403 -17 475 -11 l 381 -49 q 458 -68 414 -56 z "},"ċ":{"ha":700,"x_min":21,"x_max":663,"o":"m 360 -18 q 110 81 199 -18 q 21 356 21 181 q 116 639 21 538 q 376 740 211 740 q 644 683 501 740 q 632 577 642 643 q 611 456 622 511 l 518 447 l 432 557 q 354 564 397 564 q 290 560 319 564 q 258 388 258 499 q 299 219 258 274 q 421 164 339 164 q 515 176 460 164 q 629 210 571 188 l 663 71 q 524 7 607 32 q 360 -18 442 -18 m 250 1004 l 446 1057 l 493 883 l 297 831 l 250 1004 z "},"d":{"ha":818,"x_min":21,"x_max":800,"o":"m 304 -18 q 96 82 171 -18 q 21 350 21 182 q 123 642 21 543 q 414 740 225 740 q 486 738 425 740 l 486 821 q 482 861 486 851 q 458 882 478 871 l 396 914 l 403 1019 q 600 1052 536 1043 q 701 1063 664 1061 q 719 990 714 1031 l 719 200 q 724 165 719 175 q 747 146 729 156 l 800 114 l 794 28 q 528 -14 658 -7 q 508 50 518 13 q 304 -18 414 -18 m 385 160 q 488 190 431 160 l 488 550 q 381 568 446 568 q 279 554 328 568 q 262 482 268 528 q 256 381 256 436 q 287 213 256 267 q 385 160 318 160 z "},"ð":{"ha":781,"x_min":21,"x_max":743,"o":"m 738 451 q 743 371 743 418 q 646 83 743 185 q 367 -18 549 -18 q 108 74 194 -18 q 21 342 21 165 q 117 635 21 531 q 383 740 214 740 l 397 740 l 336 813 l 176 738 l 169 835 l 275 885 l 169 1010 l 181 1068 l 429 1050 l 478 981 l 638 1056 l 643 958 l 531 906 q 673 665 624 768 q 738 451 722 561 m 486 165 q 501 247 496 197 q 506 344 506 297 q 469 516 506 460 q 357 572 433 572 q 272 560 319 572 q 257 493 263 539 q 251 394 251 447 q 400 144 251 144 q 486 165 443 144 z "},"ď":{"ha":818,"x_min":21,"x_max":1163,"o":"m 308 -18 q 95 81 169 -18 q 21 364 21 181 q 125 642 21 544 q 421 740 229 740 q 486 738 425 740 l 486 821 q 482 861 486 851 q 458 882 478 871 l 396 914 l 403 1019 q 600 1052 536 1043 q 701 1063 664 1061 q 719 990 714 1031 l 719 200 q 724 165 719 175 q 747 146 729 156 l 800 114 l 794 28 q 528 -14 658 -7 q 508 50 518 13 q 412 0 464 18 q 308 -18 360 -18 m 908 1049 l 1163 1049 l 1163 992 l 894 790 l 772 790 l 908 1049 m 383 160 q 433 167 408 160 q 488 190 457 174 l 488 550 q 375 568 446 568 q 279 554 328 568 q 262 482 268 528 q 256 385 256 436 q 287 214 256 268 q 383 160 318 160 z "},"đ":{"ha":828,"x_min":21,"x_max":800,"o":"m 800 114 l 794 28 q 528 -14 658 -7 q 508 50 518 13 q 304 -18 414 -18 q 96 82 171 -18 q 21 350 21 182 q 123 642 21 543 q 414 740 225 740 q 486 738 431 740 l 486 782 l 329 782 l 329 847 l 482 864 q 458 886 479 876 l 396 918 l 403 1019 q 600 1052 536 1043 q 701 1063 664 1061 q 719 990 714 1031 l 719 889 l 794 897 l 794 782 l 719 782 l 719 200 q 724 165 719 175 q 747 146 729 156 l 800 114 m 488 550 q 381 568 446 568 q 279 554 328 568 q 262 482 268 528 q 256 381 256 436 q 287 213 256 267 q 385 160 318 160 q 488 190 431 160 l 488 550 z "},"e":{"ha":724,"x_min":21,"x_max":696,"o":"m 360 -17 q 109 82 197 -17 q 21 354 21 181 q 64 562 21 475 q 186 694 107 649 q 371 740 265 740 q 612 640 528 740 q 692 356 696 540 l 269 278 q 324 192 289 219 q 418 165 360 165 q 514 177 458 165 q 626 210 569 189 l 658 72 q 525 8 607 33 q 360 -17 443 -17 m 464 472 q 434 549 461 525 q 358 574 407 574 q 282 563 318 574 q 256 415 253 494 l 464 472 z "},"é":{"ha":724,"x_min":21,"x_max":696,"o":"m 360 -17 q 109 82 197 -17 q 21 354 21 181 q 64 562 21 475 q 186 694 107 649 q 371 740 265 740 q 612 640 528 740 q 692 356 696 540 l 269 278 q 324 192 289 219 q 418 165 360 165 q 514 177 458 165 q 626 210 569 189 l 658 72 q 525 8 607 33 q 360 -17 443 -17 m 464 472 q 434 549 461 525 q 358 574 407 574 q 282 563 318 574 q 256 415 253 494 l 464 472 m 407 1049 l 657 1049 l 657 992 l 396 808 l 275 808 l 407 1049 z "},"ě":{"ha":724,"x_min":21,"x_max":696,"o":"m 360 -17 q 109 82 197 -17 q 21 354 21 181 q 64 562 21 475 q 186 694 107 649 q 371 740 265 740 q 612 640 528 740 q 692 356 696 540 l 269 278 q 324 192 289 219 q 418 165 360 165 q 514 177 458 165 q 626 210 569 189 l 658 72 q 525 8 607 33 q 360 -17 443 -17 m 464 472 q 434 549 461 525 q 358 574 407 574 q 282 563 318 574 q 256 415 253 494 l 464 472 m 93 1049 l 208 1049 l 371 947 l 532 1049 l 647 1049 l 474 808 l 267 808 l 93 1049 z "},"ê":{"ha":724,"x_min":21,"x_max":696,"o":"m 360 -17 q 109 82 197 -17 q 21 354 21 181 q 64 562 21 475 q 186 694 107 649 q 371 740 265 740 q 612 640 528 740 q 692 356 696 540 l 269 278 q 324 192 289 219 q 418 165 360 165 q 514 177 458 165 q 626 210 569 189 l 658 72 q 525 8 607 33 q 360 -17 443 -17 m 464 472 q 434 549 461 525 q 358 574 407 574 q 282 563 318 574 q 256 415 253 494 l 464 472 m 267 1049 l 474 1049 l 647 808 l 532 808 l 369 910 l 208 808 l 93 808 l 267 1049 z "},"ë":{"ha":724,"x_min":21,"x_max":696,"o":"m 360 -17 q 109 82 197 -17 q 21 354 21 181 q 64 562 21 475 q 186 694 107 649 q 371 740 265 740 q 612 640 528 740 q 692 356 696 540 l 269 278 q 324 192 289 219 q 418 165 360 165 q 514 177 458 165 q 626 210 569 189 l 658 72 q 525 8 607 33 q 360 -17 443 -17 m 464 472 q 434 549 461 525 q 358 574 407 574 q 282 563 318 574 q 256 415 253 494 l 464 472 m 83 1013 l 279 1065 l 326 892 l 131 839 l 83 1013 m 413 1013 l 607 1065 l 654 892 l 460 839 l 413 1013 z "},"ė":{"ha":724,"x_min":21,"x_max":696,"o":"m 360 -17 q 109 82 197 -17 q 21 354 21 181 q 64 562 21 475 q 186 694 107 649 q 371 740 265 740 q 612 640 528 740 q 692 356 696 540 l 269 278 q 324 192 289 219 q 418 165 360 165 q 514 177 458 165 q 626 210 569 189 l 658 72 q 525 8 607 33 q 360 -17 443 -17 m 464 472 q 434 549 461 525 q 358 574 407 574 q 282 563 318 574 q 256 415 253 494 l 464 472 m 238 1004 l 433 1057 l 481 883 l 285 831 l 238 1004 z "},"è":{"ha":724,"x_min":21,"x_max":696,"o":"m 360 -17 q 109 82 197 -17 q 21 354 21 181 q 64 562 21 475 q 186 694 107 649 q 371 740 265 740 q 612 640 528 740 q 692 356 696 540 l 269 278 q 324 192 289 219 q 418 165 360 165 q 514 177 458 165 q 626 210 569 189 l 658 72 q 525 8 607 33 q 360 -17 443 -17 m 464 472 q 434 549 461 525 q 358 574 407 574 q 282 563 318 574 q 256 415 253 494 l 464 472 m 85 992 l 85 1049 l 335 1049 l 467 808 l 347 808 l 85 992 z "},"ē":{"ha":724,"x_min":21,"x_max":696,"o":"m 360 -17 q 109 82 197 -17 q 21 354 21 181 q 64 562 21 475 q 186 694 107 649 q 371 740 265 740 q 612 640 528 740 q 692 356 696 540 l 269 278 q 324 192 289 219 q 418 165 360 165 q 514 177 458 165 q 626 210 569 189 l 658 72 q 525 8 607 33 q 360 -17 443 -17 m 464 472 q 434 549 461 525 q 358 574 407 574 q 282 563 318 574 q 256 415 253 494 l 464 472 m 156 1000 l 581 983 l 581 858 l 156 846 l 156 1000 z "},"ę":{"ha":724,"x_min":21,"x_max":696,"o":"m 467 -314 q 324 -277 385 -314 q 264 -165 264 -240 q 333 -17 264 -89 q 101 91 182 -10 q 21 356 21 192 q 64 562 21 475 q 186 694 107 649 q 371 740 265 740 q 613 640 529 740 q 692 354 696 539 l 269 278 q 324 192 289 219 q 418 165 360 165 q 514 177 458 165 q 626 210 569 189 l 658 72 q 535 3 632 53 q 472 -31 493 -18 q 433 -58 451 -43 q 428 -100 428 -78 q 546 -200 428 -200 q 615 -190 576 -200 l 632 -274 q 467 -314 556 -314 m 464 472 q 358 575 458 575 q 282 563 322 575 q 256 415 253 494 l 464 472 z "},"f":{"ha":563,"x_min":35,"x_max":594,"o":"m 35 128 l 132 157 l 132 564 l 35 565 l 35 701 l 132 707 l 132 797 q 206 993 132 924 q 419 1063 279 1063 q 594 1044 492 1063 l 563 856 q 456 878 501 872 q 365 883 411 885 l 365 719 l 524 729 l 524 558 l 365 561 l 365 203 q 369 164 365 174 q 393 143 374 154 l 479 96 l 475 0 l 39 0 l 35 128 z "},"g":{"ha":794,"x_min":0,"x_max":775,"o":"m 322 -317 q 81 -267 163 -317 q 0 -119 0 -217 q 94 61 0 -17 q 65 125 65 90 q 131 267 65 175 q 17 472 17 326 q 103 670 17 600 q 354 740 190 740 q 543 706 469 740 l 710 757 l 775 757 l 775 556 l 667 556 q 674 488 674 521 q 588 293 674 360 q 335 226 501 226 q 232 235 278 226 l 232 215 q 251 184 232 193 q 332 167 269 175 l 457 149 q 660 76 604 128 q 717 -56 717 25 q 614 -249 717 -181 q 322 -317 511 -317 m 356 363 q 422 371 385 363 q 433 421 428 388 q 438 482 438 454 q 410 575 438 544 q 326 606 383 606 q 265 597 299 606 q 253 549 258 581 q 249 488 249 517 q 275 393 249 424 q 356 363 301 363 m 386 -160 q 483 -149 450 -160 q 492 -104 492 -132 q 468 -53 492 -71 q 383 -28 444 -36 l 339 -21 q 215 -1 278 -14 q 207 -61 207 -39 q 251 -135 207 -111 q 386 -160 296 -160 z "},"ğ":{"ha":794,"x_min":0,"x_max":775,"o":"m 322 -317 q 81 -267 163 -317 q 0 -119 0 -217 q 94 61 0 -17 q 65 125 65 90 q 131 267 65 175 q 17 472 17 326 q 103 670 17 600 q 354 740 190 740 q 543 706 469 740 l 710 757 l 775 757 l 775 556 l 667 556 q 674 488 674 521 q 588 293 674 360 q 335 226 501 226 q 232 235 278 226 l 232 215 q 251 184 232 193 q 332 167 269 175 l 457 149 q 660 76 604 128 q 717 -56 717 25 q 614 -249 717 -181 q 322 -317 511 -317 m 356 363 q 422 371 385 363 q 433 421 428 388 q 438 482 438 454 q 410 575 438 544 q 326 606 383 606 q 265 597 299 606 q 253 549 258 581 q 249 488 249 517 q 275 393 249 424 q 356 363 301 363 m 386 -160 q 483 -149 450 -160 q 492 -104 492 -132 q 468 -53 492 -71 q 383 -28 444 -36 l 339 -21 q 215 -1 278 -14 q 207 -61 207 -39 q 251 -135 207 -111 q 386 -160 296 -160 m 317 808 q 169 863 219 808 q 118 1017 118 917 q 119 1049 118 1038 l 197 1049 q 253 977 215 1001 q 356 953 292 953 q 455 978 421 953 q 500 1049 489 1003 l 579 1049 q 499 872 571 936 q 317 808 428 808 z "},"ģ":{"ha":794,"x_min":0,"x_max":775,"o":"m 322 -317 q 81 -267 163 -317 q 0 -119 0 -217 q 94 61 0 -17 q 65 125 65 90 q 131 267 65 175 q 17 472 17 326 q 103 670 17 600 q 354 740 190 740 q 543 706 469 740 l 710 757 l 775 757 l 775 556 l 667 556 q 674 488 674 521 q 588 293 674 360 q 335 226 501 226 q 232 235 278 226 l 232 215 q 251 184 232 193 q 332 167 269 175 l 457 149 q 660 76 604 128 q 717 -56 717 25 q 614 -249 717 -181 q 322 -317 511 -317 m 356 363 q 422 371 385 363 q 433 421 428 388 q 438 482 438 454 q 410 575 438 544 q 326 606 383 606 q 265 597 299 606 q 253 549 258 581 q 249 488 249 517 q 275 393 249 424 q 356 363 301 363 m 386 -160 q 483 -149 450 -160 q 492 -104 492 -132 q 468 -53 492 -71 q 383 -28 444 -36 l 339 -21 q 215 -1 278 -14 q 207 -61 207 -39 q 251 -135 207 -111 q 386 -160 296 -160 m 218 865 l 479 1049 l 599 1049 l 467 808 l 218 808 l 218 865 z "},"ġ":{"ha":794,"x_min":0,"x_max":775,"o":"m 322 -317 q 81 -267 163 -317 q 0 -119 0 -217 q 94 61 0 -17 q 65 125 65 90 q 131 267 65 175 q 17 472 17 326 q 103 670 17 600 q 354 740 190 740 q 543 706 469 740 l 710 757 l 775 757 l 775 556 l 667 556 q 674 488 674 521 q 588 293 674 360 q 335 226 501 226 q 232 235 278 226 l 232 215 q 251 184 232 193 q 332 167 269 175 l 457 149 q 660 76 604 128 q 717 -56 717 25 q 614 -249 717 -181 q 322 -317 511 -317 m 356 363 q 422 371 385 363 q 433 421 428 388 q 438 482 438 454 q 410 575 438 544 q 326 606 383 606 q 265 597 299 606 q 253 549 258 581 q 249 488 249 517 q 275 393 249 424 q 356 363 301 363 m 386 -160 q 483 -149 450 -160 q 492 -104 492 -132 q 468 -53 492 -71 q 383 -28 444 -36 l 339 -21 q 215 -1 278 -14 q 207 -61 207 -39 q 251 -135 207 -111 q 386 -160 296 -160 m 217 1004 l 413 1057 l 460 883 l 264 831 l 217 1004 z "},"h":{"ha":917,"x_min":35,"x_max":904,"o":"m 36 132 l 122 157 l 122 822 q 118 862 122 853 q 96 882 114 871 l 35 914 l 39 1019 l 82 1026 q 339 1063 265 1060 q 357 990 351 1029 l 357 674 q 487 724 433 708 q 593 740 540 740 q 810 476 810 740 l 810 203 q 814 164 810 174 q 838 143 818 154 l 904 104 l 899 0 l 515 0 l 508 132 l 576 151 l 576 415 q 573 502 576 476 q 550 542 569 528 q 485 556 531 556 q 357 540 440 556 l 357 203 q 361 164 357 174 q 383 143 365 154 l 451 104 l 446 0 l 43 0 l 36 132 z "},"ħ":{"ha":925,"x_min":38,"x_max":913,"o":"m 913 104 l 907 0 l 524 0 l 517 132 l 585 151 l 585 415 q 581 502 585 476 q 558 542 578 528 q 493 556 539 556 q 365 540 449 556 l 365 203 q 369 164 365 174 q 392 143 374 154 l 460 104 l 454 0 l 51 0 l 44 132 l 131 157 l 131 769 l 38 769 l 38 835 l 131 844 q 124 867 129 860 q 104 882 118 874 l 43 914 l 47 1019 l 90 1026 q 347 1063 274 1060 q 365 990 360 1029 l 365 871 l 503 886 l 503 769 l 365 769 l 365 674 q 495 724 442 708 q 601 740 549 740 q 818 476 818 740 l 818 203 q 822 164 818 174 q 846 143 826 154 l 913 104 z "},"i":{"ha":482,"x_min":35,"x_max":461,"o":"m 93 1028 l 329 1090 l 386 879 l 151 815 l 93 1028 m 35 128 l 132 157 l 132 494 q 127 534 132 525 q 103 554 122 543 l 42 588 l 49 692 q 227 724 164 714 q 343 736 290 735 q 365 647 361 676 l 365 203 q 369 164 365 174 q 393 143 374 154 l 461 104 l 456 0 l 39 0 l 35 128 z "},"ı":{"ha":482,"x_min":35,"x_max":461,"o":"m 35 128 l 132 157 l 132 494 q 127 534 132 525 q 103 554 122 543 l 42 588 l 49 692 q 227 724 164 714 q 343 736 290 735 q 365 647 361 676 l 365 203 q 369 164 365 174 q 393 143 374 154 l 461 104 l 456 0 l 39 0 l 35 128 z "},"í":{"ha":482,"x_min":35,"x_max":522,"o":"m 35 128 l 132 157 l 132 494 q 127 534 132 525 q 103 554 122 543 l 42 588 l 49 692 q 227 724 164 714 q 343 736 290 735 q 365 647 361 676 l 365 203 q 369 164 365 174 q 393 143 374 154 l 461 104 l 456 0 l 39 0 l 35 128 m 272 1050 l 522 1050 l 522 993 l 261 810 l 140 810 l 272 1050 z "},"î":{"ha":482,"x_min":-42,"x_max":513,"o":"m 35 128 l 132 157 l 132 494 q 127 534 132 525 q 103 554 122 543 l 42 588 l 49 692 q 227 724 164 714 q 343 736 290 735 q 365 647 361 676 l 365 203 q 369 164 365 174 q 393 143 374 154 l 461 104 l 456 0 l 39 0 l 35 128 m 132 1050 l 339 1050 l 513 810 l 397 810 l 235 911 l 74 810 l -42 810 l 132 1050 z "},"ï":{"ha":482,"x_min":-51,"x_max":519,"o":"m 35 128 l 132 157 l 132 494 q 127 534 132 525 q 103 554 122 543 l 42 588 l 49 692 q 227 724 164 714 q 343 736 290 735 q 365 647 361 676 l 365 203 q 369 164 365 174 q 393 143 374 154 l 461 104 l 456 0 l 39 0 l 35 128 m -51 1014 l 144 1067 l 192 893 l -4 840 l -51 1014 m 278 1014 l 472 1067 l 519 893 l 325 840 l 278 1014 z "},"ì":{"ha":482,"x_min":-50,"x_max":461,"o":"m 35 128 l 132 157 l 132 494 q 127 534 132 525 q 103 554 122 543 l 42 588 l 49 692 q 227 724 164 714 q 343 736 290 735 q 365 647 361 676 l 365 203 q 369 164 365 174 q 393 143 374 154 l 461 104 l 456 0 l 39 0 l 35 128 m -50 993 l -50 1050 l 200 1050 l 332 810 l 213 810 l -50 993 z "},"ī":{"ha":482,"x_min":21,"x_max":461,"o":"m 35 128 l 132 157 l 132 494 q 127 534 132 525 q 103 554 122 543 l 42 588 l 49 692 q 227 724 164 714 q 343 736 290 735 q 365 647 361 676 l 365 203 q 369 164 365 174 q 393 143 374 154 l 461 104 l 456 0 l 39 0 l 35 128 m 21 1001 l 446 985 l 446 860 l 21 847 l 21 1001 z "},"į":{"ha":482,"x_min":35,"x_max":461,"o":"m 93 1028 l 329 1090 l 386 879 l 151 815 l 93 1028 m 283 -315 q 140 -277 200 -315 q 79 -162 79 -239 q 189 0 79 -62 l 39 0 l 35 128 l 132 157 l 132 494 q 127 534 132 525 q 103 554 122 543 l 42 588 l 49 692 q 227 724 164 714 q 343 736 290 735 q 365 647 361 676 l 365 203 q 369 164 365 174 q 393 143 374 154 l 461 104 l 456 6 q 247 -61 328 -18 q 242 -100 242 -72 q 361 -201 242 -201 q 431 -192 392 -201 l 447 -275 q 283 -315 371 -315 z "},"j":{"ha":397,"x_min":-21,"x_max":344,"o":"m 50 1028 l 286 1090 l 344 879 l 107 815 l 50 1028 m 185 -315 q 76 -249 114 -278 q -21 -161 39 -221 l 90 -32 l 90 494 q 86 534 90 525 q 63 554 82 543 l 0 588 l 7 692 q 35 697 26 694 q 144 717 50 700 q 300 736 238 733 q 324 647 314 690 l 324 157 q 303 -79 324 15 q 224 -258 282 -174 l 185 -315 z "},"k":{"ha":860,"x_min":35,"x_max":853,"o":"m 36 132 l 122 157 l 122 822 q 118 862 122 853 q 96 882 114 871 l 35 914 l 39 1019 l 82 1026 q 339 1063 265 1060 q 357 990 351 1029 l 357 425 l 511 575 q 518 590 518 582 q 514 601 518 597 l 475 650 l 490 726 l 799 726 q 815 628 811 681 l 585 431 l 853 61 l 853 0 l 608 0 l 357 361 l 357 203 q 361 164 357 174 q 383 143 365 154 l 451 104 l 446 0 l 43 0 l 36 132 z "},"ķ":{"ha":860,"x_min":35,"x_max":853,"o":"m 36 132 l 122 157 l 122 822 q 118 862 122 853 q 96 882 114 871 l 35 914 l 39 1019 l 82 1026 q 339 1063 265 1060 q 357 990 351 1029 l 357 425 l 511 575 q 518 590 518 582 q 514 601 518 597 l 475 650 l 490 726 l 799 726 q 815 628 811 681 l 585 431 l 853 61 l 853 0 l 608 0 l 357 361 l 357 203 q 361 164 357 174 q 383 143 365 154 l 451 104 l 446 0 l 43 0 l 36 132 m 392 -82 l 640 -82 l 640 -139 l 379 -322 l 260 -322 l 392 -82 z "},"l":{"ha":475,"x_min":35,"x_max":461,"o":"m 35 128 l 132 157 l 132 822 q 127 862 132 853 q 103 882 122 871 l 42 914 l 49 1019 q 92 1026 76 1025 q 347 1063 275 1060 q 365 990 361 1031 l 365 203 q 369 164 365 174 q 393 143 374 154 l 461 104 l 456 0 l 39 0 l 35 128 z "},"ĺ":{"ha":475,"x_min":35,"x_max":533,"o":"m 35 128 l 132 157 l 132 822 q 127 862 132 853 q 103 882 122 871 l 42 914 l 49 1019 q 92 1026 76 1025 q 347 1063 275 1060 q 365 990 361 1031 l 365 203 q 369 164 365 174 q 393 143 374 154 l 461 104 l 456 0 l 39 0 l 35 128 m 283 1371 l 533 1371 l 533 1314 l 272 1131 l 151 1131 l 283 1371 z "},"ľ":{"ha":475,"x_min":35,"x_max":788,"o":"m 35 128 l 132 157 l 132 822 q 127 862 132 853 q 103 882 122 871 l 42 914 l 49 1019 q 92 1026 76 1025 q 347 1063 275 1060 q 365 990 361 1031 l 365 203 q 369 164 365 174 q 393 143 374 154 l 461 104 l 456 0 l 39 0 l 35 128 m 549 1049 l 788 1049 l 788 992 l 535 804 l 425 804 l 549 1049 z "},"ļ":{"ha":475,"x_min":8,"x_max":461,"o":"m 35 128 l 132 157 l 132 822 q 127 862 132 853 q 103 882 122 871 l 42 914 l 49 1019 q 92 1026 76 1025 q 347 1063 275 1060 q 365 990 361 1031 l 365 203 q 369 164 365 174 q 393 143 374 154 l 461 104 l 456 0 l 39 0 l 35 128 m 140 -82 l 389 -82 l 389 -139 l 128 -322 l 8 -322 l 140 -82 z "},"ł":{"ha":506,"x_min":39,"x_max":482,"o":"m 371 203 q 376 164 371 174 q 400 143 381 154 l 468 104 l 463 0 l 46 0 l 39 128 l 139 157 l 139 349 l 47 269 l 40 393 l 139 479 l 139 822 q 134 862 139 853 q 110 882 129 871 l 49 914 l 56 1019 q 99 1026 83 1025 q 354 1063 282 1060 q 371 990 367 1035 l 371 681 l 475 771 l 482 647 l 371 550 l 371 203 z "},"m":{"ha":1339,"x_min":35,"x_max":1325,"o":"m 36 132 l 122 157 l 122 494 q 118 534 122 525 q 96 554 114 543 l 35 588 l 39 692 l 76 699 q 329 736 247 733 q 347 676 340 707 q 476 726 422 711 q 574 740 529 740 q 675 720 628 740 q 746 667 722 700 q 888 723 825 706 q 1008 740 951 740 q 1176 675 1122 740 q 1231 476 1231 610 l 1231 203 q 1235 164 1231 174 q 1258 143 1239 154 l 1325 104 l 1319 0 l 942 0 l 935 132 l 1001 151 l 1001 414 q 998 499 1001 474 q 975 540 994 525 q 910 554 956 554 q 789 542 874 554 q 792 476 792 519 l 792 203 q 796 164 792 174 q 821 143 800 154 l 889 104 l 883 0 l 503 0 l 496 132 l 563 151 l 563 414 q 559 501 563 475 q 536 540 556 526 q 472 554 517 554 q 354 542 424 554 l 354 203 q 358 164 354 174 q 381 143 363 154 l 449 104 l 443 0 l 43 0 l 36 132 z "},"n":{"ha":917,"x_min":35,"x_max":904,"o":"m 36 133 l 122 158 l 122 494 q 118 534 122 525 q 96 554 114 543 l 35 588 l 39 692 l 69 697 q 332 736 251 733 q 350 672 343 707 q 488 726 435 711 q 589 740 542 740 q 810 476 810 740 l 810 204 q 814 165 810 175 q 838 144 818 156 l 904 106 l 899 1 l 515 1 l 508 133 l 576 153 l 576 415 q 572 503 576 478 q 549 542 568 528 q 483 556 531 556 q 357 540 433 556 l 357 204 q 361 165 357 175 q 383 144 365 156 l 451 106 l 446 1 l 43 1 l 36 133 z "},"ń":{"ha":917,"x_min":35,"x_max":904,"o":"m 36 133 l 122 158 l 122 494 q 118 534 122 525 q 96 554 114 543 l 35 588 l 39 692 l 69 697 q 332 736 251 733 q 350 672 343 707 q 488 726 435 711 q 589 740 542 740 q 810 476 810 740 l 810 204 q 814 165 810 175 q 838 144 818 156 l 904 106 l 899 1 l 515 1 l 508 133 l 576 153 l 576 415 q 572 503 576 478 q 549 542 568 528 q 483 556 531 556 q 357 540 433 556 l 357 204 q 361 165 357 175 q 383 144 365 156 l 451 106 l 446 1 l 43 1 l 36 133 m 490 1049 l 740 1049 l 740 992 l 479 808 l 358 808 l 490 1049 z "},"ň":{"ha":917,"x_min":35,"x_max":904,"o":"m 36 133 l 122 158 l 122 494 q 118 534 122 525 q 96 554 114 543 l 35 588 l 39 692 l 69 697 q 332 736 251 733 q 350 672 343 707 q 488 726 435 711 q 589 740 542 740 q 810 476 810 740 l 810 204 q 814 165 810 175 q 838 144 818 156 l 904 106 l 899 1 l 515 1 l 508 133 l 576 153 l 576 415 q 572 503 576 478 q 549 542 568 528 q 483 556 531 556 q 357 540 433 556 l 357 204 q 361 165 357 175 q 383 144 365 156 l 451 106 l 446 1 l 43 1 l 36 133 m 176 1049 l 292 1049 l 454 947 l 615 1049 l 731 1049 l 557 808 l 350 808 l 176 1049 z "},"ņ":{"ha":917,"x_min":35,"x_max":904,"o":"m 36 133 l 122 158 l 122 494 q 118 534 122 525 q 96 554 114 543 l 35 588 l 39 692 l 69 697 q 332 736 251 733 q 350 672 343 707 q 488 726 435 711 q 589 740 542 740 q 810 476 810 740 l 810 204 q 814 165 810 175 q 838 144 818 156 l 904 106 l 899 1 l 515 1 l 508 133 l 576 153 l 576 415 q 572 503 576 478 q 549 542 568 528 q 483 556 531 556 q 357 540 433 556 l 357 204 q 361 165 357 175 q 383 144 365 156 l 451 106 l 446 1 l 43 1 l 36 133 m 368 -75 l 617 -75 l 617 -132 l 356 -315 l 236 -315 l 368 -75 z "},"ŋ":{"ha":863,"x_min":35,"x_max":810,"o":"m 672 -315 q 564 -251 601 -279 q 468 -161 526 -222 l 576 -32 l 576 415 q 573 502 576 476 q 550 542 569 528 q 485 556 531 556 q 357 540 433 556 l 357 204 q 361 165 357 175 q 383 144 365 156 l 451 106 l 446 1 l 43 1 l 36 133 l 122 158 l 122 494 q 118 534 122 525 q 96 554 114 543 l 35 588 l 39 692 l 69 697 q 332 736 251 733 q 350 672 343 707 q 579 740 499 740 q 754 676 699 740 q 810 476 810 611 l 810 157 q 789 -83 810 6 q 710 -258 768 -172 l 672 -315 z "},"ñ":{"ha":917,"x_min":35,"x_max":904,"o":"m 36 133 l 122 158 l 122 494 q 118 534 122 525 q 96 554 114 543 l 35 588 l 39 692 l 69 697 q 332 736 251 733 q 350 672 343 707 q 488 726 435 711 q 589 740 542 740 q 810 476 810 740 l 810 204 q 814 165 810 175 q 838 144 818 156 l 904 106 l 899 1 l 515 1 l 508 133 l 576 153 l 576 415 q 572 503 576 478 q 549 542 568 528 q 483 556 531 556 q 357 540 433 556 l 357 204 q 361 165 357 175 q 383 144 365 156 l 451 106 l 446 1 l 43 1 l 36 133 m 556 828 q 426 858 513 828 q 371 876 399 868 q 325 883 343 883 q 306 869 317 879 q 283 840 296 858 l 207 840 q 266 985 229 939 q 360 1031 303 1031 q 417 1023 388 1031 q 489 1000 447 1015 q 531 986 496 997 q 592 975 565 975 q 608 990 599 979 q 632 1018 618 1001 l 708 1018 q 649 874 686 919 q 556 828 613 828 z "},"o":{"ha":768,"x_min":21,"x_max":743,"o":"m 371 -18 q 108 72 194 -18 q 21 349 21 163 q 65 557 21 468 q 190 693 108 646 q 383 740 272 740 q 743 368 743 740 q 645 84 743 186 q 371 -18 547 -18 m 393 144 q 442 149 421 144 q 486 165 463 154 q 500 247 494 197 q 506 343 506 297 q 470 514 506 456 q 365 572 435 572 q 272 560 319 572 q 257 492 263 539 q 251 386 251 446 q 288 207 251 269 q 393 144 325 144 z "},"ó":{"ha":768,"x_min":21,"x_max":743,"o":"m 371 -18 q 108 72 194 -18 q 21 349 21 163 q 65 557 21 468 q 190 693 108 646 q 383 740 272 740 q 743 368 743 740 q 645 84 743 186 q 371 -18 547 -18 m 393 144 q 442 149 421 144 q 486 165 463 154 q 500 247 494 197 q 506 343 506 297 q 470 514 506 456 q 365 572 435 572 q 272 560 319 572 q 257 492 263 539 q 251 386 251 446 q 288 207 251 269 q 393 144 325 144 m 424 1050 l 674 1050 l 674 993 l 413 810 l 292 810 l 424 1050 z "},"ô":{"ha":768,"x_min":21,"x_max":743,"o":"m 371 -18 q 108 72 194 -18 q 21 349 21 163 q 65 557 21 468 q 190 693 108 646 q 383 740 272 740 q 743 368 743 740 q 645 84 743 186 q 371 -18 547 -18 m 393 144 q 442 149 421 144 q 486 165 463 154 q 500 247 494 197 q 506 343 506 297 q 470 514 506 456 q 365 572 435 572 q 272 560 319 572 q 257 492 263 539 q 251 386 251 446 q 288 207 251 269 q 393 144 325 144 m 283 1050 l 490 1050 l 664 810 l 549 810 l 386 911 l 225 810 l 110 810 l 283 1050 z "},"ö":{"ha":768,"x_min":21,"x_max":743,"o":"m 371 -18 q 108 72 194 -18 q 21 349 21 163 q 65 557 21 468 q 190 693 108 646 q 383 740 272 740 q 743 368 743 740 q 645 84 743 186 q 371 -18 547 -18 m 393 144 q 442 149 421 144 q 486 165 463 154 q 500 247 494 197 q 506 343 506 297 q 470 514 506 456 q 365 572 435 572 q 272 560 319 572 q 257 492 263 539 q 251 386 251 446 q 288 207 251 269 q 393 144 325 144 m 100 1014 l 296 1067 l 343 893 l 147 840 l 100 1014 m 429 1014 l 624 1067 l 671 893 l 476 840 l 429 1014 z "},"ò":{"ha":768,"x_min":21,"x_max":743,"o":"m 371 -18 q 108 72 194 -18 q 21 349 21 163 q 65 557 21 468 q 190 693 108 646 q 383 740 272 740 q 743 368 743 740 q 645 84 743 186 q 371 -18 547 -18 m 393 144 q 442 149 421 144 q 486 165 463 154 q 500 247 494 197 q 506 343 506 297 q 470 514 506 456 q 365 572 435 572 q 272 560 319 572 q 257 492 263 539 q 251 386 251 446 q 288 207 251 269 q 393 144 325 144 m 101 993 l 101 1050 l 351 1050 l 483 810 l 364 810 l 101 993 z "},"ő":{"ha":768,"x_min":21,"x_max":781,"o":"m 371 -18 q 108 72 194 -18 q 21 349 21 163 q 65 557 21 468 q 190 693 108 646 q 383 740 272 740 q 743 368 743 740 q 645 84 743 186 q 371 -18 547 -18 m 393 144 q 442 149 421 144 q 486 165 463 154 q 500 247 494 197 q 506 343 506 297 q 470 514 506 456 q 365 572 435 572 q 272 560 319 572 q 257 492 263 539 q 251 386 251 446 q 288 207 251 269 q 393 144 325 144 m 256 1050 l 479 1050 l 479 993 l 243 810 l 124 810 l 256 1050 m 557 1050 l 781 1050 l 781 993 l 546 810 l 425 810 l 557 1050 z "},"ō":{"ha":768,"x_min":21,"x_max":743,"o":"m 371 -18 q 108 72 194 -18 q 21 349 21 163 q 65 557 21 468 q 190 693 108 646 q 383 740 272 740 q 743 368 743 740 q 645 84 743 186 q 371 -18 547 -18 m 393 144 q 442 149 421 144 q 486 165 463 154 q 500 247 494 197 q 506 343 506 297 q 470 514 506 456 q 365 572 435 572 q 272 560 319 572 q 257 492 263 539 q 251 386 251 446 q 288 207 251 269 q 393 144 325 144 m 172 1001 l 597 985 l 597 860 l 172 847 l 172 1001 z "},"ø":{"ha":768,"x_min":21,"x_max":743,"o":"m 626 671 q 743 368 743 579 q 645 84 743 186 q 371 -18 547 -18 q 215 4 281 -18 l 149 -104 l 31 -104 l 128 53 q 21 349 21 142 q 65 557 21 468 q 190 693 108 646 q 383 740 272 740 q 540 717 472 740 l 611 832 l 726 832 l 626 671 m 251 386 q 264 271 251 321 l 438 551 q 365 572 407 572 q 272 560 319 572 q 257 492 263 539 q 251 386 251 446 m 486 165 q 500 247 494 197 q 506 343 506 297 q 494 456 506 404 l 318 171 q 393 144 349 144 q 442 149 421 144 q 486 165 463 154 z "},"õ":{"ha":768,"x_min":21,"x_max":743,"o":"m 371 -18 q 108 72 194 -18 q 21 349 21 163 q 65 557 21 468 q 190 693 108 646 q 383 740 272 740 q 743 368 743 740 q 645 84 743 186 q 371 -18 547 -18 m 393 144 q 442 149 421 144 q 486 165 463 154 q 500 247 494 197 q 506 343 506 297 q 470 514 506 456 q 365 572 435 572 q 272 560 319 572 q 257 492 263 539 q 251 386 251 446 q 288 207 251 269 q 393 144 325 144 m 489 829 q 360 860 446 829 q 304 877 332 869 q 258 885 276 885 q 240 870 250 881 q 217 842 229 860 l 140 842 q 199 986 163 940 q 293 1032 236 1032 q 351 1024 321 1032 q 422 1001 381 1017 q 464 988 429 999 q 525 976 499 976 q 542 992 532 981 q 565 1019 551 1003 l 642 1019 q 583 875 619 921 q 489 829 546 829 z "},"œ":{"ha":1200,"x_min":21,"x_max":1172,"o":"m 371 -18 q 108 72 194 -18 q 21 349 21 163 q 65 557 21 468 q 190 693 108 646 q 383 740 272 740 q 626 669 536 740 q 847 740 719 740 q 1088 640 1004 740 q 1168 356 1172 540 l 747 278 q 800 192 764 219 q 894 165 836 165 q 990 177 935 165 q 1103 210 1046 189 l 1136 72 q 1002 8 1085 33 q 836 -17 919 -17 q 614 56 699 -17 q 371 -18 517 -18 m 940 472 q 915 545 938 518 q 853 574 892 572 l 829 575 q 758 563 790 575 q 733 415 731 494 l 940 472 m 393 144 q 442 149 421 144 q 486 165 463 154 q 500 247 494 197 q 506 343 506 297 q 470 514 506 456 q 365 572 435 572 q 272 560 319 572 q 257 492 263 539 q 251 386 251 446 q 288 207 251 269 q 393 144 325 144 z "},"p":{"ha":810,"x_min":-7,"x_max":782,"o":"m -3 -167 l 83 -143 l 83 494 q 79 534 83 525 q 56 554 75 543 l -7 588 l 0 692 q 14 694 7 693 q 29 697 21 696 q 167 722 94 710 q 288 736 240 733 q 304 669 300 707 q 397 722 347 704 q 494 740 446 740 q 708 642 633 740 q 782 364 782 544 q 679 77 782 176 q 382 -22 576 -22 q 317 -19 361 -22 l 317 -96 q 321 -136 317 -126 q 344 -156 325 -146 l 426 -201 l 421 -299 l 4 -299 l -3 -167 m 418 150 q 524 168 483 150 q 542 252 535 203 q 550 344 550 301 q 513 510 550 451 q 411 568 476 568 q 317 544 371 568 l 317 167 q 418 150 357 150 z "},"þ":{"ha":810,"x_min":-7,"x_max":782,"o":"m -3 -167 l 83 -143 l 83 821 q 79 861 83 851 q 56 882 75 871 l -7 914 l 0 1019 q 197 1052 133 1043 q 299 1063 261 1061 q 317 990 311 1031 l 317 679 q 499 740 401 740 q 707 641 632 740 q 782 371 782 542 q 680 78 782 178 q 383 -22 578 -22 q 317 -19 361 -22 l 317 -96 q 321 -136 317 -126 q 344 -156 325 -146 l 426 -201 l 421 -299 l 4 -299 l -3 -167 m 418 150 q 524 168 483 150 q 542 253 535 203 q 550 349 550 303 q 513 510 550 451 q 411 568 476 568 q 317 544 371 568 l 317 167 q 418 150 357 150 z "},"q":{"ha":799,"x_min":21,"x_max":794,"o":"m 368 -175 l 489 -143 l 489 4 q 343 -18 408 -18 q 101 78 181 -18 q 21 354 21 174 q 124 641 21 542 q 421 740 226 740 q 583 724 503 740 q 722 681 664 707 l 722 -96 q 726 -136 722 -126 q 751 -156 731 -146 l 794 -181 l 789 -299 l 372 -299 l 368 -175 m 383 154 q 430 160 407 154 q 488 182 453 167 l 488 543 q 374 564 442 564 q 281 550 318 564 q 263 479 269 525 q 256 379 256 433 q 289 212 256 269 q 383 154 322 154 z "},"r":{"ha":592,"x_min":35,"x_max":572,"o":"m 38 132 l 122 157 l 122 494 q 118 534 122 525 q 96 554 114 543 l 35 588 l 39 692 q 79 699 63 697 q 328 736 247 733 q 351 646 340 700 q 493 736 435 711 l 572 736 q 565 622 571 683 q 551 522 560 560 q 478 525 501 525 q 357 518 419 525 l 357 203 q 361 164 357 174 q 383 143 365 154 l 467 99 l 461 0 l 44 0 l 38 132 z "},"ŕ":{"ha":592,"x_min":35,"x_max":572,"o":"m 38 132 l 122 157 l 122 494 q 118 534 122 525 q 96 554 114 543 l 35 588 l 39 692 q 79 699 63 697 q 328 736 247 733 q 351 646 340 700 q 493 736 435 711 l 572 736 q 565 622 571 683 q 551 522 560 560 q 478 525 501 525 q 357 518 419 525 l 357 203 q 361 164 357 174 q 383 143 365 154 l 467 99 l 461 0 l 44 0 l 38 132 m 299 1049 l 549 1049 l 549 992 l 288 808 l 167 808 l 299 1049 z "},"ř":{"ha":592,"x_min":-15,"x_max":572,"o":"m 38 132 l 122 157 l 122 494 q 118 534 122 525 q 96 554 114 543 l 35 588 l 39 692 q 79 699 63 697 q 328 736 247 733 q 351 646 340 700 q 493 736 435 711 l 572 736 q 565 622 571 683 q 551 522 560 560 q 478 525 501 525 q 357 518 419 525 l 357 203 q 361 164 357 174 q 383 143 365 154 l 467 99 l 461 0 l 44 0 l 38 132 m -15 1049 l 100 1049 l 263 947 l 424 1049 l 539 1049 l 365 808 l 158 808 l -15 1049 z "},"ŗ":{"ha":592,"x_min":14,"x_max":572,"o":"m 38 132 l 122 157 l 122 494 q 118 534 122 525 q 96 554 114 543 l 35 588 l 39 692 q 79 699 63 697 q 328 736 247 733 q 351 646 340 700 q 493 736 435 711 l 572 736 q 565 622 571 683 q 551 522 560 560 q 478 525 501 525 q 357 518 419 525 l 357 203 q 361 164 357 174 q 383 143 365 154 l 467 99 l 461 0 l 44 0 l 38 132 m 146 -82 l 394 -82 l 394 -139 l 133 -322 l 14 -322 l 146 -82 z "},"s":{"ha":640,"x_min":39,"x_max":619,"o":"m 293 -24 q 39 15 183 -24 q 57 217 47 151 l 136 232 l 224 139 q 326 125 269 125 q 376 129 358 125 q 381 160 381 140 q 373 188 381 176 q 339 214 365 199 q 247 261 313 229 q 122 338 165 304 q 60 408 79 372 q 42 494 42 444 q 124 671 42 606 q 349 736 207 736 q 472 723 407 736 q 588 688 536 710 q 575 486 588 597 l 503 475 l 410 575 q 304 586 374 586 q 260 583 293 586 q 256 557 256 575 q 267 523 256 538 q 306 491 278 508 q 397 442 335 474 q 535 365 489 397 q 601 299 582 332 q 619 218 619 265 q 533 40 619 104 q 293 -24 446 -24 z "},"ś":{"ha":640,"x_min":39,"x_max":626,"o":"m 293 -24 q 39 15 183 -24 q 57 217 47 151 l 136 232 l 224 139 q 326 125 269 125 q 376 129 358 125 q 381 160 381 140 q 373 188 381 176 q 339 214 365 199 q 247 261 313 229 q 122 338 165 304 q 60 408 79 372 q 42 494 42 444 q 124 671 42 606 q 349 736 207 736 q 472 723 407 736 q 588 688 536 710 q 575 486 588 597 l 503 475 l 410 575 q 304 586 374 586 q 260 583 293 586 q 256 557 256 575 q 267 523 256 538 q 306 491 278 508 q 397 442 335 474 q 535 365 489 397 q 601 299 582 332 q 619 218 619 265 q 533 40 619 104 q 293 -24 446 -24 m 376 1050 l 626 1050 l 626 993 l 365 810 l 244 810 l 376 1050 z "},"š":{"ha":640,"x_min":39,"x_max":619,"o":"m 293 -24 q 39 15 183 -24 q 57 217 47 151 l 136 232 l 224 139 q 326 125 269 125 q 376 129 358 125 q 381 160 381 140 q 373 188 381 176 q 339 214 365 199 q 247 261 313 229 q 122 338 165 304 q 60 408 79 372 q 42 494 42 444 q 124 671 42 606 q 349 736 207 736 q 472 723 407 736 q 588 688 536 710 q 575 486 588 597 l 503 475 l 410 575 q 304 586 374 586 q 260 583 293 586 q 256 557 256 575 q 267 523 256 538 q 306 491 278 508 q 397 442 335 474 q 535 365 489 397 q 601 299 582 332 q 619 218 619 265 q 533 40 619 104 q 293 -24 446 -24 m 63 1050 l 178 1050 l 340 949 l 501 1050 l 617 1050 l 443 810 l 236 810 l 63 1050 z "},"ş":{"ha":640,"x_min":39,"x_max":619,"o":"m 619 218 q 540 47 619 110 q 319 -24 461 -17 l 293 -61 q 371 -81 326 -68 q 433 -117 413 -96 q 454 -175 454 -137 q 376 -288 454 -249 q 161 -328 297 -328 l 147 -276 q 239 -268 197 -276 q 300 -246 281 -260 q 303 -219 303 -229 q 282 -186 303 -196 q 193 -168 261 -176 l 193 -140 l 228 -21 q 39 15 140 -12 q 57 217 47 151 l 136 232 l 224 139 q 326 125 269 125 q 376 129 358 125 q 381 160 381 140 q 373 188 381 176 q 339 214 365 199 q 247 261 313 229 q 122 338 165 304 q 60 408 79 372 q 42 494 42 444 q 124 671 42 606 q 349 736 207 736 q 472 723 407 736 q 588 688 536 710 q 575 486 588 597 l 503 475 l 410 575 q 304 586 374 586 q 260 583 293 586 q 256 557 256 575 q 267 523 256 538 q 306 491 278 508 q 397 442 335 474 q 535 365 489 397 q 601 299 582 332 q 619 218 619 265 z "},"ș":{"ha":640,"x_min":39,"x_max":619,"o":"m 293 -24 q 39 15 183 -24 q 57 217 47 151 l 136 232 l 224 139 q 326 125 269 125 q 376 129 358 125 q 381 160 381 140 q 373 188 381 176 q 339 214 365 199 q 247 261 313 229 q 122 338 165 304 q 60 408 79 372 q 42 494 42 444 q 124 671 42 606 q 349 736 207 736 q 472 723 407 736 q 588 688 536 710 q 575 486 588 597 l 503 475 l 410 575 q 304 586 374 586 q 260 583 293 586 q 256 557 256 575 q 267 523 256 538 q 306 491 278 508 q 397 442 335 474 q 535 365 489 397 q 601 299 582 332 q 619 218 619 265 q 533 40 619 104 q 293 -24 446 -24 m 186 -87 l 435 -87 l 435 -144 l 174 -328 l 54 -328 l 186 -87 z "},"ß":{"ha":900,"x_min":35,"x_max":881,"o":"m 632 -22 q 421 21 539 -22 q 436 176 422 64 l 440 210 l 465 210 l 560 169 q 667 142 625 142 q 700 149 688 142 q 701 161 701 153 q 685 204 701 185 q 607 278 668 224 q 484 403 518 356 q 450 515 450 451 q 469 602 450 568 q 535 685 489 636 q 551 703 542 694 q 568 722 560 713 q 571 758 571 738 q 440 878 571 878 q 365 868 399 878 l 365 0 l 39 0 l 35 126 l 132 156 l 132 560 l 35 561 l 35 697 l 132 703 l 132 771 q 221 985 132 908 q 464 1063 310 1063 q 646 1025 571 1063 q 758 923 721 988 q 796 776 796 858 q 795 753 796 761 q 794 740 794 744 l 718 672 q 665 617 678 635 q 651 578 651 600 q 674 516 651 544 q 742 449 696 488 q 813 379 786 410 q 860 304 840 349 q 881 203 881 260 q 810 37 881 96 q 632 -22 739 -22 z "},"t":{"ha":578,"x_min":-28,"x_max":539,"o":"m 308 -18 q 128 42 186 -18 q 69 226 69 103 l 69 564 l -28 564 l -28 665 l 222 893 l 303 883 l 303 726 l 536 726 l 536 563 l 303 563 l 303 276 q 322 188 303 210 q 394 165 340 165 q 522 178 440 165 l 539 36 q 427 -3 489 13 q 308 -18 365 -18 z "},"ŧ":{"ha":578,"x_min":-28,"x_max":539,"o":"m 539 36 q 427 -3 489 13 q 308 -18 365 -18 q 128 42 186 -18 q 69 226 69 103 l 69 325 l -28 328 l -28 415 l 69 422 l 69 564 l -28 564 l -28 665 l 222 893 l 303 883 l 303 726 l 536 726 l 536 563 l 303 563 l 303 438 l 536 453 l 536 313 l 303 319 l 303 276 q 322 188 303 210 q 394 165 340 165 q 522 178 440 165 l 539 36 z "},"ť":{"ha":578,"x_min":-28,"x_max":842,"o":"m 601 1063 l 842 1063 l 842 1006 l 588 818 l 479 818 l 601 1063 m 308 -18 q 128 42 186 -18 q 69 226 69 103 l 69 564 l -28 564 l -28 665 l 222 893 l 303 883 l 303 726 l 536 726 l 536 563 l 303 563 l 303 276 q 322 188 303 210 q 394 165 340 165 q 522 178 440 165 l 539 36 q 427 -3 489 13 q 308 -18 365 -18 z "},"ţ":{"ha":578,"x_min":-28,"x_max":539,"o":"m 383 -75 q 446 -111 425 -90 q 467 -169 467 -132 q 388 -283 467 -243 q 174 -322 310 -322 l 160 -271 q 251 -262 210 -271 q 313 -240 293 -254 q 315 -214 315 -224 q 294 -181 315 -190 q 206 -162 274 -171 l 206 -135 l 242 -12 q 112 61 154 1 q 69 226 69 121 l 69 564 l -28 564 l -28 665 l 222 893 l 303 883 l 303 726 l 536 726 l 536 563 l 303 563 l 303 276 q 322 188 303 210 q 394 165 340 165 q 522 178 440 165 l 539 36 q 439 1 493 15 q 332 -17 385 -14 l 306 -56 q 383 -75 339 -62 z "},"ț":{"ha":578,"x_min":-28,"x_max":539,"o":"m 308 -18 q 128 42 186 -18 q 69 226 69 103 l 69 564 l -28 564 l -28 665 l 222 893 l 303 883 l 303 726 l 536 726 l 536 563 l 303 563 l 303 276 q 322 188 303 210 q 394 165 340 165 q 522 178 440 165 l 539 36 q 427 -3 489 13 q 308 -18 365 -18 m 199 -82 l 447 -82 l 447 -139 l 186 -322 l 67 -322 l 199 -82 z "},"u":{"ha":850,"x_min":-25,"x_max":831,"o":"m 286 -19 q 121 47 175 -19 q 67 246 67 113 l 67 494 q 62 534 67 525 q 38 554 57 543 l -25 588 l -18 692 q 10 697 1 694 q 119 717 25 700 q 275 736 213 733 q 299 656 290 701 l 299 306 q 302 219 299 244 q 324 181 306 194 q 389 168 343 168 q 518 192 456 168 l 518 494 q 514 534 518 525 q 492 554 510 543 l 431 588 l 436 692 q 612 724 549 713 q 728 736 675 735 q 751 656 743 701 l 751 200 q 756 165 751 175 q 775 146 760 156 l 831 114 l 826 28 q 689 1 767 13 q 544 -14 611 -11 q 532 28 539 3 q 525 54 531 39 l 521 54 q 401 1 464 21 q 286 -19 338 -19 z "},"ú":{"ha":850,"x_min":-25,"x_max":831,"o":"m 286 -19 q 121 47 175 -19 q 67 246 67 113 l 67 494 q 62 534 67 525 q 38 554 57 543 l -25 588 l -18 692 q 10 697 1 694 q 119 717 25 700 q 275 736 213 733 q 299 656 290 701 l 299 306 q 302 219 299 244 q 324 181 306 194 q 389 168 343 168 q 518 192 456 168 l 518 494 q 514 534 518 525 q 492 554 510 543 l 431 588 l 436 692 q 612 724 549 713 q 728 736 675 735 q 751 656 743 701 l 751 200 q 756 165 751 175 q 775 146 760 156 l 831 114 l 826 28 q 689 1 767 13 q 544 -14 611 -11 q 532 28 539 3 q 525 54 531 39 l 521 54 q 401 1 464 21 q 286 -19 338 -19 m 431 1049 l 681 1049 l 681 992 l 419 808 l 299 808 l 431 1049 z "},"û":{"ha":850,"x_min":-25,"x_max":831,"o":"m 286 -19 q 121 47 175 -19 q 67 246 67 113 l 67 494 q 62 534 67 525 q 38 554 57 543 l -25 588 l -18 692 q 10 697 1 694 q 119 717 25 700 q 275 736 213 733 q 299 656 290 701 l 299 306 q 302 219 299 244 q 324 181 306 194 q 389 168 343 168 q 518 192 456 168 l 518 494 q 514 534 518 525 q 492 554 510 543 l 431 588 l 436 692 q 612 724 549 713 q 728 736 675 735 q 751 656 743 701 l 751 200 q 756 165 751 175 q 775 146 760 156 l 831 114 l 826 28 q 689 1 767 13 q 544 -14 611 -11 q 532 28 539 3 q 525 54 531 39 l 521 54 q 401 1 464 21 q 286 -19 338 -19 m 290 1049 l 497 1049 l 671 808 l 556 808 l 393 910 l 232 808 l 117 808 l 290 1049 z "},"ü":{"ha":850,"x_min":-25,"x_max":831,"o":"m 286 -19 q 121 47 175 -19 q 67 246 67 113 l 67 494 q 62 534 67 525 q 38 554 57 543 l -25 588 l -18 692 q 10 697 1 694 q 119 717 25 700 q 275 736 213 733 q 299 656 290 701 l 299 306 q 302 219 299 244 q 324 181 306 194 q 389 168 343 168 q 518 192 456 168 l 518 494 q 514 534 518 525 q 492 554 510 543 l 431 588 l 436 692 q 612 724 549 713 q 728 736 675 735 q 751 656 743 701 l 751 200 q 756 165 751 175 q 775 146 760 156 l 831 114 l 826 28 q 689 1 767 13 q 544 -14 611 -11 q 532 28 539 3 q 525 54 531 39 l 521 54 q 401 1 464 21 q 286 -19 338 -19 m 107 1013 l 303 1065 l 350 892 l 154 839 l 107 1013 m 436 1013 l 631 1065 l 678 892 l 483 839 l 436 1013 z "},"ù":{"ha":850,"x_min":-25,"x_max":831,"o":"m 286 -19 q 121 47 175 -19 q 67 246 67 113 l 67 494 q 62 534 67 525 q 38 554 57 543 l -25 588 l -18 692 q 10 697 1 694 q 119 717 25 700 q 275 736 213 733 q 299 656 290 701 l 299 306 q 302 219 299 244 q 324 181 306 194 q 389 168 343 168 q 518 192 456 168 l 518 494 q 514 534 518 525 q 492 554 510 543 l 431 588 l 436 692 q 612 724 549 713 q 728 736 675 735 q 751 656 743 701 l 751 200 q 756 165 751 175 q 775 146 760 156 l 831 114 l 826 28 q 689 1 767 13 q 544 -14 611 -11 q 532 28 539 3 q 525 54 531 39 l 521 54 q 401 1 464 21 q 286 -19 338 -19 m 108 992 l 108 1049 l 358 1049 l 490 808 l 371 808 l 108 992 z "},"ű":{"ha":850,"x_min":-25,"x_max":831,"o":"m 286 -19 q 121 47 175 -19 q 67 246 67 113 l 67 494 q 62 534 67 525 q 38 554 57 543 l -25 588 l -18 692 q 10 697 1 694 q 119 717 25 700 q 275 736 213 733 q 299 656 290 701 l 299 306 q 302 219 299 244 q 324 181 306 194 q 389 168 343 168 q 518 192 456 168 l 518 494 q 514 534 518 525 q 492 554 510 543 l 431 588 l 436 692 q 612 724 549 713 q 728 736 675 735 q 751 656 743 701 l 751 200 q 756 165 751 175 q 775 146 760 156 l 831 114 l 826 28 q 689 1 767 13 q 544 -14 611 -11 q 532 28 539 3 q 525 54 531 39 l 521 54 q 401 1 464 21 q 286 -19 338 -19 m 263 1049 l 486 1049 l 486 992 l 250 808 l 131 808 l 263 1049 m 564 1049 l 788 1049 l 788 992 l 553 808 l 432 808 l 564 1049 z "},"ū":{"ha":850,"x_min":-25,"x_max":831,"o":"m 286 -19 q 121 47 175 -19 q 67 246 67 113 l 67 494 q 62 534 67 525 q 38 554 57 543 l -25 588 l -18 692 q 10 697 1 694 q 119 717 25 700 q 275 736 213 733 q 299 656 290 701 l 299 306 q 302 219 299 244 q 324 181 306 194 q 389 168 343 168 q 518 192 456 168 l 518 494 q 514 534 518 525 q 492 554 510 543 l 431 588 l 436 692 q 612 724 549 713 q 728 736 675 735 q 751 656 743 701 l 751 200 q 756 165 751 175 q 775 146 760 156 l 831 114 l 826 28 q 689 1 767 13 q 544 -14 611 -11 q 532 28 539 3 q 525 54 531 39 l 521 54 q 401 1 464 21 q 286 -19 338 -19 m 179 1000 l 604 983 l 604 858 l 179 846 l 179 1000 z "},"ų":{"ha":850,"x_min":-25,"x_max":831,"o":"m 647 -315 q 506 -278 567 -315 q 446 -167 446 -242 q 472 -72 446 -118 q 540 3 497 -25 l 528 54 l 521 54 q 401 1 464 21 q 286 -19 338 -19 q 121 47 175 -19 q 67 246 67 113 l 67 494 q 62 534 67 525 q 38 554 57 543 l -25 588 l -18 692 q 10 697 1 694 q 119 717 25 700 q 275 736 213 733 q 299 656 290 707 l 299 306 q 302 219 299 244 q 324 181 306 194 q 389 168 343 168 q 518 192 447 168 l 518 494 q 514 534 518 525 q 492 554 510 543 l 431 588 l 436 692 q 612 724 549 713 q 728 736 675 735 q 751 656 743 707 l 751 200 q 756 165 751 175 q 775 146 760 156 l 831 114 l 829 35 q 617 -56 679 -12 q 610 -103 610 -83 q 729 -201 610 -201 q 796 -192 760 -201 l 814 -275 q 647 -315 738 -315 z "},"ů":{"ha":850,"x_min":-25,"x_max":831,"o":"m 286 -19 q 121 47 175 -19 q 67 246 67 113 l 67 494 q 62 534 67 525 q 38 554 57 543 l -25 588 l -18 692 q 10 697 1 694 q 119 717 25 700 q 275 736 213 733 q 299 656 290 701 l 299 306 q 302 219 299 244 q 324 181 306 194 q 389 168 343 168 q 518 192 456 168 l 518 494 q 514 534 518 525 q 492 554 510 543 l 431 588 l 436 692 q 612 724 549 713 q 728 736 675 735 q 751 656 743 701 l 751 200 q 756 165 751 175 q 775 146 760 156 l 831 114 l 826 28 q 689 1 767 13 q 544 -14 611 -11 q 532 28 539 3 q 525 54 531 39 l 521 54 q 401 1 464 21 q 286 -19 338 -19 m 390 810 q 263 842 303 810 q 222 943 222 874 q 269 1046 222 1007 q 394 1085 317 1085 q 563 950 563 1085 q 517 847 563 883 q 390 810 472 810 m 396 885 q 438 890 424 885 q 446 942 446 926 q 388 1006 446 1006 q 347 1003 358 1006 q 339 954 339 983 q 353 903 339 921 q 396 885 368 885 z "},"v":{"ha":740,"x_min":-46,"x_max":708,"o":"m 19 536 q -1 585 4 574 q -22 615 -7 596 l -46 646 l -39 726 l 311 726 l 325 608 l 244 589 l 371 231 l 493 560 q 496 572 496 568 q 483 589 496 585 l 418 617 l 431 726 l 694 726 l 708 614 l 433 -3 l 233 -18 l 19 536 z "},"w":{"ha":1128,"x_min":-37,"x_max":1096,"o":"m 28 536 q 7 585 13 574 q -14 615 1 596 l -37 646 l -31 726 l 321 726 l 335 608 l 258 590 l 353 253 l 490 715 l 633 735 l 792 240 l 881 560 q 883 572 883 568 q 871 589 883 585 l 804 617 l 818 726 l 1082 726 l 1096 618 l 857 -7 l 657 -22 l 542 364 l 415 -7 l 215 -22 l 28 536 z "},"ẃ":{"ha":1128,"x_min":-37,"x_max":1096,"o":"m 28 536 q 7 585 13 574 q -14 615 1 596 l -37 646 l -31 726 l 321 726 l 335 608 l 258 590 l 353 253 l 490 715 l 633 735 l 792 240 l 881 560 q 883 572 883 568 q 871 589 883 585 l 804 617 l 818 726 l 1082 726 l 1096 618 l 857 -7 l 657 -22 l 542 364 l 415 -7 l 215 -22 l 28 536 m 613 1050 l 863 1050 l 863 993 l 601 810 l 481 810 l 613 1050 z "},"ŵ":{"ha":1128,"x_min":-37,"x_max":1096,"o":"m 28 536 q 7 585 13 574 q -14 615 1 596 l -37 646 l -31 726 l 321 726 l 335 608 l 258 590 l 353 253 l 490 715 l 633 735 l 792 240 l 881 560 q 883 572 883 568 q 871 589 883 585 l 804 617 l 818 726 l 1082 726 l 1096 618 l 857 -7 l 657 -22 l 542 364 l 415 -7 l 215 -22 l 28 536 m 472 1050 l 679 1050 l 853 810 l 738 810 l 575 911 l 414 810 l 299 810 l 472 1050 z "},"ẅ":{"ha":1128,"x_min":-37,"x_max":1096,"o":"m 28 536 q 7 585 13 574 q -14 615 1 596 l -37 646 l -31 726 l 321 726 l 335 608 l 258 590 l 353 253 l 490 715 l 633 735 l 792 240 l 881 560 q 883 572 883 568 q 871 589 883 585 l 804 617 l 818 726 l 1082 726 l 1096 618 l 857 -7 l 657 -22 l 542 364 l 415 -7 l 215 -22 l 28 536 m 289 1014 l 485 1067 l 532 893 l 336 840 l 289 1014 m 618 1014 l 813 1067 l 860 893 l 665 840 l 618 1014 z "},"ẁ":{"ha":1128,"x_min":-37,"x_max":1096,"o":"m 28 536 q 7 585 13 574 q -14 615 1 596 l -37 646 l -31 726 l 321 726 l 335 608 l 258 590 l 353 253 l 490 715 l 633 735 l 792 240 l 881 560 q 883 572 883 568 q 871 589 883 585 l 804 617 l 818 726 l 1082 726 l 1096 618 l 857 -7 l 657 -22 l 542 364 l 415 -7 l 215 -22 l 28 536 m 290 993 l 290 1050 l 540 1050 l 672 810 l 553 810 l 290 993 z "},"x":{"ha":806,"x_min":35,"x_max":785,"o":"m 35 104 l 264 368 l 81 607 q 56 635 67 625 q 40 649 44 646 l 47 726 l 419 726 l 426 619 l 371 607 l 467 483 l 535 581 q 540 596 540 588 q 532 610 540 606 l 485 633 l 492 726 l 764 726 l 771 621 l 557 365 l 743 124 q 785 74 774 85 l 778 0 l 394 0 l 388 101 l 456 118 l 354 250 l 276 146 q 271 131 271 139 q 279 117 271 121 l 326 93 l 319 0 l 39 0 l 35 104 z "},"y":{"ha":746,"x_min":-42,"x_max":711,"o":"m 249 -318 q 71 -146 149 -251 l 225 6 l 24 536 q 3 585 8 574 q -18 615 -3 596 l -42 646 l -35 726 l 321 726 l 335 608 l 254 589 l 368 240 l 496 560 q 499 572 499 568 q 488 589 499 585 l 422 617 l 435 726 l 699 726 l 711 614 l 533 226 q 375 -103 438 17 q 249 -318 313 -222 z "},"ý":{"ha":746,"x_min":-42,"x_max":711,"o":"m 249 -318 q 71 -146 149 -251 l 225 6 l 24 536 q 3 585 8 574 q -18 615 -3 596 l -42 646 l -35 726 l 321 726 l 335 608 l 254 589 l 368 240 l 496 560 q 499 572 499 568 q 488 589 499 585 l 422 617 l 435 726 l 699 726 l 711 614 l 533 226 q 375 -103 438 17 q 249 -318 313 -222 m 414 1050 l 664 1050 l 664 993 l 403 810 l 282 810 l 414 1050 z "},"ŷ":{"ha":746,"x_min":-42,"x_max":711,"o":"m 249 -318 q 71 -146 149 -251 l 225 6 l 24 536 q 3 585 8 574 q -18 615 -3 596 l -42 646 l -35 726 l 321 726 l 335 608 l 254 589 l 368 240 l 496 560 q 499 572 499 568 q 488 589 499 585 l 422 617 l 435 726 l 699 726 l 711 614 l 533 226 q 375 -103 438 17 q 249 -318 313 -222 m 274 1050 l 481 1050 l 654 810 l 539 810 l 376 911 l 215 810 l 100 810 l 274 1050 z "},"ÿ":{"ha":746,"x_min":-42,"x_max":711,"o":"m 249 -318 q 71 -146 149 -251 l 225 6 l 24 536 q 3 585 8 574 q -18 615 -3 596 l -42 646 l -35 726 l 321 726 l 335 608 l 254 589 l 368 240 l 496 560 q 499 572 499 568 q 488 589 499 585 l 422 617 l 435 726 l 699 726 l 711 614 l 533 226 q 375 -103 438 17 q 249 -318 313 -222 m 90 1014 l 286 1067 l 333 893 l 138 840 l 90 1014 m 419 1014 l 614 1067 l 661 893 l 467 840 l 419 1014 z "},"ỳ":{"ha":746,"x_min":-42,"x_max":711,"o":"m 249 -318 q 71 -146 149 -251 l 225 6 l 24 536 q 3 585 8 574 q -18 615 -3 596 l -42 646 l -35 726 l 321 726 l 335 608 l 254 589 l 368 240 l 496 560 q 499 572 499 568 q 488 589 499 585 l 422 617 l 435 726 l 699 726 l 711 614 l 533 226 q 375 -103 438 17 q 249 -318 313 -222 m 92 993 l 92 1050 l 342 1050 l 474 810 l 354 810 l 92 993 z "},"z":{"ha":711,"x_min":35,"x_max":683,"o":"m 35 143 l 394 567 l 226 554 l 156 460 l 63 475 q 85 726 74 636 l 644 726 l 664 563 l 331 160 l 506 172 l 588 269 l 683 250 q 657 0 676 144 l 47 0 l 35 143 z "},"ź":{"ha":711,"x_min":35,"x_max":683,"o":"m 35 143 l 394 567 l 226 554 l 156 460 l 63 475 q 85 726 74 636 l 644 726 l 664 563 l 331 160 l 506 172 l 588 269 l 683 250 q 657 0 676 144 l 47 0 l 35 143 m 408 1050 l 658 1050 l 658 993 l 397 810 l 276 810 l 408 1050 z "},"ž":{"ha":711,"x_min":35,"x_max":683,"o":"m 35 143 l 394 567 l 226 554 l 156 460 l 63 475 q 85 726 74 636 l 644 726 l 664 563 l 331 160 l 506 172 l 588 269 l 683 250 q 657 0 676 144 l 47 0 l 35 143 m 94 1050 l 210 1050 l 372 949 l 533 1050 l 649 1050 l 475 810 l 268 810 l 94 1050 z "},"ż":{"ha":711,"x_min":35,"x_max":683,"o":"m 35 143 l 394 567 l 226 554 l 156 460 l 63 475 q 85 726 74 636 l 644 726 l 664 563 l 331 160 l 506 172 l 588 269 l 683 250 q 657 0 676 144 l 47 0 l 35 143 m 239 1006 l 435 1058 l 482 885 l 286 832 l 239 1006 z "},"ﬁ":{"ha":1050,"x_min":35,"x_max":1029,"o":"m 661 1014 l 897 1076 l 956 865 l 719 801 l 661 1014 m 35 128 l 132 157 l 132 564 l 35 565 l 35 701 l 132 707 l 132 797 q 205 992 132 922 q 407 1063 278 1063 q 594 1044 492 1063 l 563 856 q 456 878 501 872 q 365 883 411 885 l 365 719 l 933 729 l 933 203 q 938 164 933 174 q 961 143 942 154 l 1029 104 l 1025 0 l 608 0 l 601 128 l 700 157 l 700 494 q 694 535 700 525 q 661 560 688 546 l 365 561 l 365 203 q 369 164 365 174 q 393 143 374 154 l 479 96 l 475 0 l 39 0 l 35 128 z "},"ﬂ":{"ha":1035,"x_min":35,"x_max":1024,"o":"m 35 128 l 132 157 l 132 564 l 35 565 l 35 701 l 132 707 l 132 799 q 166 944 132 882 q 265 1035 200 1006 q 439 1064 328 1064 q 559 1058 496 1064 q 725 1039 622 1051 q 908 1063 854 1061 q 926 990 921 1029 l 926 203 q 931 164 926 174 q 956 143 936 154 l 1024 104 l 1018 0 l 601 0 l 594 128 l 694 157 l 694 825 q 613 846 657 832 q 479 876 529 867 q 365 885 415 888 l 365 719 l 524 729 l 524 558 l 365 561 l 365 203 q 369 164 365 174 q 393 143 374 154 l 479 96 l 475 0 l 39 0 l 35 128 z "},"ª":{"ha":551,"x_min":60,"x_max":492,"o":"m 186 513 q 97 543 131 513 q 64 624 64 574 q 130 723 64 686 q 315 761 196 760 q 310 818 315 800 q 288 842 304 836 q 238 849 272 849 q 194 847 207 849 l 160 783 l 100 786 q 81 919 85 868 q 179 945 125 936 q 285 954 233 954 q 403 920 367 954 q 439 810 439 886 l 439 640 q 442 622 439 626 q 456 610 444 617 l 488 590 l 483 540 q 338 514 397 519 l 325 560 q 258 525 296 538 q 186 513 221 513 m 238 604 q 317 626 269 604 l 315 688 l 290 688 q 236 683 265 688 q 194 674 207 679 q 190 654 190 665 q 203 617 190 631 q 238 604 215 604 m 60 433 l 492 433 l 492 367 l 60 367 l 60 433 z "},"º":{"ha":553,"x_min":61,"x_max":493,"o":"m 271 513 q 117 565 167 513 q 67 726 67 618 q 124 893 67 832 q 279 954 181 954 q 486 739 486 954 q 429 572 486 632 q 271 513 372 513 m 285 608 q 338 619 307 608 q 349 722 349 660 q 267 857 349 857 q 213 847 246 857 q 205 808 208 836 q 201 750 201 781 q 285 608 201 608 m 61 433 l 493 433 l 493 367 l 61 367 l 61 433 z "},"π":{"ha":1253,"x_min":49,"x_max":1192,"o":"m 931 -22 q 801 16 849 -22 q 754 138 754 54 q 758 186 754 161 l 815 601 l 596 601 l 524 0 l 263 0 l 361 601 l 254 601 q 246 507 246 556 q 249 450 246 489 q 51 417 138 424 q 49 488 49 442 q 129 710 49 636 q 374 786 210 785 l 1192 786 l 1165 601 l 1057 601 l 1007 251 q 1003 204 1003 226 q 1024 150 1003 164 q 1099 136 1044 136 l 1079 1 q 931 -22 997 -22 z "},"א":{"ha":853,"x_min":53,"x_max":800,"o":"m 269 401 l 279 14 l 132 -10 l 68 -10 l 68 69 q 103 456 79 286 q 108 513 108 490 q 103 543 108 531 q 82 576 97 556 l 53 617 q 133 793 100 740 l 190 801 l 299 688 l 576 399 q 604 531 604 513 q 599 549 604 542 q 576 567 593 556 l 486 626 q 524 708 488 642 q 579 801 560 775 l 619 801 q 688 764 632 796 q 774 691 747 731 q 800 600 800 651 q 693 276 800 524 l 786 182 q 708 -15 751 78 l 656 -15 l 269 401 z "},"ב":{"ha":717,"x_min":39,"x_max":692,"o":"m 51 232 l 428 232 l 428 329 q 426 400 428 367 q 417 476 424 450 q 391 519 411 503 q 328 535 371 535 l 160 535 q 61 558 138 535 q 99 800 71 686 l 193 817 l 218 789 q 241 770 231 774 q 279 767 251 767 l 374 767 q 515 740 465 767 q 585 653 564 714 q 606 478 606 592 q 594 232 606 390 l 692 232 l 679 0 l 39 0 l 51 232 z "},"ג":{"ha":507,"x_min":14,"x_max":461,"o":"m 14 -25 q 24 228 17 103 l 269 281 l 256 385 q 241 464 247 442 q 223 497 235 486 q 181 524 211 508 l 63 579 q 132 794 93 693 l 168 806 q 321 742 278 764 q 387 695 364 719 q 421 631 410 671 q 438 519 432 592 q 461 25 450 382 l 347 -15 l 308 -15 q 293 96 297 64 q 63 -25 201 40 l 14 -25 z "},"ד":{"ha":732,"x_min":25,"x_max":708,"o":"m 374 78 q 381 535 374 281 l 124 535 q 25 558 101 535 q 63 800 33 674 l 157 817 l 182 789 q 205 770 194 774 q 243 767 215 767 l 708 767 l 672 535 l 560 535 l 574 11 l 428 -17 l 374 -17 l 374 78 z "},"ה":{"ha":853,"x_min":63,"x_max":778,"o":"m 596 -17 q 594 68 596 35 q 588 418 594 297 q 574 490 585 465 q 542 525 564 515 q 476 535 519 535 l 161 535 q 63 558 139 535 q 100 800 72 686 l 194 817 l 219 789 q 242 770 232 774 q 281 767 253 767 l 531 767 q 684 738 632 767 q 757 641 736 710 q 778 440 778 572 q 774 224 778 347 q 763 11 769 100 l 654 -17 l 596 -17 m 92 379 l 233 406 l 290 407 l 289 11 l 143 -17 l 85 -17 l 92 379 z "},"ו":{"ha":450,"x_min":22,"x_max":383,"o":"m 188 399 q 185 473 188 454 q 172 501 182 492 q 131 528 163 511 l 22 579 q 76 790 46 711 l 117 807 q 281 735 232 763 q 361 656 339 704 q 383 519 383 608 q 365 11 383 414 l 242 -18 l 188 -18 l 188 399 z "},"ז":{"ha":525,"x_min":22,"x_max":500,"o":"m 192 -17 q 172 139 188 10 q 146 488 146 375 l 146 528 q 22 558 60 542 q 61 800 25 688 l 156 817 l 181 789 q 203 770 193 774 q 242 767 214 767 l 257 767 q 453 774 321 767 l 500 776 q 489 676 500 756 q 465 535 478 596 q 353 524 428 529 l 315 521 q 330 431 318 485 q 344 361 342 376 q 362 274 347 346 q 385 138 376 203 q 386 96 386 124 l 385 17 q 328 0 371 10 q 236 -17 286 -10 l 192 -17 z "},"ח":{"ha":850,"x_min":56,"x_max":775,"o":"m 597 -18 q 596 122 596 15 q 589 419 593 344 q 576 491 586 467 q 542 525 565 515 q 476 535 519 535 l 294 535 l 296 11 l 153 -14 l 100 -14 q 113 436 103 158 l 114 482 q 109 524 114 514 q 86 551 104 535 l 56 579 q 74 666 61 621 q 113 785 86 711 l 157 797 l 214 775 q 245 768 228 769 q 333 767 263 767 l 528 767 q 681 738 629 767 q 754 642 733 710 q 775 442 775 574 q 771 224 775 347 q 760 11 767 100 l 651 -18 l 597 -18 z "},"ט":{"ha":801,"x_min":28,"x_max":750,"o":"m 90 506 q 83 549 88 536 q 58 585 78 561 l 28 622 q 106 799 57 719 l 144 804 q 215 761 174 792 q 274 690 258 729 q 288 568 289 651 l 278 229 q 361 240 314 232 q 436 257 408 249 q 524 296 494 274 q 567 355 554 318 q 579 457 579 392 q 570 527 579 510 q 531 550 561 544 l 376 579 q 424 803 394 706 l 465 803 q 610 775 524 796 q 717 713 683 758 q 750 585 750 668 q 718 338 750 499 q 657 113 686 178 q 462 33 586 69 q 206 -18 338 -3 l 138 -18 l 90 506 z "},"י":{"ha":411,"x_min":14,"x_max":364,"o":"m 89 250 l 138 442 q 147 493 147 472 q 138 516 147 506 q 101 544 129 526 l 14 603 q 104 800 47 699 l 135 810 q 160 796 151 801 q 239 753 207 772 q 336 673 308 711 q 364 581 364 635 q 342 464 364 526 q 272 269 314 372 l 128 235 l 89 250 z "},"ך":{"ha":672,"x_min":44,"x_max":600,"o":"m 415 401 q 409 490 415 463 q 386 526 403 517 q 329 535 369 535 l 143 535 q 44 558 121 535 q 82 800 54 686 l 176 817 l 201 789 q 224 770 214 774 q 263 767 235 767 l 342 767 q 502 745 449 767 q 576 669 556 724 q 599 501 597 614 l 600 401 q 585 -176 600 114 l 476 -204 l 417 -204 l 415 401 z "},"כ":{"ha":700,"x_min":38,"x_max":633,"o":"m 58 232 l 460 232 q 451 417 460 283 q 436 490 447 465 q 399 525 425 515 q 324 535 374 535 l 164 535 q 65 558 142 535 q 103 800 75 686 l 197 817 l 222 789 q 245 770 235 774 q 283 767 256 767 l 408 767 q 553 728 504 767 q 617 617 601 690 q 633 419 633 544 q 621 142 633 261 q 604 0 614 65 l 38 0 l 58 232 z "},"ל":{"ha":651,"x_min":28,"x_max":610,"o":"m 94 -12 q 88 118 88 61 q 94 240 88 189 q 317 370 229 313 q 432 461 404 428 q 430 510 433 494 q 416 531 426 525 q 382 536 406 536 q 140 540 175 536 q 60 580 85 546 q 31 693 36 614 q 28 792 28 743 q 35 1007 28 924 q 129 1034 75 1022 q 208 1046 183 1046 q 224 893 214 1013 l 228 836 q 235 793 231 806 q 252 776 240 781 q 293 771 264 772 l 347 769 q 453 767 386 769 q 570 714 531 763 q 610 575 610 665 q 138 -12 610 289 l 94 -12 z "},"ם":{"ha":890,"x_min":61,"x_max":818,"o":"m 117 439 l 117 481 q 113 527 117 517 q 90 554 108 538 l 61 582 q 78 665 67 622 q 117 788 89 708 l 161 800 l 218 778 q 256 772 232 772 q 339 771 279 771 l 581 771 q 726 744 675 771 q 797 653 776 717 q 818 471 818 589 q 815 218 818 365 q 806 0 811 71 l 111 0 l 117 439 m 647 232 l 647 279 q 643 421 647 367 q 631 495 639 471 q 603 528 622 519 q 542 539 583 538 l 293 539 l 307 232 l 647 232 z "},"מ":{"ha":835,"x_min":53,"x_max":767,"o":"m 56 53 q 113 385 67 139 q 129 474 124 438 q 133 511 133 499 q 128 528 133 522 q 101 547 122 535 l 53 576 q 94 794 64 694 l 126 804 l 189 781 q 263 755 243 760 q 303 750 282 750 q 403 761 322 750 q 461 768 417 763 q 529 774 506 774 q 661 744 607 774 q 738 657 715 714 q 761 550 756 613 q 767 389 767 488 q 763 176 767 271 l 747 0 l 371 0 l 381 232 l 600 232 q 590 419 600 303 q 576 500 586 474 q 542 538 565 526 q 474 549 519 549 q 313 540 408 549 q 298 387 304 460 q 286 261 292 314 l 264 15 q 122 -10 185 -6 l 57 -10 l 56 53 z "},"ן":{"ha":465,"x_min":28,"x_max":396,"o":"m 193 397 q 191 472 193 454 q 179 499 189 490 q 136 525 169 508 l 28 578 q 82 792 50 710 l 122 804 q 293 733 244 761 q 356 683 335 711 q 387 610 378 656 q 396 488 396 565 q 390 201 396 408 q 376 -183 385 -6 l 243 -206 l 196 -206 l 193 397 z "},"נ":{"ha":497,"x_min":21,"x_max":431,"o":"m 33 232 l 257 232 q 247 382 251 328 q 238 460 243 438 q 222 496 233 483 q 182 524 211 508 l 60 588 q 138 799 78 651 l 174 806 q 324 733 278 761 q 388 683 367 708 q 417 619 408 658 q 429 506 426 579 q 431 378 431 471 q 422 0 431 138 l 21 0 l 33 232 z "},"ס":{"ha":824,"x_min":28,"x_max":775,"o":"m 140 -18 q 97 438 113 194 q 91 508 94 488 q 81 541 88 529 q 58 568 75 553 l 28 599 q 47 678 31 624 q 85 792 63 732 l 128 800 l 185 778 q 215 771 199 772 q 301 769 232 769 l 465 771 q 565 769 536 771 q 726 716 678 767 q 775 549 775 665 q 749 334 775 456 q 682 125 722 213 q 224 -17 532 19 l 140 -18 m 281 232 q 457 260 399 243 q 572 326 539 282 q 604 450 604 369 q 591 517 604 500 q 535 538 578 533 q 401 540 514 540 q 268 539 289 540 l 281 232 z "},"ע":{"ha":754,"x_min":21,"x_max":710,"o":"m 582 772 q 682 703 654 744 q 710 589 710 663 q 678 374 710 521 q 614 150 646 226 q 393 17 544 88 q 75 -99 242 -53 l 21 -99 l 21 122 q 231 190 150 160 l 142 490 q 121 537 132 524 q 65 576 110 550 l 24 603 q 100 793 57 707 l 139 803 q 201 774 179 786 q 291 701 264 743 q 335 572 318 660 q 392 250 353 481 q 496 335 469 283 q 525 488 522 386 q 519 534 525 522 q 488 558 513 546 l 407 599 q 482 799 449 721 l 513 799 q 582 772 554 785 z "},"ף":{"ha":739,"x_min":50,"x_max":669,"o":"m 493 -49 q 488 425 490 294 q 462 509 486 485 q 369 546 438 533 l 238 571 q 232 479 232 499 q 238 449 232 457 q 263 433 243 442 l 336 397 q 294 190 326 293 q 143 247 194 221 q 71 306 92 272 q 50 394 50 340 q 73 572 50 456 q 124 793 96 689 l 181 806 q 450 760 283 794 q 610 689 563 736 q 664 543 657 642 q 669 272 669 486 q 663 -181 669 -17 l 544 -204 l 493 -204 l 493 -49 z "},"פ":{"ha":758,"x_min":49,"x_max":692,"o":"m 60 225 l 519 225 q 513 440 521 324 q 503 502 510 482 q 479 532 496 522 q 425 549 463 542 q 253 574 317 567 l 254 546 q 261 501 256 511 q 288 482 267 492 l 344 458 q 327 367 339 419 q 301 271 315 314 q 163 317 207 297 q 100 364 118 338 q 78 439 82 390 q 85 563 75 478 q 115 789 94 647 l 181 806 q 486 768 350 790 q 616 720 574 753 q 675 620 658 688 q 692 422 692 553 q 685 197 692 322 q 669 0 678 71 l 49 0 l 60 225 z "},"ץ":{"ha":719,"x_min":11,"x_max":674,"o":"m 674 606 q 638 463 674 547 q 510 203 601 378 q 660 -68 590 54 l 544 -207 l 494 -207 q 97 490 385 -11 l 11 640 q 122 797 64 729 l 167 804 q 426 351 213 739 q 481 529 481 499 q 475 548 481 540 q 454 569 469 556 l 367 635 q 467 803 419 742 l 507 803 q 579 758 532 789 q 674 606 674 697 z "},"צ":{"ha":753,"x_min":31,"x_max":704,"o":"m 704 603 q 683 506 704 558 q 582 271 650 415 l 649 182 q 625 0 639 83 l 50 0 l 68 232 l 404 229 q 122 501 228 390 q 31 660 82 546 q 118 797 71 743 l 175 806 l 394 521 l 476 407 q 511 538 511 526 q 506 556 511 549 q 483 574 500 563 l 396 633 q 492 806 449 751 l 524 806 l 597 761 q 678 690 653 728 q 704 603 704 651 z "},"ק":{"ha":800,"x_min":63,"x_max":756,"o":"m 392 -3 q 386 182 386 76 l 386 240 q 529 391 490 347 q 581 461 568 435 q 572 521 582 507 q 531 535 563 535 l 161 535 q 63 558 139 535 q 100 800 72 686 l 194 817 l 219 789 q 242 770 232 774 q 281 767 253 767 l 586 765 q 711 717 667 765 q 756 581 756 668 q 681 303 756 446 q 451 -3 607 160 l 392 -3 m 71 -150 q 81 410 71 144 l 215 425 l 256 425 q 274 -10 274 213 q 271 -172 274 -86 l 117 -204 l 71 -204 l 71 -150 z "},"ר":{"ha":686,"x_min":35,"x_max":617,"o":"m 431 -17 q 429 97 431 50 q 425 418 429 329 q 403 510 424 486 q 329 535 382 535 l 133 535 q 35 558 111 535 q 72 800 44 686 l 167 817 l 192 789 q 215 770 204 774 q 253 767 225 767 l 372 767 q 520 741 468 767 q 594 653 572 715 q 617 475 615 590 q 611 240 617 376 q 597 11 606 104 l 490 -17 l 431 -17 z "},"ש":{"ha":958,"x_min":31,"x_max":907,"o":"m 338 394 l 386 507 q 403 557 403 544 q 397 573 403 567 q 372 593 390 579 l 324 631 q 411 799 371 731 l 444 803 q 485 779 460 796 q 532 746 511 763 q 572 698 558 725 q 586 642 586 671 q 550 508 586 593 q 472 349 514 424 q 338 329 411 332 l 338 394 m 83 513 q 76 550 82 538 q 54 589 71 563 l 31 625 q 106 794 61 717 l 138 800 q 203 761 167 788 q 267 686 251 725 q 281 567 283 647 l 272 228 q 454 244 392 233 q 617 289 557 260 q 703 367 676 318 q 731 493 731 417 q 724 545 731 532 q 693 568 717 558 l 625 597 q 686 801 665 750 l 718 801 l 775 785 q 876 723 844 764 q 907 611 907 682 q 872 367 907 524 q 807 138 838 210 q 681 65 764 97 q 483 13 597 32 q 210 -15 328 -15 l 131 -15 l 83 513 z "},"ת":{"ha":871,"x_min":42,"x_max":801,"o":"m 615 -17 q 611 413 615 306 q 603 494 608 469 q 581 526 597 518 q 528 535 565 535 l 333 535 q 385 221 385 268 q 378 118 385 199 l 364 0 l 49 0 l 61 232 l 206 232 q 124 536 179 349 q 42 558 111 539 q 79 800 51 686 l 174 817 l 199 789 q 222 770 211 774 q 260 767 232 767 l 579 767 q 713 738 665 767 q 781 645 761 710 q 801 465 801 581 q 786 13 801 204 l 671 -17 l 615 -17 z "},"שׁ":{"ha":978,"x_min":31,"x_max":926,"o":"m 751 940 l 864 1004 l 926 903 l 817 839 l 751 940 m 344 394 l 394 507 q 411 557 411 544 q 405 574 411 567 q 379 593 399 581 l 331 631 q 419 799 372 719 l 453 803 q 543 746 485 789 q 583 698 569 725 q 597 642 597 671 q 561 510 597 593 q 482 349 525 426 q 344 329 418 331 l 344 394 m 85 513 q 78 550 83 538 q 56 589 72 563 l 31 625 q 108 794 65 722 l 140 800 q 207 761 172 786 q 273 686 257 725 q 286 567 289 647 l 278 228 q 464 244 399 233 q 682 323 618 267 q 746 493 746 379 q 738 544 746 531 q 707 568 731 558 l 638 597 q 700 801 675 739 l 732 801 l 790 785 q 893 723 861 764 q 925 611 925 682 q 890 367 925 524 q 824 138 854 211 q 694 65 779 97 q 493 13 610 32 q 214 -15 333 -15 l 133 -15 l 85 513 z "},"שׂ":{"ha":978,"x_min":31,"x_max":925,"o":"m 100 942 l 213 1006 l 275 904 l 165 840 l 100 942 m 344 394 l 394 507 q 411 557 411 544 q 405 574 411 567 q 379 593 399 581 l 331 631 q 419 799 372 719 l 453 803 q 543 746 485 789 q 583 698 569 725 q 597 642 597 671 q 561 510 597 593 q 482 349 525 426 q 344 329 418 331 l 344 394 m 85 513 q 78 550 83 538 q 56 589 72 563 l 31 625 q 108 794 65 722 l 140 800 q 207 761 172 786 q 273 686 257 725 q 286 567 289 647 l 278 228 q 464 244 399 233 q 682 323 618 267 q 746 493 746 379 q 738 544 746 531 q 707 568 731 558 l 638 597 q 700 801 675 739 l 732 801 l 790 785 q 893 723 861 764 q 925 611 925 682 q 890 367 925 524 q 824 138 854 211 q 694 65 779 97 q 493 13 610 32 q 214 -15 333 -15 l 133 -15 l 85 513 z "},"שּׁ":{"ha":978,"x_min":31,"x_max":926,"o":"m 751 940 l 864 1004 l 926 903 l 817 839 l 751 940 m 344 394 l 394 507 q 411 557 411 544 q 405 574 411 567 q 379 593 399 581 l 331 631 q 419 799 372 719 l 453 803 q 543 746 485 789 q 583 698 569 725 q 597 642 597 671 q 561 510 597 593 q 482 349 525 426 q 344 329 418 331 l 344 394 m 85 513 q 78 550 83 538 q 56 589 72 563 l 31 625 q 108 794 65 722 l 140 800 q 207 761 172 786 q 273 686 257 725 q 286 567 289 647 l 278 228 q 464 244 399 233 q 682 323 618 267 q 746 493 746 379 q 738 544 746 531 q 707 568 731 558 l 638 597 q 700 801 675 739 l 732 801 l 790 785 q 893 723 861 764 q 925 611 925 682 q 890 367 925 524 q 824 138 854 211 q 694 65 779 97 q 493 13 610 32 q 214 -15 333 -15 l 133 -15 l 85 513 m 535 433 l 647 497 l 710 394 l 600 331 l 535 433 z "},"שּׂ":{"ha":978,"x_min":31,"x_max":925,"o":"m 100 942 l 213 1006 l 275 904 l 165 840 l 100 942 m 344 394 l 394 507 q 411 557 411 544 q 405 574 411 567 q 379 593 399 581 l 331 631 q 419 799 372 719 l 453 803 q 543 746 485 789 q 583 698 569 725 q 597 642 597 671 q 561 510 597 593 q 482 349 525 426 q 344 329 418 331 l 344 394 m 85 513 q 78 550 83 538 q 56 589 72 563 l 31 625 q 108 794 65 722 l 140 800 q 207 761 172 786 q 273 686 257 725 q 286 567 289 647 l 278 228 q 464 244 399 233 q 682 323 618 267 q 746 493 746 379 q 738 544 746 531 q 707 568 731 558 l 638 597 q 700 801 675 739 l 732 801 l 790 785 q 893 723 861 764 q 925 611 925 682 q 890 367 925 524 q 824 138 854 211 q 694 65 779 97 q 493 13 610 32 q 214 -15 333 -15 l 133 -15 l 85 513 m 535 433 l 647 497 l 710 394 l 600 331 l 535 433 z "},"אַ":{"ha":869,"x_min":54,"x_max":817,"o":"m 275 401 l 285 14 l 135 -10 l 69 -10 l 69 69 q 104 456 81 286 q 111 514 111 500 q 106 542 111 531 q 83 576 100 554 l 54 617 q 136 793 99 735 l 194 801 l 346 647 q 588 399 425 565 q 617 531 617 508 q 610 549 617 542 q 588 567 604 556 l 496 626 q 534 708 497 642 q 590 801 571 775 l 632 801 q 701 764 657 789 q 790 691 763 731 q 817 600 817 651 q 707 276 817 524 l 801 182 q 722 -15 764 74 l 668 -15 l 275 401 m 268 -92 l 582 -92 l 582 -176 l 268 -187 l 268 -92 z "},"אָ":{"ha":869,"x_min":54,"x_max":817,"o":"m 275 401 l 285 14 l 135 -10 l 69 -10 l 69 69 q 104 456 81 286 q 111 514 111 500 q 106 542 111 531 q 83 576 100 554 l 54 617 q 136 793 99 735 l 194 801 l 346 647 q 588 399 425 565 q 617 531 617 508 q 610 549 617 542 q 588 567 604 556 l 496 626 q 534 708 497 642 q 590 801 571 775 l 632 801 q 701 764 657 789 q 790 691 763 731 q 817 600 817 651 q 707 276 817 524 l 801 182 q 722 -15 764 74 l 668 -15 l 275 401 m 388 -183 l 268 -187 l 268 -92 l 582 -92 l 582 -176 l 464 -181 l 472 -336 l 378 -336 l 388 -183 z "},"אּ":{"ha":869,"x_min":54,"x_max":817,"o":"m 275 401 l 285 14 l 135 -10 l 69 -10 l 69 69 q 104 456 81 286 q 111 514 111 500 q 106 542 111 531 q 83 576 100 554 l 54 617 q 136 793 99 735 l 194 801 l 346 647 q 588 399 425 565 q 617 531 617 508 q 610 549 617 542 q 588 567 604 556 l 496 626 q 534 708 497 642 q 590 801 571 775 l 632 801 q 701 764 657 789 q 790 691 763 731 q 817 600 817 651 q 707 276 817 524 l 801 182 q 722 -15 764 74 l 668 -15 l 275 401 m 304 142 l 417 206 l 479 103 l 369 39 l 304 142 z "},"בּ":{"ha":731,"x_min":40,"x_max":706,"o":"m 53 232 l 436 232 l 436 329 q 435 400 436 367 q 426 476 432 450 q 399 519 419 503 q 335 535 378 535 l 163 535 q 63 558 140 535 q 100 800 72 686 l 197 817 l 222 789 q 245 770 235 774 q 285 767 256 767 l 381 767 q 524 740 474 767 q 597 653 575 714 q 618 478 618 592 q 607 232 618 390 l 706 232 l 693 0 l 40 0 l 53 232 m 153 396 l 265 460 l 328 357 l 218 293 l 153 396 z "},"גּ":{"ha":517,"x_min":14,"x_max":471,"o":"m 14 -25 q 24 228 17 103 l 275 281 l 261 385 q 245 464 251 442 q 227 497 239 486 q 185 524 215 508 l 64 579 q 135 794 92 681 l 171 806 q 328 742 278 765 q 395 695 372 719 q 429 631 418 671 q 446 519 440 592 q 471 25 460 358 l 354 -15 l 314 -15 q 299 96 303 64 q 64 -25 204 40 l 14 -25 m 33 411 l 146 475 l 208 372 l 99 308 l 33 411 z "},"דּ":{"ha":747,"x_min":25,"x_max":722,"o":"m 381 78 q 388 535 381 281 l 126 535 q 25 558 103 535 q 64 800 33 665 l 160 817 l 186 789 q 209 770 199 774 q 247 767 219 767 l 722 767 l 686 535 l 571 535 l 585 11 l 436 -17 l 381 -17 l 381 78 m 149 382 l 261 446 l 324 343 l 214 279 l 149 382 z "},"הּ":{"ha":869,"x_min":64,"x_max":793,"o":"m 608 -17 q 607 58 608 28 q 599 418 607 299 q 585 490 596 465 q 552 525 575 515 q 486 535 529 535 l 164 535 q 64 558 142 535 q 101 800 74 686 l 199 817 l 224 789 q 247 770 236 774 q 286 767 257 767 l 542 767 q 698 738 644 767 q 772 641 751 710 q 793 440 793 572 q 789 224 793 347 q 778 11 785 100 l 667 -17 l 608 -17 m 93 379 l 238 406 l 296 407 l 294 11 l 146 -17 l 86 -17 l 93 379 m 367 335 l 479 399 l 542 296 l 432 232 l 367 335 z "},"וּ":{"ha":458,"x_min":-25,"x_max":392,"o":"m 192 399 q 189 473 192 454 q 176 501 186 492 q 133 528 165 511 l 22 579 q 78 790 49 715 l 119 807 q 286 735 238 763 q 369 656 346 704 q 392 518 392 608 q 372 11 392 446 l 246 -18 l 192 -18 l 192 399 m -25 354 l 88 418 l 150 315 l 40 251 l -25 354 z "},"זּ":{"ha":536,"x_min":22,"x_max":557,"o":"m 185 63 q 175 139 179 117 q 149 488 149 375 l 149 528 q 22 558 61 542 q 63 800 25 683 l 158 817 l 185 789 q 208 770 197 774 q 246 767 218 767 l 263 767 q 461 774 329 767 l 510 776 q 499 676 510 756 q 475 535 488 596 q 363 524 438 529 q 322 521 347 524 q 353 356 326 478 q 370 269 356 339 q 393 138 385 200 q 394 96 394 124 l 393 17 q 335 0 378 10 q 240 -17 292 -10 l 196 -17 l 185 63 m 382 429 l 494 493 l 557 390 l 447 326 l 382 429 z "},"טּ":{"ha":818,"x_min":28,"x_max":765,"o":"m 92 506 q 84 549 89 536 q 60 585 79 561 l 28 622 q 108 799 61 725 l 147 804 q 219 761 181 790 q 279 690 264 729 q 293 568 294 651 l 283 229 q 369 240 321 232 q 444 257 417 249 q 535 296 504 274 q 578 355 565 318 q 590 457 590 392 q 581 527 590 510 q 542 550 572 544 l 383 579 q 432 803 404 707 l 475 803 q 622 775 535 794 q 731 713 697 758 q 765 585 765 668 q 733 338 765 497 q 669 113 700 178 q 470 33 597 69 q 210 -18 343 -3 l 140 -18 l 92 506 m 339 435 l 451 499 l 514 396 l 404 332 l 339 435 z "},"יּ":{"ha":419,"x_min":-90,"x_max":371,"o":"m 90 250 l 140 442 q 150 493 150 472 q 141 516 150 506 q 103 544 132 526 l 14 603 q 106 800 50 700 l 138 810 l 172 790 l 243 753 q 342 673 314 711 q 371 581 371 635 q 349 464 371 526 q 278 269 325 385 l 131 235 l 90 250 m -90 451 l 22 515 l 85 413 l -25 349 l -90 451 z "},"ךּ":{"ha":686,"x_min":46,"x_max":613,"o":"m 424 401 q 417 490 424 464 q 394 526 411 517 q 336 535 376 535 l 146 535 q 46 558 122 535 q 83 800 56 686 l 181 817 l 206 789 q 228 770 218 774 q 268 767 239 767 l 349 767 q 513 745 458 767 q 588 669 567 724 q 611 501 610 614 l 613 403 q 596 -176 613 140 l 486 -204 l 425 -204 l 424 401 m 169 399 l 282 463 l 344 360 l 235 296 l 169 399 z "},"כּ":{"ha":714,"x_min":39,"x_max":646,"o":"m 60 232 l 469 232 q 460 417 469 292 q 444 490 456 465 q 406 525 432 515 q 331 535 381 535 l 167 535 q 67 558 144 535 q 104 800 76 686 l 201 817 l 226 789 q 250 771 239 775 q 289 767 261 767 l 417 767 q 565 728 515 767 q 630 617 614 690 q 646 419 646 544 q 633 142 646 261 q 617 0 626 65 l 39 0 l 60 232 m 176 399 l 289 463 l 351 360 l 242 296 l 176 399 z "},"לּ":{"ha":664,"x_min":28,"x_max":622,"o":"m 96 -12 q 89 118 89 61 q 96 240 89 189 q 324 370 235 313 q 440 461 413 428 q 438 510 442 494 q 424 531 435 525 q 389 536 414 536 q 143 540 179 536 q 62 580 86 546 q 31 693 38 614 q 28 792 28 743 q 35 1007 28 924 q 132 1034 76 1022 q 213 1046 188 1046 q 228 893 218 1013 l 232 836 q 240 793 235 806 q 257 776 244 781 q 299 771 269 772 l 354 769 q 463 767 393 769 q 581 714 540 763 q 622 575 622 665 q 140 -12 622 289 l 96 -12 m 103 443 l 215 507 l 278 404 l 168 340 l 103 443 z "},"מּ":{"ha":851,"x_min":54,"x_max":782,"o":"m 57 53 q 113 369 69 143 l 132 474 q 136 511 136 499 q 130 529 136 524 q 103 547 124 535 l 54 576 q 96 794 65 694 l 129 804 l 193 781 q 268 755 249 760 q 308 750 288 750 q 411 761 328 750 q 540 774 518 774 q 674 744 619 774 q 753 657 729 714 q 776 550 771 613 q 782 389 782 488 q 778 176 782 271 l 763 0 l 378 0 l 388 232 l 613 232 q 601 419 613 319 q 587 500 597 474 q 553 538 576 526 q 483 549 531 549 q 318 540 417 549 q 303 387 310 460 q 292 261 297 314 l 269 15 q 125 -10 188 -6 l 58 -10 l 57 53 m 368 401 l 481 465 l 543 363 l 433 299 l 368 401 z "},"נּ":{"ha":507,"x_min":21,"x_max":439,"o":"m 33 232 l 263 232 q 253 382 257 328 q 242 460 247 438 q 226 496 238 483 q 186 524 215 508 l 61 588 q 99 698 75 638 q 129 771 124 758 q 134 784 132 776 q 140 799 136 792 l 176 806 q 331 733 279 763 q 396 683 375 708 q 426 619 417 658 q 438 506 435 579 q 439 378 439 471 q 431 0 439 138 l 21 0 l 33 232 m 22 404 l 135 468 l 197 365 l 88 301 l 22 404 z "},"סּ":{"ha":824,"x_min":28,"x_max":775,"o":"m 140 -18 q 97 438 113 194 q 91 508 94 488 q 81 541 88 529 q 58 568 75 553 l 28 599 q 47 678 31 624 q 85 792 63 732 l 128 800 l 185 778 q 215 771 199 772 q 301 769 232 769 l 465 771 q 565 769 536 771 q 726 716 678 767 q 775 549 775 665 q 749 334 775 456 q 682 125 722 213 q 224 -17 532 19 l 140 -18 m 281 232 q 457 260 399 243 q 572 326 539 282 q 604 450 604 369 q 591 517 604 500 q 535 538 578 533 q 401 540 514 540 q 268 539 289 540 l 281 232 m 339 418 l 450 482 l 511 379 l 403 315 l 339 418 z "},"ףּ":{"ha":754,"x_min":51,"x_max":683,"o":"m 503 -49 q 497 425 500 294 q 471 509 496 485 q 376 546 446 533 l 242 571 q 236 479 236 499 q 242 449 236 457 q 268 433 247 442 l 343 397 q 300 190 333 289 q 145 247 197 221 q 72 306 93 272 q 51 394 51 340 q 67 517 51 438 q 126 793 82 597 l 185 806 q 458 760 293 793 q 582 719 536 744 q 650 651 628 693 q 678 543 672 610 q 683 272 683 486 q 676 -181 683 -17 l 556 -204 l 503 -204 l 503 -49 m 331 463 l 424 515 l 475 429 l 385 376 l 331 463 z "},"פּ":{"ha":774,"x_min":50,"x_max":706,"o":"m 61 225 l 529 225 q 522 440 531 324 q 513 502 519 482 q 488 532 506 522 q 433 549 471 542 q 258 574 328 567 l 260 546 q 267 501 261 511 q 293 482 272 492 l 351 458 q 333 365 346 418 q 307 271 321 313 q 165 317 211 297 q 101 364 119 338 q 79 439 83 390 q 118 789 74 506 l 185 806 q 496 768 358 790 q 628 720 585 753 q 688 620 671 688 q 706 422 706 553 q 699 197 706 322 q 683 0 692 71 l 50 0 l 61 225 m 356 340 l 449 393 l 500 307 l 410 254 l 356 340 z "},"צּ":{"ha":768,"x_min":31,"x_max":718,"o":"m 718 603 q 697 506 718 558 q 594 271 669 429 l 661 182 q 638 0 651 83 l 51 0 l 69 232 l 413 229 q 125 501 244 379 q 31 660 86 542 q 121 797 74 747 l 179 806 l 403 521 l 486 408 q 521 538 521 525 q 515 556 521 549 q 493 574 510 563 l 404 633 q 501 806 456 749 l 535 806 l 610 761 q 692 690 667 728 q 718 603 718 651 m 121 251 l 56 354 l 168 418 l 231 315 l 121 251 z "},"קּ":{"ha":817,"x_min":64,"x_max":771,"o":"m 400 -3 q 394 182 394 76 l 394 240 q 540 392 501 350 q 592 461 579 435 q 583 521 593 507 q 542 535 574 535 l 164 535 q 64 558 142 535 q 101 800 74 686 l 199 817 l 224 789 q 247 770 236 774 q 286 767 257 767 l 597 765 q 725 717 679 765 q 771 581 771 668 q 694 303 771 446 q 460 -3 618 160 l 400 -3 m 311 433 l 424 497 l 486 394 l 376 331 l 311 433 m 72 -150 q 82 410 72 144 l 219 425 l 261 425 q 279 -10 279 213 q 276 -172 279 -86 l 119 -204 l 72 -204 l 72 -150 z "},"רּ":{"ha":700,"x_min":35,"x_max":629,"o":"m 439 -17 q 438 97 439 50 q 433 418 438 329 q 411 510 432 486 q 336 535 390 535 l 136 535 q 35 558 113 535 q 74 800 47 692 l 169 817 l 196 789 q 219 770 208 774 q 258 767 229 767 l 379 767 q 531 741 478 767 q 606 653 583 715 q 629 475 628 590 q 624 240 629 376 q 610 11 618 104 l 500 -17 l 439 -17 m 146 353 l 258 417 l 321 314 l 211 250 l 146 353 z "},"שּ":{"ha":978,"x_min":31,"x_max":925,"o":"m 344 394 l 394 507 q 411 557 411 544 q 405 574 411 567 q 379 593 399 581 l 331 631 q 419 799 372 719 l 453 803 q 543 746 485 789 q 583 698 569 725 q 597 642 597 671 q 561 510 597 593 q 482 349 525 426 q 344 329 418 331 l 344 394 m 85 513 q 78 550 83 538 q 56 589 72 563 l 31 625 q 108 794 65 722 l 140 800 q 207 761 172 786 q 273 686 257 725 q 286 567 289 647 l 278 228 q 464 244 399 233 q 682 323 618 267 q 746 493 746 379 q 738 544 746 531 q 707 568 731 558 l 638 597 q 700 801 675 739 l 732 801 l 790 785 q 893 723 861 764 q 925 611 925 682 q 890 367 925 524 q 824 138 854 211 q 694 65 779 97 q 493 13 610 32 q 214 -15 333 -15 l 133 -15 l 85 513 m 535 433 l 647 497 l 710 394 l 600 331 l 535 433 z "},"תּ":{"ha":889,"x_min":43,"x_max":818,"o":"m 628 -17 q 624 413 628 306 q 615 494 621 469 q 593 526 610 518 q 539 535 576 535 l 340 535 q 393 221 393 261 q 389 161 393 199 l 385 118 l 371 0 l 50 0 l 63 232 l 210 232 q 126 536 188 329 q 43 558 111 539 q 81 800 53 686 l 176 817 l 203 789 q 226 770 215 774 q 265 767 236 767 l 590 767 q 727 738 678 767 q 797 645 776 710 q 818 465 818 581 q 813 231 818 357 q 801 13 808 104 l 685 -17 l 628 -17 m 413 365 l 525 429 l 588 326 l 478 263 l 413 365 z "},"וֹ":{"ha":458,"x_min":22,"x_max":392,"o":"m 179 938 l 292 1001 l 354 900 l 244 836 l 179 938 m 192 399 q 189 473 192 454 q 176 501 186 492 q 133 528 165 511 l 22 579 q 78 790 49 715 l 119 807 q 286 735 238 763 q 369 656 346 704 q 392 518 392 608 q 372 11 392 446 l 246 -18 l 192 -18 l 192 399 z "},"⁄":{"ha":590,"x_min":0,"x_max":590,"o":"m 510 975 l 590 975 l 83 -121 l 0 -121 l 510 975 z "},"½":{"ha":1193,"x_min":83,"x_max":1110,"o":"m 813 975 l 893 975 l 385 -121 l 304 -121 l 813 975 m 83 497 l 182 517 l 182 725 q 179 748 182 743 q 160 763 176 753 l 83 804 l 92 867 l 263 917 l 339 910 l 339 546 q 342 519 339 525 q 357 506 344 513 l 424 474 l 421 403 l 86 403 l 83 497 m 744 107 q 842 182 747 110 q 956 269 907 229 q 961 310 961 286 q 943 356 961 342 q 888 369 925 369 q 772 361 843 369 l 769 397 l 781 490 q 922 508 857 508 q 1054 472 1006 508 q 1103 371 1103 435 q 1060 247 1103 301 q 914 117 1018 193 l 1072 146 l 1110 146 l 1097 0 l 749 0 l 744 107 z "},"¼":{"ha":1207,"x_min":83,"x_max":1124,"o":"m 813 975 l 893 975 l 385 -121 l 304 -121 l 813 975 m 83 497 l 182 517 l 182 725 q 179 748 182 743 q 160 763 176 753 l 83 804 l 92 867 l 263 917 l 339 910 l 339 546 q 342 519 339 525 q 357 506 344 513 l 424 474 l 421 403 l 86 403 l 83 497 m 907 88 l 683 88 l 661 185 l 869 503 l 1039 488 l 1044 217 l 1124 217 l 1104 88 l 1044 88 l 1044 0 l 938 -22 l 907 -22 l 907 88 m 907 217 l 907 383 l 810 217 l 907 217 z "},"¾":{"ha":1211,"x_min":83,"x_max":1128,"o":"m 817 975 l 897 975 l 389 -121 l 308 -121 l 817 975 m 215 386 q 83 421 142 386 l 133 532 l 174 532 q 279 514 219 514 q 349 526 322 514 q 329 583 349 564 q 268 606 310 603 q 226 607 256 606 q 167 611 196 608 q 192 703 175 651 q 289 718 258 711 q 290 743 290 728 q 278 777 290 768 q 239 786 267 786 q 129 776 185 786 l 124 807 l 132 892 q 265 917 207 917 q 388 887 340 917 q 435 808 435 857 q 382 703 435 764 q 448 664 428 690 q 468 592 468 638 q 434 488 468 535 q 342 413 400 440 q 215 386 285 386 m 910 88 l 688 88 l 665 185 l 874 503 l 1042 488 l 1049 217 l 1128 217 l 1107 88 l 1049 88 l 1049 0 l 940 -22 l 910 -22 l 910 88 m 910 217 l 910 383 l 814 217 l 910 217 z "},"¹":{"ha":507,"x_min":83,"x_max":424,"o":"m 83 663 l 182 682 l 182 890 q 179 913 182 908 q 160 928 176 918 l 83 968 l 92 1031 l 263 1082 l 339 1075 l 339 710 q 342 684 339 690 q 357 671 344 678 l 424 639 l 421 567 l 86 567 l 83 663 z "},"²":{"ha":528,"x_min":83,"x_max":444,"o":"m 83 675 l 179 750 q 290 836 253 806 q 294 878 294 849 q 276 924 294 910 q 218 938 257 938 q 106 928 172 938 l 101 965 l 115 1057 q 253 1076 188 1076 q 386 1038 338 1076 q 435 933 435 1000 q 394 817 435 868 q 251 686 353 767 l 408 713 l 444 713 l 436 567 l 86 567 l 83 675 z "},"³":{"ha":554,"x_min":83,"x_max":471,"o":"m 215 551 q 83 583 139 551 l 136 696 l 174 696 q 281 678 228 678 q 349 692 324 678 q 331 747 349 729 q 271 768 313 765 l 229 771 q 204 772 219 771 q 167 775 189 772 q 194 868 174 807 l 231 872 q 290 882 286 881 q 292 907 292 892 q 280 941 292 932 q 240 950 268 950 q 131 940 185 950 l 125 969 l 135 1056 q 268 1081 210 1081 q 388 1050 342 1081 q 435 971 435 1019 q 383 868 435 925 q 450 826 429 853 q 471 756 471 800 q 437 652 471 699 q 344 578 403 606 q 215 551 285 551 z "},"*":{"ha":647,"x_min":90,"x_max":557,"o":"m 254 674 l 139 635 l 90 717 l 182 796 l 90 875 l 138 960 l 254 919 l 275 1039 l 372 1039 l 394 919 l 508 960 l 557 876 l 467 797 l 557 718 l 510 635 l 394 674 l 372 556 l 275 556 l 254 674 z "},"\\":{"ha":426,"x_min":4,"x_max":422,"o":"m 4 1047 l 97 1047 l 422 -85 l 328 -85 l 4 1047 z "},"·":{"ha":372,"x_min":68,"x_max":304,"o":"m 68 515 l 256 567 l 304 394 l 117 344 l 68 515 z "},"•":{"ha":531,"x_min":75,"x_max":456,"o":"m 265 272 q 170 298 214 272 q 101 367 126 324 q 75 463 75 411 q 101 558 75 514 q 170 627 126 601 q 265 653 214 653 q 360 627 317 653 q 430 558 404 601 q 456 463 456 514 q 430 367 456 411 q 360 298 404 324 q 265 272 317 272 z "},":":{"ha":478,"x_min":104,"x_max":378,"o":"m 104 633 l 319 689 l 375 493 l 161 436 l 104 633 m 107 154 l 322 210 l 378 14 l 164 -43 l 107 154 z "},",":{"ha":381,"x_min":56,"x_max":326,"o":"m 94 -239 q 146 -110 135 -142 q 157 -62 157 -79 q 151 -35 157 -47 q 129 -10 144 -24 l 56 64 q 203 229 115 168 q 279 158 244 199 q 326 53 326 107 q 319 3 326 26 q 292 -68 311 -19 q 201 -239 257 -143 l 94 -239 z "},"…":{"ha":1197,"x_min":67,"x_max":1131,"o":"m 67 143 l 267 196 l 318 13 l 119 -40 l 67 143 m 474 143 l 674 196 l 725 13 l 526 -40 l 474 143 m 879 143 l 1079 196 l 1131 13 l 932 -40 l 879 143 z "},"!":{"ha":458,"x_min":97,"x_max":364,"o":"m 97 947 l 281 969 l 346 969 l 299 301 l 154 301 l 97 947 m 104 149 l 313 203 l 364 11 l 157 -44 l 104 149 z "},"¡":{"ha":458,"x_min":94,"x_max":361,"o":"m 94 731 l 301 786 l 354 593 l 146 539 l 94 731 m 160 440 l 304 440 l 361 -206 l 178 -228 l 113 -228 l 160 440 z "},"#":{"ha":864,"x_min":63,"x_max":801,"o":"m 206 239 l 63 239 l 96 322 l 242 322 l 290 438 l 147 438 l 186 521 l 326 521 l 385 657 l 515 657 l 446 521 l 546 521 l 604 657 l 732 657 l 663 521 l 801 521 l 763 438 l 618 438 l 561 322 l 711 322 l 676 239 l 521 239 l 447 103 l 368 103 l 425 239 l 307 239 l 231 103 l 147 103 l 206 239 m 463 322 l 510 438 l 403 438 l 343 322 l 463 322 z "},".":{"ha":421,"x_min":76,"x_max":358,"o":"m 76 163 l 301 222 l 358 15 l 135 -44 l 76 163 z "},"?":{"ha":524,"x_min":21,"x_max":476,"o":"m 178 264 q 138 397 138 342 q 197 539 138 461 l 247 603 q 232 674 249 650 q 182 710 215 699 q 71 740 149 722 l 21 753 l 24 794 q 136 975 76 897 q 390 901 304 947 q 476 765 476 854 q 451 673 476 714 q 376 581 425 632 l 351 553 q 315 506 326 525 q 304 469 304 488 q 315 431 304 451 q 353 371 325 411 q 178 264 276 315 m 110 149 l 317 203 l 368 11 l 163 -44 l 110 149 z "},"¿":{"ha":524,"x_min":49,"x_max":504,"o":"m 157 729 l 363 785 l 415 592 l 208 538 l 157 729 m 389 -235 q 135 -160 221 -207 q 49 -25 49 -114 q 74 67 49 26 q 149 160 100 108 l 174 188 q 210 234 199 215 q 221 271 221 253 q 210 309 221 289 q 172 369 200 329 q 347 476 249 425 q 388 343 388 399 q 328 201 388 279 l 278 138 q 293 66 276 90 q 343 30 310 42 q 454 0 376 18 l 504 -12 l 501 -54 q 389 -235 449 -157 z "},"\"":{"ha":631,"x_min":69,"x_max":575,"o":"m 69 936 l 289 936 l 289 854 l 169 514 l 90 514 l 69 936 m 356 936 l 575 936 l 575 854 l 454 514 l 376 514 l 356 936 z "},"'":{"ha":338,"x_min":63,"x_max":282,"o":"m 63 936 l 282 936 l 282 854 l 163 514 l 83 514 l 63 936 z "},";":{"ha":385,"x_min":56,"x_max":329,"o":"m 58 633 l 274 689 l 329 493 l 115 436 l 58 633 m 94 -239 q 146 -110 135 -142 q 157 -62 157 -79 q 151 -35 157 -47 q 129 -10 144 -24 l 56 64 q 203 229 115 168 q 279 158 244 199 q 326 53 326 107 q 319 3 326 26 q 292 -68 311 -19 q 201 -239 257 -143 l 94 -239 z "},"/":{"ha":426,"x_min":4,"x_max":422,"o":"m 329 1047 l 422 1047 l 99 -85 l 4 -85 l 329 1047 z "},"_":{"ha":681,"x_min":0,"x_max":681,"o":"m 0 -92 l 681 -92 l 681 -222 l 0 -222 l 0 -92 z "},"{":{"ha":513,"x_min":22,"x_max":457,"o":"m 401 -290 q 267 -260 315 -290 q 198 -174 218 -231 q 174 -22 178 -117 q 160 184 168 124 q 122 275 151 244 q 22 311 92 306 q 49 497 32 411 q 128 540 104 508 q 160 628 153 571 q 174 826 168 686 q 229 1031 179 968 q 401 1093 279 1093 l 457 1093 l 435 907 q 368 897 386 907 q 344 853 350 886 q 336 725 339 819 q 325 556 333 608 q 290 470 317 504 q 197 403 263 436 q 290 333 263 368 q 326 247 318 297 q 336 79 333 196 q 344 -49 339 -17 q 368 -92 350 -82 q 435 -103 386 -103 l 457 -103 l 432 -290 l 401 -290 z "},"}":{"ha":511,"x_min":56,"x_max":490,"o":"m 78 -104 q 144 -94 126 -104 q 167 -51 161 -83 q 175 78 172 -18 q 188 247 179 196 q 223 333 196 299 q 314 400 250 367 q 222 470 249 435 q 187 556 194 506 q 175 724 179 606 q 167 852 172 819 q 144 895 161 885 q 78 906 126 906 l 56 906 l 81 1093 l 111 1093 q 246 1063 197 1093 q 315 976 294 1033 q 339 825 335 919 q 353 619 344 679 q 391 528 361 558 q 490 492 421 497 q 464 306 482 393 q 384 263 408 294 q 352 174 360 232 q 339 -24 344 117 q 283 -228 333 -165 q 111 -290 233 -290 l 56 -290 l 78 -104 z "},"[":{"ha":444,"x_min":97,"x_max":389,"o":"m 97 1096 l 389 1096 l 389 969 l 267 969 l 267 -167 l 389 -167 l 389 -293 l 97 -293 l 97 1096 z "},"]":{"ha":443,"x_min":54,"x_max":346,"o":"m 54 -167 l 176 -167 l 176 969 l 54 969 l 54 1096 l 346 1096 l 346 -293 l 54 -293 l 54 -167 z "},"(":{"ha":450,"x_min":49,"x_max":401,"o":"m 401 -283 q 249 -133 329 -231 q 108 108 168 -35 q 49 419 49 251 q 108 725 49 588 q 249 953 168 863 q 401 1092 329 1044 l 401 956 q 281 721 331 857 q 232 419 232 585 q 282 110 232 253 q 401 -137 332 -33 l 401 -283 z "},")":{"ha":450,"x_min":49,"x_max":401,"o":"m 49 -137 q 168 110 118 -33 q 218 419 218 253 q 169 721 218 585 q 49 956 119 857 l 49 1092 q 201 953 121 1044 q 342 725 282 863 q 401 419 401 588 q 342 108 401 251 q 201 -133 282 -35 q 49 -283 121 -231 l 49 -137 z "},"—":{"ha":1525,"x_min":150,"x_max":1375,"o":"m 150 478 l 1375 478 l 1375 333 l 150 333 l 150 478 z "},"–":{"ha":1075,"x_min":108,"x_max":967,"o":"m 108 478 l 967 478 l 967 333 l 108 333 l 108 478 z "},"-":{"ha":656,"x_min":122,"x_max":533,"o":"m 122 471 l 461 517 l 533 517 l 533 333 l 122 333 l 122 471 z "},"­":{"ha":642,"x_min":122,"x_max":533,"o":"m 122 471 l 461 517 l 533 517 l 533 333 l 122 333 l 122 471 z "},"«":{"ha":693,"x_min":28,"x_max":639,"o":"m 28 385 l 232 683 l 338 665 l 211 385 l 326 100 l 215 82 l 28 385 m 328 385 l 532 683 l 639 665 l 511 385 l 628 100 l 515 82 l 328 385 z "},"»":{"ha":693,"x_min":54,"x_max":665,"o":"m 65 100 l 181 385 l 54 665 l 161 683 l 365 385 l 176 82 l 65 100 m 367 100 l 482 385 l 356 665 l 461 683 l 665 385 l 478 82 l 367 100 z "},"‹":{"ha":392,"x_min":28,"x_max":338,"o":"m 28 385 l 232 683 l 338 665 l 211 385 l 326 100 l 215 82 l 28 385 z "},"›":{"ha":392,"x_min":54,"x_max":365,"o":"m 65 100 l 181 385 l 54 665 l 161 683 l 365 385 l 176 82 l 65 100 z "},"„":{"ha":660,"x_min":49,"x_max":611,"o":"m 75 -242 q 138 -105 126 -133 q 150 -60 150 -76 q 144 -35 150 -46 q 119 -8 138 -24 l 49 56 q 190 231 117 157 q 269 169 238 199 q 315 122 300 143 q 336 79 331 101 q 463 231 400 168 q 539 169 515 192 q 594 112 578 138 q 611 57 611 86 q 456 -232 611 -11 l 347 -242 q 410 -105 399 -133 q 422 -60 422 -76 q 415 -35 422 -46 q 392 -8 408 -25 l 338 40 q 183 -232 321 -39 l 75 -242 z "},"“":{"ha":660,"x_min":49,"x_max":611,"o":"m 197 497 q 119 557 160 522 q 65 615 81 590 q 49 671 49 640 q 204 960 49 739 l 313 969 q 249 833 261 861 q 238 788 238 804 q 244 763 238 774 q 267 736 250 751 l 321 688 q 475 960 338 767 l 585 969 q 522 833 533 861 q 510 788 510 804 q 516 763 510 774 q 539 736 522 751 l 611 672 q 468 497 535 563 q 390 557 415 536 q 342 606 358 586 q 322 649 326 626 q 197 497 263 563 z "},"”":{"ha":661,"x_min":49,"x_max":613,"o":"m 76 497 q 140 634 128 606 q 151 679 151 663 q 144 703 151 692 q 121 731 138 715 l 49 794 q 192 969 115 890 q 269 908 240 936 q 316 861 300 882 q 338 818 332 840 q 464 969 401 907 q 540 908 517 931 q 596 851 579 876 q 613 796 613 825 q 457 507 613 728 l 347 497 q 410 634 399 606 q 422 679 422 663 q 416 703 422 692 q 393 731 410 715 l 339 778 q 185 507 322 700 l 76 497 z "},"‘":{"ha":389,"x_min":49,"x_max":340,"o":"m 197 497 q 119 557 144 536 q 65 617 82 592 q 49 671 49 642 q 204 960 49 739 l 314 969 q 251 833 263 861 q 239 788 239 804 q 245 763 239 774 q 268 736 251 751 l 340 672 q 197 497 271 568 z "},"’":{"ha":389,"x_min":49,"x_max":340,"o":"m 76 497 q 140 634 128 606 q 151 679 151 663 q 144 703 151 692 q 121 731 138 715 l 49 794 q 192 969 115 890 q 269 908 250 926 q 324 851 307 876 q 340 796 340 825 q 185 507 340 728 l 76 497 z "},"‚":{"ha":389,"x_min":49,"x_max":340,"o":"m 76 -240 q 140 -103 128 -132 q 151 -58 151 -75 q 145 -33 151 -44 q 121 -7 139 -22 l 49 57 q 192 232 119 160 q 269 171 250 189 q 324 113 307 139 q 340 58 340 88 q 185 -231 340 -10 l 76 -240 z "},"׳":{"ha":375,"x_min":35,"x_max":326,"o":"m 61 497 q 124 634 113 606 q 136 679 136 663 q 130 703 136 692 q 107 731 124 715 l 35 794 q 178 969 106 897 q 254 908 231 931 q 310 851 293 876 q 326 796 326 825 q 171 507 326 728 l 61 497 z "},"״":{"ha":647,"x_min":35,"x_max":599,"o":"m 63 497 q 126 634 114 606 q 138 679 138 663 q 131 703 138 692 q 107 731 124 715 l 35 794 q 178 969 101 890 q 256 908 226 936 q 302 861 286 882 q 324 818 318 840 q 450 969 388 907 q 526 908 503 931 q 582 851 565 876 q 599 796 599 825 q 443 507 599 728 l 333 497 q 397 634 385 606 q 408 679 408 663 q 402 703 408 692 q 379 731 396 715 l 325 778 q 171 507 308 700 l 63 497 z "},"־":{"ha":621,"x_min":83,"x_max":531,"o":"m 101 769 l 197 769 l 531 728 l 531 674 l 517 535 l 83 535 l 101 769 z "}," ":{"ha":286,"x_min":0,"x_max":0,"o":""},"¢":{"ha":796,"x_min":63,"x_max":733,"o":"m 733 69 q 619 12 688 36 q 479 -21 551 -12 l 489 -217 l 393 -217 l 401 -24 q 150 85 238 -18 q 63 376 63 189 q 153 651 63 547 q 400 767 243 756 l 393 954 l 489 954 l 481 767 q 717 707 597 758 q 679 472 711 642 l 586 464 l 494 579 q 410 588 447 588 q 343 582 372 588 q 317 506 326 553 q 308 407 308 458 q 481 160 308 160 q 576 174 518 160 q 699 211 635 188 l 733 69 z "},"¤":{"ha":897,"x_min":83,"x_max":814,"o":"m 613 124 q 449 75 536 75 q 283 126 357 75 l 175 6 l 83 93 l 208 203 q 158 367 158 272 q 208 531 158 458 l 85 642 l 172 735 l 285 607 q 449 657 357 657 q 615 607 543 657 l 724 732 l 814 640 l 690 531 q 740 367 740 456 q 690 201 740 276 l 813 89 l 721 0 l 613 124 m 449 218 q 553 262 510 218 q 597 367 597 306 q 553 472 597 428 q 449 515 510 515 q 345 472 389 515 q 301 367 301 428 q 345 262 301 306 q 449 218 389 218 z "},"$":{"ha":757,"x_min":76,"x_max":681,"o":"m 681 228 q 610 58 681 122 q 410 -21 539 -7 l 421 -217 l 324 -217 l 335 -25 q 76 14 215 -25 q 93 226 85 168 l 176 242 l 267 143 q 376 129 319 129 q 429 133 408 129 q 433 164 433 144 q 425 197 433 183 q 388 227 417 210 q 294 278 360 244 q 163 356 208 322 q 98 427 117 390 q 79 515 79 464 q 146 684 79 619 q 332 764 213 749 l 324 936 l 421 936 l 413 768 q 536 753 474 767 q 649 718 599 739 q 638 507 649 629 l 561 496 l 463 603 q 353 613 426 613 q 307 610 340 613 q 303 581 303 604 q 332 526 303 551 q 450 457 361 501 q 596 376 549 408 q 662 311 643 344 q 681 228 681 278 z "},"€":{"ha":881,"x_min":63,"x_max":822,"o":"m 822 68 q 676 2 764 28 q 506 -24 589 -24 q 277 48 365 -24 q 161 251 189 119 l 63 256 l 63 329 l 151 329 q 150 369 150 342 q 151 410 150 397 l 63 410 l 63 483 l 161 488 q 283 697 189 624 q 528 771 376 771 q 794 740 657 771 l 736 536 q 578 569 661 558 q 422 578 494 581 q 401 497 410 546 l 589 504 l 574 410 l 394 410 l 394 399 q 399 329 394 361 l 563 329 l 547 238 l 422 242 q 563 160 461 160 q 667 173 608 160 q 788 210 726 186 l 822 68 z "},"ƒ":{"ha":772,"x_min":-60,"x_max":793,"o":"m 125 -232 q -60 -212 38 -232 l 0 -24 q 103 -46 60 -40 q 192 -50 147 -51 l 264 464 l 165 465 l 185 601 l 285 607 l 297 697 q 397 894 314 824 q 608 964 479 964 q 793 946 694 964 l 735 757 q 630 779 674 774 q 543 783 586 785 l 518 619 l 679 628 l 654 457 l 497 460 l 436 33 q 337 -162 419 -92 q 125 -232 254 -232 z "},"₺":{"ha":881,"x_min":63,"x_max":804,"o":"m 804 369 q 749 170 804 258 q 594 32 693 82 q 368 -18 494 -18 l 196 -18 l 196 271 l 63 211 l 63 292 l 196 358 l 196 431 l 63 361 l 63 440 l 196 517 l 196 765 l 389 851 l 429 851 l 429 651 l 582 740 l 582 632 l 429 553 l 429 475 l 582 551 l 582 443 l 429 375 l 429 154 q 528 172 483 157 q 545 256 539 206 q 551 360 551 307 l 804 369 z "},"₽":{"ha":933,"x_min":76,"x_max":843,"o":"m 82 93 l 171 114 l 171 189 l 82 189 l 82 265 l 171 265 l 171 325 l 82 325 l 83 401 l 171 401 l 171 575 q 166 611 171 603 q 139 628 161 619 l 76 653 l 85 746 q 439 767 285 767 q 665 748 578 767 q 798 683 753 729 q 843 553 843 636 q 754 381 843 436 q 485 325 665 325 l 421 325 l 421 265 l 735 265 l 735 189 l 421 189 l 421 158 q 425 127 421 135 q 447 108 429 119 l 503 78 l 497 0 l 86 0 l 82 93 m 421 401 q 513 404 475 401 q 578 417 550 407 q 592 529 592 460 q 569 634 592 606 q 489 663 546 663 q 458 661 468 663 l 421 660 l 421 401 z "},"₪":{"ha":1482,"x_min":56,"x_max":1419,"o":"m 844 394 l 893 507 q 910 557 910 544 q 903 573 910 565 q 879 593 896 581 l 831 631 q 918 799 878 731 l 951 803 q 992 779 967 796 q 1039 746 1018 763 q 1079 698 1065 725 q 1093 642 1093 671 q 1057 508 1093 593 q 979 349 1021 424 q 844 329 918 332 l 844 394 m 597 -15 q 596 59 596 18 q 594 142 596 100 q 589 418 592 369 q 576 490 586 465 q 542 524 565 514 q 476 533 519 533 l 294 533 l 296 11 l 153 -14 l 100 -14 q 108 279 103 149 q 111 381 110 331 q 113 474 113 431 q 108 520 113 508 q 86 550 104 532 l 56 578 q 74 665 61 619 q 113 783 86 710 l 157 796 l 214 774 q 245 767 228 768 q 333 765 263 765 l 528 765 q 683 738 631 765 q 755 640 735 710 q 775 436 775 571 q 771 228 775 336 q 967 244 892 233 q 1133 290 1072 260 q 1218 370 1193 321 q 1243 494 1243 419 q 1236 546 1243 533 q 1206 568 1229 558 l 1138 597 q 1199 801 1178 750 l 1231 801 l 1288 785 q 1389 722 1358 764 q 1419 610 1419 681 q 1385 367 1419 524 q 1319 138 1350 210 q 996 13 1229 54 q 722 -15 840 -15 l 597 -15 z "},"£":{"ha":789,"x_min":46,"x_max":731,"o":"m 49 121 l 153 150 l 168 343 l 69 344 l 75 424 l 175 428 l 185 517 q 276 705 197 638 q 497 772 354 772 q 696 749 582 772 l 650 563 q 529 592 579 585 q 428 599 479 600 l 413 440 l 574 450 l 564 338 l 404 339 l 388 161 l 528 161 l 613 267 l 731 240 l 710 153 q 642 34 690 68 q 510 0 594 0 l 46 0 l 49 121 z "},"¥":{"ha":974,"x_min":97,"x_max":876,"o":"m 693 440 l 876 442 l 876 357 l 632 360 l 599 317 l 599 294 l 876 297 l 876 213 l 599 215 l 599 185 q 603 156 599 164 q 625 136 607 149 l 703 83 l 697 0 l 272 0 l 267 103 l 374 143 l 374 219 l 97 222 l 97 289 l 360 292 l 313 364 l 97 365 l 97 432 l 267 435 l 156 606 l 97 665 l 106 743 l 469 743 l 482 638 l 407 607 l 524 426 l 608 563 q 614 579 614 572 q 601 601 614 589 l 543 646 l 551 743 l 867 743 l 876 639 l 826 614 l 693 440 z "},"Ω":{"ha":982,"x_min":93,"x_max":890,"o":"m 93 157 l 236 135 l 236 149 q 93 419 93 233 q 148 629 93 536 q 300 774 203 722 q 519 826 397 826 q 719 779 635 826 q 847 647 803 732 q 890 450 890 561 q 740 144 890 251 l 740 135 l 890 157 l 890 0 l 578 0 l 561 171 q 650 411 650 249 q 603 586 650 525 q 464 647 557 647 q 358 632 418 647 q 335 467 335 574 q 356 298 335 364 q 435 189 378 232 l 414 0 l 93 0 l 93 157 z "},"≈":{"ha":871,"x_min":104,"x_max":767,"o":"m 550 404 q 478 419 519 404 q 378 461 438 433 q 333 481 368 465 q 283 496 299 496 l 151 418 l 104 488 q 136 538 108 500 q 210 609 164 576 q 314 642 256 642 q 385 627 344 642 q 486 585 426 613 q 531 565 496 581 q 581 550 565 550 l 711 628 l 758 560 q 727 509 754 547 q 654 438 700 471 q 550 404 608 404 m 557 124 q 486 139 526 124 q 383 182 446 154 q 339 201 374 186 q 290 217 304 217 l 158 138 l 111 207 q 143 258 115 219 q 217 329 171 296 q 321 363 263 363 q 391 348 350 363 q 492 306 432 333 q 548 281 521 292 q 588 269 575 269 l 718 349 l 767 279 q 735 228 763 267 q 660 157 707 190 q 557 124 614 124 z "},"∙":{"ha":468,"x_min":126,"x_max":340,"o":"m 233 301 q 158 333 190 301 q 126 410 126 365 q 158 485 126 454 q 233 517 190 517 q 309 485 278 517 q 340 410 340 454 q 308 333 340 365 q 233 301 276 301 z "},"÷":{"ha":1013,"x_min":111,"x_max":901,"o":"m 388 729 l 575 779 l 625 611 l 439 561 l 388 729 m 111 446 l 901 446 l 901 292 l 111 292 l 111 446 m 388 125 l 575 175 l 625 8 l 439 -42 l 388 125 z "},"∕":{"ha":682,"x_min":0,"x_max":682,"o":"m 510 763 l 682 763 l 175 0 l 0 0 l 510 763 z "},"=":{"ha":849,"x_min":111,"x_max":738,"o":"m 111 589 l 738 589 l 738 433 l 111 433 l 111 589 m 111 306 l 738 306 l 738 153 l 111 153 l 111 306 z "},">":{"ha":929,"x_min":139,"x_max":790,"o":"m 139 221 l 594 368 l 139 517 l 139 704 l 790 417 l 790 321 l 139 31 l 139 221 z "},"≥":{"ha":901,"x_min":139,"x_max":763,"o":"m 139 360 l 574 494 l 139 628 l 139 801 l 763 546 l 763 440 l 139 185 l 139 360 m 139 122 l 763 124 l 763 0 l 139 0 l 139 122 z "},"∆":{"ha":1114,"x_min":97,"x_max":1017,"o":"m 483 933 l 644 933 l 1017 0 l 97 0 l 483 933 m 740 161 l 525 735 l 306 161 l 740 161 z "},"∞":{"ha":1118,"x_min":97,"x_max":1021,"o":"m 354 78 q 168 155 239 78 q 97 363 97 232 q 160 552 97 483 q 332 621 224 621 q 558 475 489 621 q 651 588 606 556 q 764 621 696 621 q 950 544 879 621 q 1021 338 1021 467 q 958 147 1021 215 q 785 78 896 78 q 558 224 628 78 q 467 110 513 143 q 354 78 422 78 m 329 274 q 406 292 379 274 q 481 369 432 310 q 361 438 438 438 q 283 411 313 438 q 253 333 253 385 q 256 283 253 301 q 329 274 281 274 m 757 260 q 837 286 807 260 q 867 365 867 313 q 864 417 867 396 q 790 426 836 426 q 713 408 740 426 q 638 329 686 389 q 689 278 661 296 q 757 260 717 260 z "},"∫":{"ha":524,"x_min":-53,"x_max":576,"o":"m 118 -315 q -53 -279 36 -315 l -53 -86 q 55 -131 7 -114 q 157 -157 103 -147 l 157 811 q 214 1008 157 943 q 403 1072 271 1072 q 576 1033 486 1072 l 576 840 q 364 913 457 901 l 364 -54 q 307 -251 364 -186 q 118 -315 250 -315 z "},"<":{"ha":929,"x_min":139,"x_max":790,"o":"m 139 321 l 139 417 l 790 704 l 790 517 l 335 368 l 790 221 l 790 31 l 139 321 z "},"≤":{"ha":901,"x_min":139,"x_max":763,"o":"m 139 440 l 139 546 l 763 801 l 763 628 l 328 494 l 763 360 l 763 185 l 139 440 m 139 124 l 763 122 l 763 0 l 139 0 l 139 124 z "},"¬":{"ha":885,"x_min":111,"x_max":774,"o":"m 619 385 l 111 385 l 111 533 l 774 533 l 771 194 l 619 194 l 619 385 z "},"µ":{"ha":922,"x_min":35,"x_max":889,"o":"m 124 494 q 119 534 124 525 q 96 554 115 543 l 35 588 l 40 692 q 101 703 60 694 q 226 724 161 714 q 332 736 290 735 q 354 656 349 699 l 354 285 q 360 214 354 238 q 385 178 365 190 q 446 167 404 167 q 575 192 507 167 l 575 494 q 572 535 575 526 q 549 554 568 544 l 486 588 l 493 692 l 553 703 q 679 724 614 714 q 785 736 744 735 q 807 656 797 707 l 807 200 q 812 164 807 174 q 835 146 817 154 l 889 114 l 883 26 q 744 0 821 11 q 601 -14 668 -11 q 591 20 597 -3 q 582 54 585 43 l 578 54 q 465 2 525 22 q 354 -19 406 -18 l 354 -281 l 171 -315 l 124 -315 l 124 494 z "},"−":{"ha":851,"x_min":111,"x_max":740,"o":"m 111 446 l 740 446 l 740 292 l 111 292 l 111 446 z "},"×":{"ha":750,"x_min":97,"x_max":653,"o":"m 485 369 l 653 201 l 542 92 l 375 258 l 207 92 l 97 201 l 264 369 l 97 536 l 207 647 l 375 479 l 542 647 l 653 536 l 485 369 z "},"≠":{"ha":849,"x_min":111,"x_max":738,"o":"m 506 433 l 449 306 l 738 306 l 738 153 l 382 153 l 314 0 l 215 0 l 283 153 l 111 153 l 111 306 l 350 306 l 407 433 l 111 433 l 111 589 l 475 589 l 536 726 l 635 726 l 574 589 l 738 589 l 738 433 l 506 433 z "},"∂":{"ha":813,"x_min":63,"x_max":750,"o":"m 419 -29 q 239 13 321 -29 q 110 128 157 54 q 63 297 63 203 q 142 499 63 424 q 354 575 222 575 q 408 572 390 575 l 521 518 q 401 712 490 639 q 169 822 311 785 l 196 950 q 474 881 349 947 q 675 686 600 814 q 750 379 750 558 q 667 83 750 194 q 419 -29 583 -29 m 363 147 q 470 197 436 147 q 517 344 504 247 q 521 390 521 374 q 472 400 503 396 q 422 404 442 404 q 313 346 343 404 q 274 204 283 288 q 271 161 269 165 q 313 152 286 157 q 363 147 340 147 z "},"%":{"ha":885,"x_min":76,"x_max":808,"o":"m 76 94 l 808 783 l 808 636 l 76 -51 l 76 94 m 244 429 q 128 472 168 429 q 88 597 88 515 q 139 715 88 669 q 268 761 190 761 q 385 717 344 761 q 426 593 426 674 q 375 476 426 522 q 244 429 324 429 m 263 521 q 296 526 283 521 q 304 589 304 551 q 250 668 304 668 q 215 664 235 668 q 210 607 210 644 q 263 521 210 521 m 618 -31 q 499 13 540 -31 q 458 139 458 57 q 510 255 458 210 q 642 300 563 300 q 758 258 718 300 q 799 135 799 215 q 747 16 799 63 q 618 -31 696 -31 m 636 64 q 671 68 650 64 q 675 125 675 81 q 624 210 675 210 q 589 204 601 210 q 582 143 582 179 q 636 64 582 64 z "},"‰":{"ha":1254,"x_min":76,"x_max":1178,"o":"m 76 94 l 808 783 l 808 636 l 76 -51 l 76 94 m 244 429 q 128 472 168 429 q 88 597 88 515 q 139 715 88 669 q 268 761 190 761 q 385 717 344 761 q 426 593 426 674 q 375 476 426 522 q 244 429 324 429 m 263 521 q 296 526 283 521 q 304 589 304 551 q 250 668 304 668 q 215 664 235 668 q 210 607 210 644 q 263 521 210 521 m 618 -31 q 499 13 540 -31 q 458 139 458 57 q 510 255 458 210 q 642 300 563 300 q 758 258 718 300 q 799 135 799 215 q 747 16 799 63 q 618 -31 696 -31 m 997 -31 q 881 13 921 -31 q 840 139 840 57 q 891 255 840 210 q 1022 300 942 300 q 1138 258 1097 300 q 1178 135 1178 215 q 1127 16 1178 63 q 997 -31 1076 -31 m 636 64 q 671 68 650 64 q 675 125 675 81 q 624 210 675 210 q 589 204 601 210 q 582 143 582 179 q 636 64 582 64 m 1017 64 q 1051 68 1028 64 q 1056 125 1056 81 q 1003 210 1056 210 q 969 204 985 210 q 963 143 963 179 q 1017 64 963 64 z "},"+":{"ha":851,"x_min":111,"x_max":740,"o":"m 740 292 l 506 292 l 506 54 l 346 54 l 346 292 l 111 292 l 111 446 l 346 446 l 346 685 l 506 685 l 506 446 l 740 446 l 740 292 z "},"±":{"ha":781,"x_min":111,"x_max":669,"o":"m 318 442 l 111 442 l 111 574 l 318 574 l 318 763 l 464 763 l 464 574 l 669 574 l 669 442 l 464 442 l 464 254 l 318 254 l 318 442 m 111 140 l 669 142 l 669 0 l 111 0 l 111 140 z "},"∏":{"ha":1189,"x_min":76,"x_max":1113,"o":"m 81 146 l 168 168 l 182 700 q 178 749 183 738 q 149 771 172 761 l 76 804 l 82 936 l 1104 936 l 1111 790 l 1013 767 l 1026 225 q 1032 181 1028 192 q 1056 161 1036 171 l 1113 129 l 1107 0 l 685 0 l 678 143 l 775 168 l 789 751 l 407 751 l 421 225 q 426 181 422 192 q 450 161 431 171 l 522 119 l 517 0 l 88 0 l 81 146 z "},"√":{"ha":1013,"x_min":63,"x_max":982,"o":"m 185 186 l 67 186 l 63 286 q 224 324 104 299 q 383 353 344 350 l 528 -122 l 538 -122 l 733 1050 l 982 1050 l 656 -290 l 378 -315 l 185 186 z "},"∑":{"ha":921,"x_min":76,"x_max":844,"o":"m 76 142 l 363 465 l 76 794 l 92 936 l 806 936 q 815 651 815 789 l 713 646 l 613 767 l 404 772 l 590 465 l 404 164 l 635 169 l 740 292 l 844 285 q 822 0 839 163 l 92 0 l 76 142 z "},"◊":{"ha":925,"x_min":97,"x_max":828,"o":"m 97 469 l 385 958 l 553 958 l 828 467 l 540 -24 l 374 -24 l 97 469 m 632 383 l 417 768 l 293 553 l 510 167 l 632 383 z "},"|":{"ha":450,"x_min":167,"x_max":283,"o":"m 167 1067 l 283 1067 l 283 -315 l 167 -315 l 167 1067 z "},"¦":{"ha":450,"x_min":167,"x_max":283,"o":"m 167 1067 l 283 1067 l 283 586 l 167 586 l 167 1067 m 167 165 l 283 165 l 283 -315 l 167 -315 l 167 165 z "},"@":{"ha":1218,"x_min":90,"x_max":1128,"o":"m 681 876 q 903 832 801 876 q 1066 695 1004 788 q 1128 465 1128 603 q 1092 281 1128 360 q 992 161 1056 203 q 853 119 929 119 q 675 175 753 119 q 540 126 617 126 q 426 176 463 126 q 389 314 389 225 q 463 526 389 446 q 679 607 538 607 q 836 579 758 607 l 778 247 q 864 226 818 226 q 965 286 933 226 q 997 438 997 346 q 906 690 997 607 q 669 774 814 774 q 446 711 543 774 q 295 544 349 649 q 242 315 242 439 q 342 58 242 149 q 632 -33 442 -32 l 618 -137 q 355 -95 474 -137 q 163 44 236 -53 q 90 292 90 140 q 167 583 90 449 q 378 797 243 717 q 681 876 514 876 m 533 317 q 585 242 533 242 q 647 261 608 242 l 686 490 q 624 500 657 500 q 565 492 599 500 q 544 407 554 463 q 533 317 533 351 z "},"&":{"ha":1107,"x_min":33,"x_max":1058,"o":"m 871 157 q 949 174 890 157 q 1058 210 1008 192 l 1050 19 q 892 -17 983 -17 q 715 17 804 -17 q 646 46 679 31 q 372 -22 518 -22 q 195 10 272 -22 q 76 101 118 42 q 33 238 33 160 q 75 383 33 315 q 194 497 117 450 q 151 686 151 599 q 237 885 151 811 q 468 958 322 958 q 669 901 596 958 q 742 742 742 843 q 676 580 742 647 q 485 478 611 513 q 599 349 532 414 q 706 258 636 311 l 717 282 q 738 349 738 324 q 714 392 738 372 l 675 429 l 675 490 q 921 531 789 531 q 922 488 922 521 q 897 331 922 400 q 811 188 871 261 q 871 157 843 168 m 379 803 q 374 761 374 788 q 418 592 374 683 q 501 646 475 615 q 526 718 526 676 q 421 806 526 806 q 379 803 390 806 m 251 290 q 307 174 251 215 q 444 133 363 133 q 494 138 472 133 q 360 254 419 192 q 268 367 308 308 q 251 290 251 329 z "},"¶":{"ha":821,"x_min":76,"x_max":696,"o":"m 382 360 l 369 360 q 152 432 228 360 q 76 651 76 504 q 151 866 76 796 q 369 936 226 936 l 696 936 l 696 -201 l 596 -201 l 596 836 l 482 836 l 482 -201 l 382 -201 l 382 360 z "},"©":{"ha":1022,"x_min":76,"x_max":946,"o":"m 510 -54 q 292 4 392 -54 q 135 163 193 63 q 76 381 76 263 q 135 598 76 499 q 292 756 193 697 q 510 814 392 814 q 729 756 629 814 q 888 598 829 697 q 946 381 946 499 q 888 163 946 263 q 729 4 829 63 q 510 -54 629 -54 m 517 50 q 640 67 578 50 q 751 113 703 83 q 824 350 824 215 q 784 531 824 449 q 672 663 744 614 q 504 713 600 713 q 381 694 444 713 q 269 649 318 676 q 196 410 196 543 q 235 230 196 313 q 348 99 275 147 q 517 50 421 50 m 506 164 q 362 221 413 164 q 311 379 311 278 q 365 540 311 483 q 517 597 419 597 q 667 565 599 597 l 649 443 l 600 440 l 558 501 q 499 511 531 511 q 451 504 471 511 q 434 455 440 486 q 428 390 428 424 q 533 257 428 257 q 590 263 557 257 q 653 278 622 268 l 674 211 q 594 177 640 190 q 506 164 547 164 z "},"®":{"ha":728,"x_min":67,"x_max":661,"o":"m 364 364 q 214 403 282 364 q 106 511 146 443 q 67 661 67 579 q 106 812 67 743 q 214 920 146 881 q 364 960 282 960 q 514 920 446 960 q 622 812 582 881 q 661 661 661 743 q 622 511 661 579 q 514 403 582 443 q 364 364 446 364 m 368 433 q 453 446 410 433 q 529 478 496 458 q 566 556 553 514 q 579 640 579 597 q 552 765 579 708 q 476 856 525 822 q 360 890 426 890 q 275 878 318 890 q 199 846 232 865 q 149 685 149 775 q 176 559 149 617 q 253 467 203 501 q 368 433 303 433 m 243 569 l 272 579 l 272 736 q 270 749 272 746 q 261 756 268 753 l 240 767 l 243 801 q 363 811 318 811 q 457 791 428 811 q 486 725 486 771 q 473 681 486 700 q 435 651 460 661 l 501 546 l 500 528 l 422 528 l 358 639 l 347 639 l 347 593 q 348 580 347 585 q 354 572 349 575 l 374 564 l 369 528 l 244 528 l 243 569 m 374 686 q 404 690 396 686 q 408 725 408 703 q 400 754 408 746 q 369 763 392 763 q 349 761 353 763 l 349 688 q 374 686 357 686 z "},"§":{"ha":782,"x_min":101,"x_max":681,"o":"m 635 278 q 443 347 560 299 l 444 371 q 435 401 444 389 q 399 429 425 414 q 310 478 374 444 q 185 555 228 521 q 123 625 142 589 q 104 711 104 661 q 186 888 104 824 q 411 953 268 953 q 534 939 469 953 q 650 904 599 925 q 638 703 650 813 l 564 692 l 472 792 q 365 803 436 803 q 322 800 353 803 q 318 774 318 792 q 329 741 318 756 q 369 708 340 726 q 460 658 399 689 q 598 581 551 614 q 663 516 644 549 q 681 435 681 483 q 669 349 681 390 q 635 278 657 307 m 354 -214 q 101 -176 242 -214 q 118 25 110 -46 l 199 40 l 286 -53 q 388 -67 332 -67 q 439 -62 421 -67 q 443 -32 443 -53 q 435 -4 443 -15 q 401 22 426 7 q 310 69 375 36 q 185 147 228 113 q 123 217 142 181 q 104 303 104 253 q 138 449 104 394 q 315 385 243 417 q 314 369 314 381 q 326 331 314 346 q 367 299 339 315 q 460 250 394 282 q 598 173 551 206 q 663 107 644 140 q 681 26 681 74 q 594 -151 681 -87 q 354 -214 508 -214 z "},"™":{"ha":1257,"x_min":76,"x_max":1194,"o":"m 179 529 l 240 547 l 240 853 l 182 847 l 129 785 l 76 789 q 81 904 76 844 l 82 936 l 525 936 l 526 904 q 531 789 531 844 l 478 785 l 425 847 l 368 853 l 368 574 q 370 555 368 560 q 382 543 372 550 l 425 517 l 422 461 l 183 461 l 179 529 m 689 758 l 674 563 l 674 560 q 685 543 674 549 l 729 525 l 722 461 l 544 461 l 538 524 l 571 543 l 610 817 q 611 829 611 822 q 608 840 611 836 q 594 850 604 844 l 560 869 l 565 936 l 771 936 l 868 629 l 971 936 l 1161 936 l 1164 863 l 1119 850 l 1157 574 q 1163 553 1160 561 q 1181 526 1167 546 l 1194 507 l 1192 461 l 978 461 l 971 525 l 1029 540 l 1004 763 l 915 458 l 794 447 l 689 758 z "},"°":{"ha":554,"x_min":56,"x_max":497,"o":"m 261 565 q 109 615 163 565 q 56 749 56 664 q 123 899 56 846 q 292 953 190 953 q 444 902 390 953 q 497 767 497 851 q 430 617 497 669 q 261 565 363 565 m 293 653 q 344 664 322 653 q 358 751 358 703 q 265 863 358 863 q 207 854 242 863 q 197 772 197 822 q 293 653 197 653 z "},"℮":{"ha":853,"x_min":76,"x_max":776,"o":"m 431 -17 q 169 86 261 -17 q 76 369 76 189 q 121 584 76 494 q 248 721 165 674 q 440 768 331 768 q 688 669 600 768 q 776 390 776 571 q 772 314 776 354 l 322 314 l 322 178 q 510 138 403 138 q 708 171 594 138 l 740 76 q 602 9 688 35 q 431 -17 517 -17 m 539 425 l 539 607 q 411 628 479 628 q 322 619 369 628 l 322 422 l 539 425 z "},"ℓ":{"ha":732,"x_min":63,"x_max":683,"o":"m 524 164 q 651 178 572 164 l 668 36 q 435 -18 550 -18 q 256 43 314 -18 q 197 226 197 104 l 197 233 q 63 151 129 188 l 63 364 q 197 444 128 399 l 197 578 q 254 840 197 744 q 385 969 311 935 q 518 1004 458 1004 q 635 957 586 1004 q 683 826 683 910 q 615 624 683 731 q 431 413 547 518 l 431 276 q 450 187 431 210 q 524 164 469 164 m 431 628 q 533 767 517 711 q 488 847 533 847 q 431 826 461 847 l 431 628 z "},"^":{"ha":856,"x_min":76,"x_max":779,"o":"m 353 936 l 515 936 l 779 382 l 590 382 l 433 788 l 261 382 l 76 382 l 353 936 z "},"†":{"ha":774,"x_min":111,"x_max":663,"o":"m 325 494 l 111 488 l 111 607 l 325 600 l 325 865 l 449 865 l 449 600 l 663 607 l 663 488 l 449 494 l 449 -97 l 325 -97 l 325 494 z "},"‡":{"ha":774,"x_min":111,"x_max":663,"o":"m 325 168 l 111 161 l 111 281 l 325 274 l 325 494 l 111 488 l 111 607 l 325 600 l 325 865 l 449 865 l 449 600 l 663 607 l 663 488 l 449 494 l 449 274 l 663 281 l 663 161 l 449 168 l 449 -97 l 325 -97 l 325 168 z "},"̈":{"ha":0,"x_min":-615,"x_max":-44,"o":"m -615 990 l -419 1043 l -372 869 l -568 817 l -615 990 m -286 990 l -92 1043 l -44 869 l -239 817 l -286 990 z "},"̇":{"ha":0,"x_min":-385,"x_max":-142,"o":"m -385 990 l -189 1043 l -142 869 l -337 817 l -385 990 z "},"̀":{"ha":0,"x_min":-689,"x_max":-307,"o":"m -689 993 l -689 1050 l -439 1050 l -307 810 l -426 810 l -689 993 z "},"́":{"ha":0,"x_min":-490,"x_max":-108,"o":"m -358 1050 l -108 1050 l -108 993 l -369 810 l -490 810 l -358 1050 z "},"̋":{"ha":0,"x_min":-707,"x_max":-50,"o":"m -575 1050 l -351 1050 l -351 993 l -587 810 l -707 810 l -575 1050 m -274 1050 l -50 1050 l -50 993 l -285 810 l -406 810 l -274 1050 z "},"̂":{"ha":0,"x_min":-642,"x_max":-87,"o":"m -468 1050 l -261 1050 l -87 810 l -203 810 l -365 911 l -526 810 l -642 810 l -468 1050 z "},"̌":{"ha":0,"x_min":-636,"x_max":-82,"o":"m -636 1050 l -521 1050 l -358 949 l -197 1050 l -82 1050 l -256 810 l -462 810 l -636 1050 z "},"̆":{"ha":0,"x_min":-560,"x_max":-99,"o":"m -361 810 q -509 864 -458 810 q -560 1018 -560 918 q -558 1050 -560 1039 l -481 1050 q -424 978 -462 1003 q -322 954 -386 954 q -223 979 -257 954 q -178 1050 -189 1004 l -99 1050 q -178 874 -107 938 q -361 810 -250 810 z "},"̊":{"ha":0,"x_min":-468,"x_max":-128,"o":"m -300 810 q -428 842 -387 810 q -468 943 -468 874 q -421 1046 -468 1007 q -296 1085 -374 1085 q -128 950 -128 1085 q -173 847 -128 883 q -300 810 -218 810 m -294 885 q -253 890 -267 885 q -244 942 -244 926 q -303 1006 -244 1006 q -343 1003 -332 1006 q -351 954 -351 983 q -337 903 -351 921 q -294 885 -322 885 z "},"̃":{"ha":0,"x_min":-607,"x_max":-106,"o":"m -258 829 q -387 860 -301 829 q -443 877 -415 869 q -489 885 -471 885 q -508 870 -497 881 q -531 842 -518 860 l -607 842 q -548 986 -585 940 q -454 1032 -511 1032 q -397 1024 -426 1032 q -325 1001 -367 1017 q -283 988 -318 999 q -222 976 -249 976 q -206 992 -215 981 q -182 1019 -196 1003 l -106 1019 q -165 875 -128 921 q -258 829 -201 829 z "},"̄":{"ha":0,"x_min":-569,"x_max":-144,"o":"m -569 1001 l -144 985 l -144 860 l -569 847 l -569 1001 z "},"̒":{"ha":0,"x_min":-547,"x_max":-167,"o":"m -547 867 l -286 1050 l -167 1050 l -299 810 l -547 810 l -547 867 z "},"̦":{"ha":0,"x_min":-649,"x_max":-268,"o":"m -517 -75 l -268 -75 l -268 -132 l -529 -315 l -649 -315 l -517 -75 z "},"̧":{"ha":0,"x_min":-464,"x_max":-157,"o":"m -464 -264 q -372 -256 -414 -264 q -311 -233 -331 -247 q -308 -207 -308 -217 q -329 -174 -308 -183 q -418 -156 -350 -164 l -418 -128 l -372 29 l -264 29 l -318 -49 q -240 -68 -285 -56 q -178 -104 -199 -83 q -157 -162 -157 -125 q -235 -276 -157 -236 q -450 -315 -314 -315 l -464 -264 z "},"̨":{"ha":0,"x_min":-464,"x_max":-90,"o":"m -262 -315 q -404 -278 -344 -315 q -464 -164 -464 -242 q -381 -4 -464 -76 q -151 104 -297 68 l -90 33 q -296 -62 -236 -10 q -301 -100 -301 -74 q -272 -177 -301 -153 q -183 -201 -243 -201 q -114 -192 -153 -201 l -97 -275 q -262 -315 -178 -315 z "},"̵":{"ha":0,"x_min":-533,"x_max":-122,"o":"m -533 344 l -533 406 l -122 439 l -122 326 l -533 344 z "},"̶":{"ha":0,"x_min":-707,"x_max":-126,"o":"m -707 431 l -126 431 l -126 344 l -707 344 l -707 431 z "},"̷":{"ha":0,"x_min":-557,"x_max":-115,"o":"m -557 244 l -122 622 l -115 499 l -550 119 l -557 244 z "},"̸":{"ha":0,"x_min":-669,"x_max":26,"o":"m -89 936 l 26 936 l -551 0 l -669 0 l -89 936 z "},"´":{"ha":792,"x_min":249,"x_max":631,"o":"m 381 1050 l 631 1050 l 631 993 l 369 810 l 249 810 l 381 1050 z "},"˘":{"ha":792,"x_min":167,"x_max":628,"o":"m 365 810 q 217 864 268 810 q 167 1018 167 918 q 168 1050 167 1039 l 246 1050 q 302 978 264 1003 q 404 954 340 954 q 503 979 469 954 q 549 1050 538 1004 l 628 1050 q 548 874 619 938 q 365 810 476 810 z "},"ˇ":{"ha":792,"x_min":115,"x_max":669,"o":"m 115 1050 l 231 1050 l 393 949 l 554 1050 l 669 1050 l 496 810 l 289 810 l 115 1050 z "},"¸":{"ha":792,"x_min":244,"x_max":551,"o":"m 244 -264 q 336 -256 294 -264 q 397 -233 378 -247 q 400 -207 400 -217 q 379 -174 400 -183 q 290 -156 358 -164 l 290 -128 l 336 29 l 444 29 l 390 -49 q 468 -68 424 -56 q 531 -104 510 -83 q 551 -162 551 -125 q 473 -276 551 -236 q 258 -315 394 -315 l 244 -264 z "},"ˆ":{"ha":792,"x_min":118,"x_max":672,"o":"m 292 1050 l 499 1050 l 672 810 l 557 810 l 394 911 l 233 810 l 118 810 l 292 1050 z "},"¨":{"ha":792,"x_min":111,"x_max":682,"o":"m 111 990 l 307 1043 l 354 869 l 158 817 l 111 990 m 440 990 l 635 1043 l 682 869 l 488 817 l 440 990 z "},"˙":{"ha":792,"x_min":278,"x_max":521,"o":"m 278 990 l 474 1043 l 521 869 l 325 817 l 278 990 z "},"`":{"ha":792,"x_min":172,"x_max":554,"o":"m 172 993 l 172 1050 l 422 1050 l 554 810 l 435 810 l 172 993 z "},"˝":{"ha":792,"x_min":-36,"x_max":621,"o":"m 96 1050 l 319 1050 l 319 993 l 83 810 l -36 810 l 96 1050 m 397 1050 l 621 1050 l 621 993 l 386 810 l 265 810 l 397 1050 z "},"¯":{"ha":792,"x_min":182,"x_max":607,"o":"m 182 1001 l 607 985 l 607 860 l 182 847 l 182 1001 z "},"˛":{"ha":792,"x_min":192,"x_max":565,"o":"m 393 -315 q 251 -278 311 -315 q 192 -164 192 -242 q 275 -4 192 -76 q 504 104 358 68 l 565 33 q 360 -62 419 -10 q 354 -100 354 -74 q 383 -177 354 -153 q 472 -201 413 -201 q 542 -192 503 -201 l 558 -275 q 393 -315 478 -315 z "},"˚":{"ha":792,"x_min":217,"x_max":557,"o":"m 385 810 q 257 842 297 810 q 217 943 217 874 q 264 1046 217 1007 q 389 1085 311 1085 q 557 950 557 1085 q 512 847 557 883 q 385 810 467 810 m 390 885 q 432 890 418 885 q 440 942 440 926 q 382 1006 440 1006 q 342 1003 353 1006 q 333 954 333 983 q 348 903 333 921 q 390 885 363 885 z "},"˜":{"ha":792,"x_min":139,"x_max":640,"o":"m 488 829 q 358 860 444 829 q 303 877 331 869 q 257 885 275 885 q 238 870 249 881 q 215 842 228 860 l 139 842 q 198 986 161 940 q 292 1032 235 1032 q 349 1024 319 1032 q 421 1001 379 1017 q 463 988 428 999 q 524 976 497 976 q 540 992 531 981 q 564 1019 550 1003 l 640 1019 q 581 875 618 921 q 488 829 544 829 z "},"ְ":{"ha":0,"x_min":339,"x_max":494,"o":"m 339 -136 l 439 -78 l 494 -171 l 396 -229 l 339 -136 m 339 -303 l 439 -244 l 494 -337 l 396 -396 l 339 -303 z "},"ֱ":{"ha":0,"x_min":153,"x_max":681,"o":"m 153 -136 l 253 -78 l 308 -171 l 210 -229 l 153 -136 m 339 -136 l 439 -78 l 494 -171 l 396 -229 l 339 -136 m 525 -136 l 625 -78 l 681 -171 l 582 -229 l 525 -136 m 247 -303 l 347 -244 l 403 -337 l 304 -396 l 247 -303 m 525 -303 l 625 -244 l 681 -337 l 582 -396 l 525 -303 z "},"ֲ":{"ha":0,"x_min":161,"x_max":674,"o":"m 518 -136 l 618 -78 l 674 -171 l 575 -229 l 518 -136 m 161 -103 l 456 -103 l 456 -183 l 161 -194 l 161 -103 m 518 -303 l 618 -244 l 674 -337 l 575 -396 l 518 -303 z "},"ֳ":{"ha":0,"x_min":163,"x_max":671,"o":"m 515 -136 l 615 -78 l 671 -171 l 572 -229 l 515 -136 m 274 -190 l 163 -194 l 163 -103 l 457 -103 l 457 -183 l 343 -187 l 351 -342 l 265 -342 l 274 -190 m 515 -303 l 615 -244 l 671 -337 l 572 -396 l 515 -303 z "},"ִ":{"ha":0,"x_min":322,"x_max":510,"o":"m 322 -144 l 444 -74 l 510 -185 l 389 -256 l 322 -144 z "},"ֵ":{"ha":0,"x_min":246,"x_max":588,"o":"m 246 -136 l 346 -78 l 401 -171 l 303 -229 l 246 -136 m 432 -136 l 532 -78 l 588 -171 l 489 -229 l 432 -136 z "},"ֶ":{"ha":0,"x_min":246,"x_max":588,"o":"m 246 -136 l 346 -78 l 401 -171 l 303 -229 l 246 -136 m 432 -136 l 532 -78 l 588 -171 l 489 -229 l 432 -136 m 340 -303 l 440 -244 l 496 -337 l 397 -396 l 340 -303 z "},"ַ":{"ha":0,"x_min":263,"x_max":571,"o":"m 263 -92 l 571 -92 l 571 -176 l 263 -187 l 263 -92 z "},"ָ":{"ha":0,"x_min":263,"x_max":571,"o":"m 381 -183 l 263 -187 l 263 -92 l 571 -92 l 571 -176 l 454 -181 l 463 -336 l 371 -336 l 381 -183 z "},"ֹ":{"ha":0,"x_min":331,"x_max":503,"o":"m 331 922 l 442 986 l 503 885 l 394 821 l 331 922 z "},"ֺ":{"ha":0,"x_min":331,"x_max":503,"o":"m 331 922 l 442 986 l 503 885 l 394 821 l 331 922 z "},"ֻ":{"ha":0,"x_min":339,"x_max":733,"o":"m 339 -136 l 439 -78 l 494 -171 l 396 -229 l 339 -136 m 458 -243 l 558 -185 l 614 -278 l 515 -336 l 458 -243 m 578 -350 l 678 -292 l 733 -385 l 635 -443 l 578 -350 z "},"ּ":{"ha":0,"x_min":331,"x_max":503,"o":"m 331 401 l 442 465 l 503 363 l 394 299 l 331 401 z "},"ׁ":{"ha":0,"x_min":331,"x_max":503,"o":"m 331 922 l 442 986 l 503 885 l 394 821 l 331 922 z "},"ׂ":{"ha":0,"x_min":331,"x_max":503,"o":"m 331 922 l 442 986 l 503 885 l 394 821 l 331 922 z "},"ׇ":{"ha":0,"x_min":263,"x_max":571,"o":"m 381 -183 l 263 -187 l 263 -92 l 571 -92 l 571 -176 l 454 -181 l 463 -336 l 371 -336 l 381 -183 z "}}}
